<?xml version="1.0" encoding="UTF-8" standalone="no"?>
<!-- Created with Inkscape (http://www.inkscape.org/) -->

<svg
   width="100.887mm"
   height="49.841mm"
   viewBox="0 0 100.887 49.841"
   version="1.1"
   id="svg836"
   xmlns="http://www.w3.org/2000/svg"
   xmlns:svg="http://www.w3.org/2000/svg">
  <defs
     id="defs833" />
  <g
     id="g1152">
    <path
       d="m 28.167249,45.75654 q -3.444696,1.61565 -10.821833,2.89598 -6.79794,1.18888 -11.096189,1.18888 -3.078887,0 -4.420185,-0.94501 Q 0,47.61606 0,44.20185 L 0.609681,34.11164 Q 1.402265,20.14995 1.402265,3.13986 q 0,-1.31082 0.853553,-2.22534 Q 3.139855,0 4.420185,0 q 1.310814,0 2.164367,0.91452 0.884037,0.91452 0.884037,2.22534 0,17.22348 -0.823069,31.33758 l -0.396293,4.63358 q -0.243872,2.53017 -0.182904,4.48115 7.956333,0.0914 20.119463,-3.74953 0.518229,-0.15242 0.97549,-0.15242 1.310813,0 2.19485,1.03645 0.762101,0.94501 0.762101,2.16437 0,1.95098 -1.950978,2.8655 z"
       style="fill:#ff6600;stroke-width:1.56079"
       id="path3349" />
    <path
       d="m 24.750886,34.51735 q -5.121318,0 -8.809886,-3.78002 -4.115345,-4.2068 -4.328733,-11.30958 -0.182904,-6.88939 3.47518,-12.13264 4.267765,-6.18826 11.888774,-6.18826 6.096807,0 9.236663,5.57858 2.499691,4.51163 2.408239,10.85231 -0.09145,6.76746 -3.536148,11.55345 -3.901957,5.42616 -10.334089,5.42616 z M 26.579929,7.29511 q -4.481154,-0.0305 -6.980845,4.26776 -1.981462,3.4447 -1.981462,7.86488 0,4.42019 2.408239,6.8894 2.011946,2.04243 4.725025,2.04243 3.17034,0 5.456643,-2.31679 2.591143,-2.56066 2.743563,-6.91988 0.426777,-11.79732 -6.371163,-11.8278 z"
       style="fill:#ff6600;stroke-width:1.56079"
       id="path3351" />
    <path
       d="m 70.180658,18.52183 -0.70113,10.24264 q -0.18291,6.09681 -1.24985,9.96828 -1.37178,4.93841 -4.3897,7.28568 -3.65808,2.83502 -10.577954,2.83502 -4.054356,0 -6.797901,-0.54871 -3.840984,-0.7621 -3.840984,-3.17034 0,-2.71308 2.652111,-2.71308 1.097423,0 3.658068,0.51823 2.560648,0.54871 5.67,0.48774 5.85293,-0.0915 8.07827,-5.67003 1.46323,-3.71905 1.55468,-11.43151 -1.64613,3.0484 -3.93244,4.5726 -2.25582,1.5242 -5.18228,1.5242 -5.517583,0 -8.992742,-3.74953 -3.444699,-3.78002 -3.444699,-9.78538 0,-8.23069 4.72502,-13.26055 4.877413,-5.18229 13.291001,-5.18229 2.83501,0 4.75551,0.73162 1.92049,0.73161 2.92646,2.19485 3.26179,0.0914 3.26179,3.6276 0,2.16437 -0.64016,5.79197 -0.70113,4.20679 -0.82307,5.73099 z M 60.395288,5.32225 q -5.79197,0 -8.962292,3.99341 -2.835005,3.59711 -2.835005,9.14521 0,4.42018 1.676621,6.64552 1.676611,2.22533 5.029836,2.22533 3.07889,0 5.97487,-3.47518 2.62163,-3.20082 2.98744,-6.34068 0.64016,-3.29227 1.37178,-10.33409 -1.21936,-0.945 -2.53018,-1.40226 -1.31081,-0.45726 -2.71307,-0.45726 z"
       style="fill:#ff6600;stroke-width:1.56079"
       id="path3353" />
    <path
       d="m 87.014095,34.51735 q -5.12129,0 -8.80985,-3.78002 -4.11534,-4.2068 -4.32873,-11.30958 -0.1829,-6.88939 3.47518,-12.13264 4.26776,-6.18826 11.888718,-6.18826 6.096774,0 9.236616,5.57858 2.499681,4.51163 2.408231,10.85231 -0.0915,6.76746 -3.536132,11.55345 -3.901939,5.42616 -10.334033,5.42616 z M 88.843126,7.29511 q -4.481126,-0.0305 -6.980801,4.26776 -1.98145,3.4447 -1.98145,7.86488 0,4.42019 2.408217,6.8894 2.011938,2.04243 4.725003,2.04243 3.170322,0 5.45661,-2.31679 2.591125,-2.56066 2.743555,-6.91988 0.426767,-11.79732 -6.371134,-11.8278 z"
       style="fill:#ff6600;stroke-width:1.56079"
       id="path3355" />
  </g>
</svg>
