<svg xmlns="http://www.w3.org/2000/svg" xml:space="preserve" viewBox="0 0 150 150" y="0" x="0" version="1.1" height="30" width="30"><path d="M52.7 76.1q0 12 6 19 6 6.7 16.4 6.7 10.3 0 16.2-6.9 6-6.9 6-18.8 0-11.8-6-18.7-6.1-7-16.4-7-10.2 0-16.2 7-6 6.8-6 18.7zm45.8 25.1q-5 6.5-11.6 9.6-6.4 3-15 3-14.6 0-23.6-10.4-9-10.5-9-27.3t9-27.3q9.1-10.5 23.5-10.5 8.7 0 15.2 3.2 6.6 3 11.5 9.5V40h12v61.8q12.3-1.8 19.2-11.2 7-9.4 7-24.3 0-9-2.7-16.9-2.6-7.9-8-14.6-8.7-11-21.3-16.8Q92.2 12 77.4 12 67 12.1 57.5 15q-9.5 2.7-17.6 8-13.2 8.6-20.6 22.6-7.4 13.9-7.4 30 0 13.5 4.7 25.1 5 11.7 14 20.6 9 8.8 20.5 13.3 11.6 4.7 24.8 4.7 10.9 0 21.3-3.7 10.5-3.7 19.3-10.5l7.5 9.4q-10.5 8.1-23 12.4-12.3 4.4-25 4.4-15.6 0-29.4-5.6-13.8-5.4-24.6-16-10.7-10.5-16.4-24.2Q0 91.4 0 75.6q0-15.3 5.7-29.2Q11.4 32.5 22 22 33 11.4 47 5.7 61.4 0 77.3 0q17.8 0 33 7.3 15.3 7.3 25.7 20.8 6.3 8.2 9.6 17.9t3.3 20q0 22.1-13.3 34.9-13.4 12.8-37 13.3z" stroke="none" stroke-width="4.3" stroke-opacity="1" transform="scale(1.00788 .99218)" style="line-height:1.25" aria-label="@" font-style="normal" font-weight="400" font-size="172.2" font-family="sans-serif" letter-spacing="0" word-spacing="0" fill="#8a7252" fill-opacity="1"/></svg>