<svg xmlns="http://www.w3.org/2000/svg" xml:space="preserve" viewBox="0 0 150 150" y="0" x="0" version="1.1" height="30" width="30"><g transform="matrix(.29297 0 0 .29297 0 106)" fill="#8a7252"><path d="M464-10c0 61.8-50.2 112-112 112H160C98.2 102 48 51.8 48-10v-192c0-61.8 50.2-112 112-112h192c61.8 0 112 50.2 112 112zM352-362H160A160 160 0 0 0 0-202v192a160 160 0 0 0 160 160h192A160 160 0 0 0 512-10v-192a160 160 0 0 0-160-160z"/><path d="M256-26a80.1 80.1 0 0 1 0-160 80 80 0 0 1 0 160zm0-208a128 128 0 1 0 0 256 128 128 0 0 0 0-256z"/><circle cx="393.6" cy="-243.6" r="17.1"/></g></svg>