<svg xmlns="http://www.w3.org/2000/svg" xml:space="preserve" viewBox="0 0 150 150" version="1.1" height="30" width="30"><path d="M94.3 31.6c-.8.6-1.4 2-2.4 4.2-1.1 2.1-6.3 12.7-7 14.6-.7 2-1 3.5 1 4.9 2.2 1.4 7 5.5 8.5 6.8 1.4 1.2 1.6 2.5.5 4.6-1 2.2-3.3 9.1-10.6 17.3a64.2 64.2 0 0 1-14.7 12c-2.2 1.2-3.3.1-4.4-1-1-1-2.5-2.1-3.7-3.2-1.3-1-2.1-1.4-3.6-2.1-1.4-.7-2.6-.4-3.7.2l-15.8 6.6c-4.3 1.8-3.6 3.6-3.6 4.8l-.2 4.1c0 1.5.5 3.8 2.7 5.8 2.1 2 7.3 7.5 17.8 7.5s20.6-7.7 22-8.8c1.4-1 23.7-14.9 32.2-36.7 8.5-21.9 5.7-21.9 5.3-25.8-.3-4-5.1-12.7-10.1-14.5-5-1.8-9.3-1.8-10.2-1.3z" fill="#8a7252" stroke-width="5.8"/><circle cx="75" cy="75" r="68.6" fill="none" stroke="#8a7252" stroke-width="12.8" stroke-miterlimit="4" stroke-dasharray="none" stroke-opacity="1"/></svg>