<svg xmlns="http://www.w3.org/2000/svg" xml:space="preserve" viewBox="0 0 150 150" version="1.1" height="30" width="30"><g fill="#8a7252"><path d="M15.6 2.4C8.6 2.4 3 8 3 14.9c0 2.8.8 5.3 2.4 7.4L3.8 27l4.8-1.6A12.7 12.7 0 0 0 28.3 15c0-6.9-5.7-12.5-12.7-12.5Zm15 12.5A15 15 0 0 1 8.4 28L0 30.7l2.7-8A15 15 0 0 1 15.6 0a15 15 0 0 1 15 14.8Z" transform="scale(4.89125)"/><path d="M23.2 18.4a57.4 57.4 0 0 0-3.2-1.6c-.4-.2-.6-.2-.8.1L18 18.4c-.2.2-.4.3-.8 0-.4-.1-1.6-.5-3-1.7a11 11 0 0 1-2-2.6c-.3-.3 0-.5.1-.7l.6-.7.3-.6c.2-.2.1-.4 0-.6l-1.1-2.7c-.3-.8-.6-.6-.8-.6h-.8c-.2 0-.6 0-1 .4-.3.3-1.2 1.2-1.2 3s1.3 3.6 1.5 3.8c.2.3 2.5 4 6.3 5.6 3.7 1.4 3.7 1 4.4.9.7-.1 2.2-1 2.5-1.8.3-.8.3-1.6.2-1.7z" transform="scale(4.89125)"/></g></svg>