<?xml version="1.0" encoding="UTF-8" standalone="no"?>
<!-- Created with Inkscape (http://www.inkscape.org/) -->

<svg
   width="188.505mm"
   height="59.641998mm"
   viewBox="0 0 188.505 59.641998"
   version="1.1"
   id="svg1389"
   xmlns="http://www.w3.org/2000/svg"
   xmlns:svg="http://www.w3.org/2000/svg">
  <defs
     id="defs1386">
    <clipPath
       clipPathUnits="userSpaceOnUse"
       id="clipPath150">
      <path
         d="M 0,500 H 500 V 0 H 0 Z"
         id="path148" />
    </clipPath>
    <clipPath
       clipPathUnits="userSpaceOnUse"
       id="clipPath162">
      <path
         d="m 277.93,325.058 h 18.384 V 289.672 H 277.93 Z"
         id="path160" />
    </clipPath>
    <clipPath
       clipPathUnits="userSpaceOnUse"
       id="clipPath198">
      <path
         d="m 256.426,269.533 h 39.041 v -13.338 h -39.041 z"
         id="path196" />
    </clipPath>
    <clipPath
       clipPathUnits="userSpaceOnUse"
       id="clipPath234">
      <path
         d="m 223.387,279.177 h 13.565 v -38.876 h -13.565 z"
         id="path232" />
    </clipPath>
    <clipPath
       clipPathUnits="userSpaceOnUse"
       id="clipPath270">
      <path
         d="m 195.6,311.831 h 34.905 V 292.784 H 195.6 Z"
         id="path268" />
    </clipPath>
    <clipPath
       clipPathUnits="userSpaceOnUse"
       id="clipPath306">
      <path
         d="m 234.117,345.503 h 28.265 v -27.518 h -28.265 z"
         id="path304" />
    </clipPath>
  </defs>
  <g
     id="layer1">
    <g
       id="g2348"
       transform="translate(-8.295885,-42.780615)">
      <g
         id="g144"
         transform="matrix(0.35277776,0,0,-0.35277778,-51.068769,176.38889)">
        <g
           id="g146"
           clip-path="url(#clipPath150)">
          <g
             id="g152"
             transform="translate(295.9111,314.2338)">
            <path
               d="m 0,0 c -1.705,-10.901 -8.46,-19.758 -17.509,-24.561 -7.151,7.337 -10.88,17.833 -9.175,28.734 1.705,10.901 8.46,19.758 17.509,24.561 C -2.024,21.397 1.705,10.901 0,0"
               style="fill:#c83316;fill-opacity:1;fill-rule:nonzero;stroke:none"
               id="path154" />
          </g>
          <g
             id="g156">
            <g
               id="g158" />
            <g
               id="g170">
              <g
                 clip-path="url(#clipPath162)"
                 opacity="0.199997"
                 id="g168">
                <g
                   transform="translate(295.9111,314.2338)"
                   id="g166">
                  <path
                     d="M 0,0 C 0.577,3.691 0.518,7.332 -0.073,10.824 -3.201,9.165 -6.125,6.994 -8.7,4.287 -16.306,-3.706 -19.214,-14.459 -17.509,-24.561 -8.46,-19.758 -1.705,-10.901 0,0"
                     style="fill:#370d32;fill-opacity:1;fill-rule:nonzero;stroke:none"
                     id="path164" />
                </g>
              </g>
            </g>
          </g>
          <g
             id="g172"
             transform="translate(313.1927,292.5636)">
            <path
               d="m 0,0 c -10.906,-6.643 -23.782,-7.296 -34.791,-2.891 1.137,11.803 7.623,22.944 18.53,29.587 C -5.355,33.34 7.52,33.992 18.53,29.587 17.393,17.784 10.906,6.643 0,0"
               style="fill:#f84616;fill-opacity:1;fill-rule:nonzero;stroke:none"
               id="path174" />
          </g>
          <g
             id="g176"
             transform="translate(309.705,327.8722)">
            <path
               d="m 0,0 c -2.867,-1.746 -6.252,-1.918 -9.147,-0.76 0.299,3.103 2.004,6.032 4.872,7.779 2.867,1.746 6.252,1.918 9.146,0.76 C 4.573,4.676 2.867,1.747 0,0"
               style="fill:#f84616;fill-opacity:1;fill-rule:nonzero;stroke:none"
               id="path178" />
          </g>
          <g
             id="g180"
             transform="translate(317.7036,280.5709)">
            <path
               d="M 0,0 C -3.346,-0.279 -6.45,1.083 -8.52,3.414 -6.864,6.055 -4.028,7.911 -0.682,8.19 2.664,8.468 5.768,7.107 7.838,4.776 6.182,2.135 3.346,0.279 0,0"
               style="fill:#f84616;fill-opacity:1;fill-rule:nonzero;stroke:none"
               id="path182" />
          </g>
          <g
             id="g184"
             transform="translate(306.9581,345.2668)">
            <path
               d="m 0,0 c -0.955,-4.316 -3.877,-7.687 -7.615,-9.381 -2.675,3.113 -3.903,7.402 -2.948,11.718 0.954,4.315 3.877,7.687 7.615,9.381 C -0.273,8.605 0.955,4.315 0,0"
               style="fill:#f84616;fill-opacity:1;fill-rule:nonzero;stroke:none"
               id="path186" />
          </g>
          <g
             id="g188"
             transform="translate(285.1955,256.6255)">
            <path
               d="m 0,0 c -10.895,-1.747 -21.405,1.94 -28.77,9.062 4.768,9.069 13.598,15.858 24.493,17.606 10.894,1.747 21.405,-1.941 28.77,-9.063 C 19.725,8.537 10.895,1.747 0,0"
               style="fill:#fa811d;fill-opacity:1;fill-rule:nonzero;stroke:none"
               id="path190" />
          </g>
          <g
             id="g192">
            <g
               id="g194" />
            <g
               id="g206">
              <g
                 clip-path="url(#clipPath198)"
                 opacity="0.199997"
                 id="g204">
                <g
                   transform="translate(285.1955,256.6255)"
                   id="g202">
                  <path
                     d="M 0,0 C 3.689,0.592 7.134,1.773 10.272,3.414 7.727,5.877 4.759,7.986 1.389,9.599 -8.564,14.362 -19.689,13.805 -28.77,9.062 -21.405,1.94 -10.895,-1.747 0,0"
                     style="fill:#370d32;fill-opacity:1;fill-rule:nonzero;stroke:none"
                     id="path200" />
                </g>
              </g>
            </g>
          </g>
          <g
             id="g208"
             transform="translate(269.9262,233.4933)">
            <path
               d="m 0,0 c -9.688,8.32 -14.288,20.363 -13.501,32.195 11.577,2.566 24.177,-0.16 33.866,-8.48 C 30.053,15.395 34.652,3.352 33.865,-8.48 22.289,-11.046 9.688,-8.32 0,0"
               style="fill:#fad01d;fill-opacity:1;fill-rule:nonzero;stroke:none"
               id="path210" />
          </g>
          <g
             id="g212"
             transform="translate(302.429,247.7213)">
            <path
               d="M 0,0 C -2.547,2.187 -3.756,5.354 -3.549,8.464 -0.506,9.139 2.807,8.422 5.354,6.235 7.901,4.048 9.11,0.881 8.903,-2.229 5.86,-2.904 2.547,-2.187 0,0"
               style="fill:#fad01d;fill-opacity:1;fill-rule:nonzero;stroke:none"
               id="path214" />
          </g>
          <g
             id="g216"
             transform="translate(259.9144,225.4971)">
            <path
               d="M 0,0 C -1.299,3.096 -0.963,6.469 0.614,9.158 3.638,8.399 6.279,6.275 7.578,3.179 8.877,0.083 8.541,-3.289 6.964,-5.978 3.941,-5.219 1.299,-3.096 0,0"
               style="fill:#fad01d;fill-opacity:1;fill-rule:nonzero;stroke:none"
               id="path218" />
          </g>
          <g
             id="g220"
             transform="translate(318.1234,255.7089)">
            <path
               d="m 0,0 c -4.399,-0.426 -8.509,1.312 -11.275,4.344 2.134,3.506 5.834,5.999 10.233,6.425 4.4,0.425 8.509,-1.312 11.275,-4.344 C 8.1,2.919 4.399,0.426 0,0"
               style="fill:#fad01d;fill-opacity:1;fill-rule:nonzero;stroke:none"
               id="path222" />
          </g>
          <g
             id="g224"
             transform="translate(227.0954,249.0147)">
            <path
               d="M 0,0 C -5.028,9.821 -4.769,20.957 -0.271,30.162 9.826,28.43 19.012,22.13 24.041,12.308 29.069,2.487 28.81,-8.649 24.312,-17.854 14.214,-16.121 5.028,-9.821 0,0"
               style="fill:#008560;fill-opacity:1;fill-rule:nonzero;stroke:none"
               id="path226" />
          </g>
          <g
             id="g228">
            <g
               id="g230" />
            <g
               id="g242">
              <g
                 clip-path="url(#clipPath234)"
                 opacity="0.199997"
                 id="g240">
                <g
                   transform="translate(227.0955,249.0147)"
                   id="g238">
                  <path
                     d="M 0,0 C 1.703,-3.326 3.891,-6.236 6.421,-8.714 7.977,-5.533 9.066,-2.058 9.558,1.645 11.013,12.583 7.045,22.991 -0.272,30.162 -4.769,20.957 -5.028,9.821 0,0"
                     style="fill:#370d32;fill-opacity:1;fill-rule:nonzero;stroke:none"
                     id="path236" />
                </g>
              </g>
            </g>
          </g>
          <g
             id="g244"
             transform="translate(200.3769,256.3884)">
            <path
               d="M 0,0 C 4.919,11.785 14.951,19.881 26.447,22.789 32.465,12.572 33.766,-0.254 28.847,-12.04 23.929,-23.825 13.896,-31.921 2.4,-34.828 -3.618,-24.611 -4.919,-11.785 0,0"
               style="fill:#05b178;fill-opacity:1;fill-rule:nonzero;stroke:none"
               id="path246" />
          </g>
          <g
             id="g248"
             transform="translate(223.9525,229.8731)">
            <path
               d="M 0,0 C 1.293,3.098 3.931,5.227 6.953,5.991 8.535,3.305 8.877,-0.067 7.584,-3.165 6.291,-6.264 3.653,-8.392 0.631,-9.156 -0.951,-6.47 -1.293,-3.098 0,0"
               style="fill:#05b178;fill-opacity:1;fill-rule:nonzero;stroke:none"
               id="path250" />
          </g>
          <g
             id="g252"
             transform="translate(189.6784,263.4392)">
            <path
               d="M 0,0 C 2.543,2.192 5.854,2.915 8.899,2.246 9.112,-0.864 7.909,-4.033 5.366,-6.225 2.823,-8.417 -0.489,-9.14 -3.534,-8.471 -3.746,-5.361 -2.543,-2.192 0,0"
               style="fill:#05b178;fill-opacity:1;fill-rule:nonzero;stroke:none"
               id="path254" />
          </g>
          <g
             id="g256"
             transform="translate(236.399,217.4151)">
            <path
               d="M 0,0 C -1.764,4.053 -1.382,8.498 0.647,12.066 4.641,11.12 8.155,8.371 9.92,4.318 11.684,0.266 11.301,-4.179 9.272,-7.747 5.279,-6.801 1.764,-4.052 0,0"
               style="fill:#05b178;fill-opacity:1;fill-rule:nonzero;stroke:none"
               id="path258" />
          </g>
          <g
             id="g260"
             transform="translate(201.9032,301.9192)">
            <path
               d="M 0,0 C 7.787,7.817 18.458,11.012 28.602,9.579 30.075,-0.56 26.922,-11.243 19.135,-19.06 11.348,-26.878 0.677,-30.072 -9.467,-28.639 -10.94,-18.5 -7.787,-7.817 0,0"
               style="fill:#8b41d3;fill-opacity:1;fill-rule:nonzero;stroke:none"
               id="path262" />
          </g>
          <g
             id="g264">
            <g
               id="g266" />
            <g
               id="g278">
              <g
                 clip-path="url(#clipPath270)"
                 opacity="0.199997"
                 id="g276">
                <g
                   transform="translate(201.9032,301.9192)"
                   id="g274">
                  <path
                     d="M 0,0 C -2.637,-2.647 -4.729,-5.627 -6.303,-8.799 -2.797,-9.296 0.844,-9.258 4.518,-8.582 15.37,-6.586 24.043,0.404 28.602,9.579 18.458,11.012 7.787,7.817 0,0"
                     style="fill:#370d32;fill-opacity:1;fill-rule:nonzero;stroke:none"
                     id="path272" />
                </g>
              </g>
            </g>
          </g>
          <g
             id="g280"
             transform="translate(200.6596,329.6087)">
            <path
               d="m 0,0 c 12.728,-1.036 23.528,-8.076 29.846,-18.111 -7.857,-8.88 -19.654,-14.081 -32.382,-13.045 -12.728,1.036 -23.528,8.076 -29.846,18.111 C -24.524,-4.165 -12.728,1.036 0,0"
               style="fill:#d05af1;fill-opacity:1;fill-rule:nonzero;stroke:none"
               id="path282" />
          </g>
          <g
             id="g284"
             transform="translate(182.7273,298.9933)">
            <path
               d="M 0,0 C 3.346,-0.272 6.186,-2.123 7.847,-4.761 5.781,-7.096 2.68,-8.463 -0.667,-8.191 -4.013,-7.919 -6.852,-6.068 -8.513,-3.43 -6.448,-1.095 -3.346,0.272 0,0"
               style="fill:#d05af1;fill-opacity:1;fill-rule:nonzero;stroke:none"
               id="path286" />
          </g>
          <g
             id="g288"
             transform="translate(204.0593,341.9624)">
            <path
               d="M 0,0 C 2.871,-1.741 4.581,-4.667 4.886,-7.77 1.994,-8.933 -1.392,-8.768 -4.262,-7.026 -7.133,-5.285 -8.844,-2.359 -9.148,0.743 -6.256,1.906 -2.871,1.741 0,0"
               style="fill:#d05af1;fill-opacity:1;fill-rule:nonzero;stroke:none"
               id="path290" />
          </g>
          <g
             id="g292"
             transform="translate(174.7253,283.3062)">
            <path
               d="M 0,0 C 3.309,2.93 7.655,3.94 11.675,3.113 12.01,-0.977 10.481,-5.169 7.172,-8.1 3.863,-11.03 -0.483,-12.04 -4.503,-11.213 -4.837,-7.122 -3.309,-2.93 0,0"
               style="fill:#d05af1;fill-opacity:1;fill-rule:nonzero;stroke:none"
               id="path294" />
          </g>
          <g
             id="g296"
             transform="translate(244.4337,342.2269)">
            <path
               d="m 0,0 c 9.841,-4.99 16.177,-14.151 17.949,-24.242 -9.188,-4.534 -20.323,-4.836 -30.164,0.153 -9.841,4.99 -16.176,14.152 -17.948,24.243 C -20.976,4.687 -9.841,4.99 0,0"
               style="fill:#027dff;fill-opacity:1;fill-rule:nonzero;stroke:none"
               id="path298" />
          </g>
          <g
             id="g300">
            <g
               id="g302" />
            <g
               id="g314">
              <g
                 clip-path="url(#clipPath306)"
                 opacity="0.199997"
                 id="g312">
                <g
                   transform="translate(244.4336,342.2269)"
                   id="g310">
                  <path
                     d="m 0,0 c -3.332,1.69 -6.813,2.758 -10.316,3.276 0.61,-3.488 1.772,-6.94 3.55,-10.225 5.252,-9.704 14.58,-15.792 24.715,-17.293 C 16.177,-14.151 9.841,-4.99 0,0"
                     style="fill:#370d32;fill-opacity:1;fill-rule:nonzero;stroke:none"
                     id="path308" />
                </g>
              </g>
            </g>
          </g>
          <g
             id="g316"
             transform="translate(270.3836,351.9662)">
            <path
               d="m 0,0 c 2.948,-12.425 -0.41,-24.872 -8.001,-33.982 -10.874,4.729 -19.466,14.341 -22.414,26.766 -2.948,12.425 0.41,24.872 8.001,33.982 C -11.539,22.037 -2.948,12.425 0,0"
               style="fill:#02a8ff;fill-opacity:1;fill-rule:nonzero;stroke:none"
               id="path318" />
          </g>
          <g
             id="g320"
             transform="translate(235.7253,359.5601)">
            <path
               d="m 0,0 c 0.775,-3.267 -0.108,-6.539 -2.104,-8.934 -2.859,1.243 -5.117,3.77 -5.892,7.037 -0.775,3.267 0.108,6.539 2.103,8.934 C -3.034,5.794 -0.775,3.267 0,0"
               style="fill:#02a8ff;fill-opacity:1;fill-rule:nonzero;stroke:none"
               id="path322" />
          </g>
          <g
             id="g324"
             transform="translate(283.1833,352.5504)">
            <path
               d="m 0,0 c -0.769,-3.268 -3.023,-5.799 -5.88,-7.048 -2,2.391 -2.889,5.662 -2.12,8.93 0.769,3.268 3.023,5.799 5.88,7.048 C -0.12,6.539 0.769,3.268 0,0"
               style="fill:#02a8ff;fill-opacity:1;fill-rule:nonzero;stroke:none"
               id="path326" />
          </g>
          <g
             id="g328"
             transform="translate(218.3332,362.3229)">
            <path
               d="M 0,0 C 3.809,-2.242 6.113,-6.063 6.568,-10.142 2.782,-11.724 -1.677,-11.566 -5.487,-9.324 -9.296,-7.083 -11.6,-3.261 -12.055,0.817 -8.268,2.4 -3.809,2.242 0,0"
               style="fill:#02a8ff;fill-opacity:1;fill-rule:nonzero;stroke:none"
               id="path330" />
          </g>
        </g>
      </g>
      <text
         xml:space="preserve"
         style="font-style:normal;font-variant:normal;font-weight:normal;font-stretch:normal;font-size:28.2222px;font-family:Gabriola;-inkscape-font-specification:'Gabriola, Normal';font-variant-ligatures:normal;font-variant-caps:normal;font-variant-numeric:normal;font-variant-east-asian:normal;text-align:center;text-anchor:middle;fill:#f84616;fill-opacity:1;stroke:none;stroke-width:0.2;stroke-linecap:round;stroke-miterlimit:0;paint-order:markers fill stroke"
         x="135.14412"
         y="75.29303"
         id="text670"><tspan
           id="tspan668"
           style="font-style:normal;font-variant:normal;font-weight:normal;font-stretch:normal;font-size:28.2222px;font-family:Gabriola;-inkscape-font-specification:'Gabriola, Normal';font-variant-ligatures:normal;font-variant-caps:normal;font-variant-numeric:normal;font-variant-east-asian:normal;fill:#f84616;fill-opacity:1;stroke:none;stroke-width:0.2"
           x="135.14412"
           y="75.29303">Playful Pillows</tspan></text>
      <text
         xml:space="preserve"
         style="font-style:normal;font-variant:normal;font-weight:normal;font-stretch:normal;font-size:14.1111px;font-family:Gabriola;-inkscape-font-specification:'Gabriola, Normal';font-variant-ligatures:normal;font-variant-caps:normal;font-variant-numeric:normal;font-variant-east-asian:normal;text-align:center;text-anchor:middle;fill:#027dff;fill-opacity:1;stroke:#000000;stroke-width:0.2;stroke-linecap:round;stroke-miterlimit:0;paint-order:markers fill stroke"
         x="128.28558"
         y="94.44252"
         id="text674"><tspan
           id="tspan672"
           style="font-style:normal;font-variant:normal;font-weight:normal;font-stretch:normal;font-size:14.1111px;font-family:Gabriola;-inkscape-font-specification:'Gabriola, Normal';font-variant-ligatures:normal;font-variant-caps:normal;font-variant-numeric:normal;font-variant-east-asian:normal;fill:#027dff;fill-opacity:1;stroke-width:0.2"
           x="128.28558"
           y="94.44252">Claudia and Samantha</tspan></text>
    </g>
  </g>
</svg>
