<?xml version="1.0" encoding="UTF-8" standalone="no"?>
<!-- Created with Inkscape (http://www.inkscape.org/) -->

<svg
   width="166.77007mm"
   height="27.808838mm"
   viewBox="0 0 166.77007 27.808838"
   version="1.1"
   id="svg5"
   xmlns:inkscape="http://www.inkscape.org/namespaces/inkscape"
   xmlns:sodipodi="http://sodipodi.sourceforge.net/DTD/sodipodi-0.dtd"
   xmlns="http://www.w3.org/2000/svg"
   xmlns:svg="http://www.w3.org/2000/svg">
  <sodipodi:namedview
     id="namedview7"
     pagecolor="#ffffff"
     bordercolor="#000000"
     borderopacity="0.25"
     inkscape:showpageshadow="2"
     inkscape:pageopacity="0.0"
     inkscape:pagecheckerboard="0"
     inkscape:deskcolor="#d1d1d1"
     inkscape:document-units="mm"
     showgrid="false" />
  <defs
     id="defs2" />
  <g
     inkscape:label="Layer 1"
     inkscape:groupmode="layer"
     id="layer1"
     transform="translate(-21.614972,-146.83755)">
    <g
       id="g1880"
       inkscape:export-filename="elegant-hotel.svg"
       inkscape:export-xdpi="96"
       inkscape:export-ydpi="96">
      <path
         d="m 27.058219,155.91881 h 1.805228 q 0.923285,0 1.543402,-0.0689 0.620117,-0.0689 0.992187,-0.38585 0.38585,-0.33073 0.578775,-1.00597 0.192925,-0.68901 0.275608,-1.92925 h 0.978406 v 8.15798 h -0.978406 q -0.0689,-1.25401 -0.234267,-1.97059 -0.165364,-0.73036 -0.537434,-1.10243 -0.37207,-0.37207 -1.005967,-0.46853 -0.620117,-0.0965 -1.612304,-0.0965 h -1.805228 v 8.7092 h 3.651798 q 1.074869,0 1.887911,-0.0827 0.813042,-0.0827 1.419378,-0.30317 0.606336,-0.22049 1.033528,-0.62012 0.440972,-0.39963 0.75792,-1.03353 0.316949,-0.63389 0.537435,-1.5434 0.220486,-0.9095 0.413411,-2.14974 h 0.964626 l -0.275607,6.83507 H 21.614972 V 165.758 h 2.756074 v -17.81802 h -2.756074 v -1.10243 h 15.489137 l 0.275608,5.52593 h -0.964626 q -0.206706,-1.37804 -0.509874,-2.23242 -0.303168,-0.86817 -0.854383,-1.35048 -0.537435,-0.49609 -1.419378,-0.66146 -0.868164,-0.17914 -2.20486,-0.17914 h -4.368377 z"
         id="path1784"
         style="font-size:28.2222px;font-family:'Javanese Text';-inkscape-font-specification:'Javanese Text, Normal';fill:#ffd700;stroke-width:0.264583;stroke-linecap:round;stroke-miterlimit:0;paint-order:markers fill stroke" />
      <path
         d="m 44.821117,165.758 h 2.067055 v 1.10243 H 40.273594 V 165.758 h 2.067056 v -17.81802 h -2.067056 v -1.10243 h 4.547523 z"
         id="path1786"
         style="font-size:28.2222px;font-family:'Javanese Text';-inkscape-font-specification:'Javanese Text, Normal';fill:#ffd700;stroke-width:0.264583;stroke-linecap:round;stroke-miterlimit:0;paint-order:markers fill stroke" />
      <path
         d="m 59.635015,163.12595 q -0.440972,1.99815 -1.708766,3.05924 -1.267794,1.06109 -3.293509,1.06109 -1.391817,0 -2.480466,-0.48231 -1.08865,-0.4961 -1.84657,-1.3367 -0.757921,-0.8406 -1.157551,-1.95681 -0.399631,-1.12999 -0.399631,-2.39779 0,-1.29535 0.413411,-2.4529 0.413411,-1.15756 1.171332,-2.01194 0.7717,-0.85438 1.832789,-1.35047 1.074869,-0.50988 2.397785,-0.50988 1.212672,0 2.177298,0.42719 0.964626,0.42719 1.639864,1.1989 0.675239,0.75792 1.033528,1.819 0.37207,1.06109 0.399631,2.32889 h -8.309564 q -0.01378,0.23426 -0.01378,0.31695 0,0.0689 0,0.0827 0,1.62608 0.234266,2.64583 0.248047,1.01975 0.675238,1.59852 0.440972,0.565 1.033528,0.7717 0.606337,0.20671 1.336696,0.20671 0.675238,0 1.267794,-0.17915 0.606337,-0.17914 1.08865,-0.56499 0.482313,-0.39963 0.840602,-1.01975 0.37207,-0.6339 0.592556,-1.51584 0.275608,0.0276 0.551215,0.0965 0.275608,0.0689 0.523654,0.16537 z m -2.60449,-3.67936 q -0.04134,-1.14377 -0.248047,-1.84657 -0.192925,-0.71658 -0.523654,-1.11621 -0.330729,-0.39963 -0.785481,-0.53744 -0.440972,-0.15158 -0.978406,-0.15158 -0.564995,0 -1.061089,0.16536 -0.482313,0.16537 -0.868163,0.57878 -0.385851,0.41341 -0.647678,1.11621 -0.248046,0.7028 -0.344509,1.79145 z"
         id="path1788"
         style="font-size:28.2222px;font-family:'Javanese Text';-inkscape-font-specification:'Javanese Text, Normal';fill:#ffd700;stroke-width:0.264583;stroke-linecap:round;stroke-miterlimit:0;paint-order:markers fill stroke" />
      <path
         d="m 64.279001,169.83699 q -0.234266,0.38585 -0.344509,0.74414 -0.110243,0.35829 -0.110243,0.7028 0,0.55121 0.275607,0.9784 0.275608,0.42719 0.771701,0.71658 0.496093,0.28939 1.171331,0.42719 0.689019,0.15159 1.502061,0.15159 1.11621,0 1.984373,-0.26183 0.881944,-0.26183 1.488281,-0.73036 0.606336,-0.46853 0.923284,-1.08865 0.316949,-0.62011 0.316949,-1.35047 0,-0.59256 -0.220486,-0.96463 -0.206706,-0.37207 -0.592556,-0.57878 -0.38585,-0.2067 -0.923285,-0.28938 -0.523654,-0.0689 -1.157551,-0.0689 -0.454752,0 -1.019748,0 -0.564995,0.0138 -1.088649,0.0276 -0.523654,0.0138 -0.937065,0.0138 -0.413411,0.0138 -0.578776,0.0138 -0.785481,0 -1.364256,-0.19293 -0.564996,-0.19292 -0.950846,-0.53743 -0.38585,-0.34451 -0.578776,-0.81305 -0.179144,-0.46853 -0.179144,-1.00596 0,-0.74414 0.330728,-1.5434 0.330729,-0.79927 1.074869,-1.62609 -0.578775,-0.62011 -0.881943,-1.41938 -0.303169,-0.81304 -0.303169,-1.72254 0,-0.95085 0.330729,-1.79145 0.330729,-0.85438 0.950846,-1.48828 0.633897,-0.64768 1.543402,-1.01975 0.923284,-0.37207 2.094616,-0.37207 1.074869,0 1.915472,0.31695 0.840602,0.31695 1.446939,0.86816 0.38585,-0.39963 0.74414,-0.66145 0.37207,-0.26183 0.689018,-0.39964 0.316949,-0.15158 0.592556,-0.2067 0.275608,-0.0551 0.496094,-0.0551 0.344509,0 0.592556,0.11024 0.248046,0.0965 0.39963,0.27561 0.165365,0.16536 0.234267,0.38585 0.08268,0.2067 0.08268,0.42719 0,0.44097 -0.289388,0.79926 -0.275607,0.34451 -0.785481,0.34451 -0.399631,0 -0.757921,-0.26183 -0.344509,-0.26182 -0.454752,-0.7717 -0.275607,0.11025 -0.523654,0.27561 -0.234266,0.15158 -0.468533,0.35829 0.413412,0.57878 0.620117,1.26779 0.220486,0.68902 0.220486,1.44694 0,0.95085 -0.330729,1.80523 -0.330729,0.85438 -0.964626,1.50206 -0.633897,0.6339 -1.543401,1.00597 -0.909505,0.37207 -2.080836,0.37207 -0.826823,0 -1.515841,-0.19293 -0.689019,-0.19292 -1.240234,-0.53743 -0.344509,0.45475 -0.537434,0.86816 -0.179145,0.39963 -0.179145,0.75792 0,0.44098 0.38585,0.73036 0.399631,0.28939 1.350477,0.28939 0.151584,0 0.620116,0 0.482313,-0.0138 1.061089,-0.0138 0.578776,-0.0138 1.129991,-0.0138 0.564995,-0.0138 0.868163,-0.0138 0.978406,0 1.791448,0.17914 0.826822,0.16537 1.405598,0.57878 0.592556,0.41341 0.923285,1.08865 0.330729,0.67524 0.330729,1.68121 0,1.22645 -0.496094,2.20485 -0.496093,0.97841 -1.391817,1.66743 -0.881944,0.68902 -2.108397,1.04731 -1.212673,0.37207 -2.659611,0.37207 -1.267795,0 -2.246201,-0.27561 -0.964626,-0.26183 -1.626084,-0.7028 -0.661458,-0.44097 -1.005967,-1.01975 -0.344509,-0.56499 -0.344509,-1.18511 0,-0.59255 0.303168,-1.14377 0.316948,-0.55121 0.950846,-1.03353 0.261827,0.11025 0.454752,0.23427 0.192925,0.1378 0.413411,0.31695 z M 70.011635,159.295 q 0,-0.9784 -0.110243,-1.65364 -0.09646,-0.68902 -0.358289,-1.10243 -0.248047,-0.42719 -0.689019,-0.62012 -0.427191,-0.19292 -1.102429,-0.19292 -0.675239,0 -1.116211,0.19292 -0.440971,0.19293 -0.716579,0.6339 -0.261827,0.42719 -0.37207,1.12999 -0.110243,0.7028 -0.110243,1.70877 0,0.99218 0.09646,1.6812 0.110243,0.67524 0.37207,1.10243 0.261827,0.42719 0.689018,0.62012 0.440972,0.17914 1.10243,0.17914 0.675238,0 1.11621,-0.19292 0.454752,-0.19293 0.716579,-0.6339 0.261827,-0.44097 0.37207,-1.12999 0.110243,-0.7028 0.110243,-1.72255 z"
         id="path1790"
         style="font-size:28.2222px;font-family:'Javanese Text';-inkscape-font-specification:'Javanese Text, Normal';fill:#ffd700;stroke-width:0.264583;stroke-linecap:round;stroke-miterlimit:0;paint-order:markers fill stroke" />
      <path
         d="m 87.898558,166.86043 q -0.578775,0.11024 -1.074869,0.1378 -0.496093,0.0276 -0.785481,0.0276 -0.730359,0 -1.212672,-0.12402 -0.468533,-0.11024 -0.744141,-0.33073 -0.275607,-0.22049 -0.39963,-0.53743 -0.124024,-0.31695 -0.151584,-0.7028 h -0.0689 q -0.385851,0.53743 -0.826822,0.9095 -0.440972,0.37207 -0.923285,0.59256 -0.482313,0.22048 -0.992187,0.31695 -0.496093,0.0965 -1.005967,0.0965 -0.840603,0 -1.502061,-0.23427 -0.661457,-0.22048 -1.11621,-0.6339 -0.454752,-0.41341 -0.689018,-0.9784 -0.234267,-0.57878 -0.234267,-1.2678 0,-1.91547 1.874131,-2.90765 1.887911,-1.00597 5.429466,-1.07487 0.01378,-0.62012 0.01378,-1.11621 0.01378,-0.4961 0.01378,-0.97841 0,-1.25401 -0.523654,-1.75011 -0.509874,-0.50987 -1.626084,-0.50987 -0.74414,0 -1.336696,0.16536 -0.578776,0.16537 -0.950846,0.44098 0.330729,0.31694 0.482313,0.67523 0.165365,0.34451 0.165365,0.68902 0,0.57878 -0.37207,0.96463 -0.37207,0.38585 -1.019748,0.38585 -0.275607,0 -0.537434,-0.0827 -0.261827,-0.0827 -0.454752,-0.26183 -0.192926,-0.17914 -0.316949,-0.44097 -0.110243,-0.27561 -0.110243,-0.6339 0,-0.56499 0.303168,-1.08865 0.316949,-0.53743 0.923285,-0.95084 0.620117,-0.41342 1.529621,-0.66146 0.923285,-0.24805 2.149738,-0.24805 0.992187,0 1.750107,0.19293 0.771701,0.19292 1.295355,0.64767 0.537435,0.44098 0.799262,1.18512 0.275607,0.74414 0.275607,1.84657 0,0.2756 -0.01378,0.9095 0,0.62012 -0.01378,1.37804 -0.01378,0.75792 -0.02756,1.5434 0,0.7717 0,1.36426 0,0.60633 0.02756,1.01974 0.02756,0.39963 0.137804,0.64768 0.110243,0.23427 0.330729,0.34451 0.220486,0.0965 0.620117,0.0965 0.344509,0 0.909504,-0.0827 z m -4.423499,-5.67752 q -1.50206,0.0413 -2.425345,0.23427 -0.923285,0.17915 -1.433159,0.52366 -0.509874,0.33072 -0.689018,0.81304 -0.179145,0.48231 -0.179145,1.10243 0,1.07487 0.440972,1.6123 0.454752,0.52365 1.240233,0.52365 0.427192,0 0.950846,-0.17914 0.537434,-0.17915 1.005967,-0.57878 0.468532,-0.41341 0.771701,-1.07486 0.316948,-0.66146 0.316948,-1.63987 z"
         id="path1792"
         style="font-size:28.2222px;font-family:'Javanese Text';-inkscape-font-specification:'Javanese Text, Normal';fill:#ffd700;stroke-width:0.264583;stroke-linecap:round;stroke-miterlimit:0;paint-order:markers fill stroke" />
      <path
         d="m 93.824114,165.758 h 1.86035 v 1.10243 H 89.276591 V 165.758 h 2.067056 v -9.53602 h -2.067056 v -1.10243 h 4.547523 v 1.99816 h 0.05512 q 0.564996,-1.14378 1.515841,-1.75011 0.950846,-0.62012 2.452906,-0.62012 1.887911,0 2.811199,0.97841 0.92328,0.96462 0.92328,2.76985 v 7.26226 h 1.99816 v 1.10243 H 97.241646 V 165.758 h 1.86035 v -7.64811 q 0,-1.08865 -0.509874,-1.59852 -0.509873,-0.52366 -1.433158,-0.52366 -0.702799,0 -1.309135,0.30317 -0.606337,0.28939 -1.061089,0.90951 -0.440972,0.62011 -0.702799,1.58474 -0.261827,0.96463 -0.261827,2.28754 z"
         id="path1794"
         style="font-size:28.2222px;font-family:'Javanese Text';-inkscape-font-specification:'Javanese Text, Normal';fill:#ffd700;stroke-width:0.264583;stroke-linecap:round;stroke-miterlimit:0;paint-order:markers fill stroke" />
      <path
         d="m 113.72298,164.10435 q -0.37207,1.61231 -1.22646,2.38401 -0.85438,0.75792 -2.35644,0.75792 -0.78548,0 -1.41938,-0.19293 -0.62012,-0.19292 -1.06109,-0.60633 -0.44097,-0.42719 -0.67524,-1.07487 -0.23426,-0.66146 -0.23426,-1.59853 v -7.55164 h -2.06706 v -1.10243 h 2.06706 v -2.67339 l 2.48046,-0.41341 v 3.0868 h 3.5829 v 1.10243 h -3.5829 v 7.85481 q 0,0.565 0.0965,0.92329 0.11024,0.35829 0.30317,0.56499 0.19292,0.20671 0.45475,0.28939 0.26182,0.0689 0.59255,0.0689 0.44098,0 0.75792,-0.12402 0.31695,-0.1378 0.55122,-0.39963 0.24805,-0.27561 0.41341,-0.67524 0.17914,-0.39963 0.33073,-0.92328 0.26183,0.0413 0.50987,0.11024 0.24805,0.0689 0.48232,0.19292 z"
         id="path1796"
         style="font-size:28.2222px;font-family:'Javanese Text';-inkscape-font-specification:'Javanese Text, Normal';fill:#ffd700;stroke-width:0.264583;stroke-linecap:round;stroke-miterlimit:0;paint-order:markers fill stroke" />
      <path
         d="m 125.16068,165.758 v -17.81802 h -2.75607 v -1.10243 h 8.19932 v 1.10243 h -2.75608 v 7.97883 h 9.21907 v -7.97883 h -2.75607 v -1.10243 h 8.19932 v 1.10243 h -2.75608 V 165.758 h 2.75608 v 1.10243 h -8.19932 V 165.758 h 2.75607 v -8.7092 h -9.21907 v 8.7092 h 2.75608 v 1.10243 h -8.19932 V 165.758 Z"
         id="path1798"
         style="font-size:28.2222px;font-family:'Javanese Text';-inkscape-font-specification:'Javanese Text, Normal';fill:#ffd700;stroke-width:0.264583;stroke-linecap:round;stroke-miterlimit:0;paint-order:markers fill stroke" />
      <path
         d="m 144.57722,161.10023 q 0,-1.29535 0.39964,-2.4529 0.41341,-1.15755 1.19889,-2.02572 0.78548,-0.86816 1.91547,-1.36425 1.14377,-0.50988 2.59071,-0.50988 1.43316,0 2.53559,0.49609 1.10243,0.48232 1.84657,1.32292 0.74414,0.8406 1.11621,1.95681 0.38585,1.11621 0.38585,2.37023 0,1.29535 -0.41341,2.4529 -0.39963,1.15755 -1.18512,2.02572 -0.78548,0.86816 -1.92925,1.37803 -1.12999,0.4961 -2.57693,0.4961 -1.43316,0 -2.53558,-0.48231 -1.10243,-0.4961 -1.84657,-1.3367 -0.74414,-0.8406 -1.13,-1.95681 -0.37207,-1.11621 -0.37207,-2.37023 z m 2.72852,-0.0551 q 0,1.50206 0.2067,2.49425 0.20671,0.99219 0.60634,1.58474 0.39963,0.59256 1.00597,0.8406 0.60633,0.23427 1.41938,0.23427 0.79926,0 1.41937,-0.24805 0.62012,-0.24804 1.03353,-0.8406 0.41341,-0.60634 0.62012,-1.6123 0.22048,-1.01975 0.22048,-2.54937 0,-1.50206 -0.2067,-2.49425 -0.20671,-0.99219 -0.60634,-1.58474 -0.39963,-0.59256 -1.01974,-0.82682 -0.60634,-0.24805 -1.4056,-0.24805 -0.81304,0 -1.43316,0.24805 -0.60634,0.24804 -1.01975,0.85438 -0.41341,0.59256 -0.6339,1.6123 -0.2067,1.00597 -0.2067,2.53559 z"
         id="path1800"
         style="font-size:28.2222px;font-family:'Javanese Text';-inkscape-font-specification:'Javanese Text, Normal';fill:#ffd700;stroke-width:0.264583;stroke-linecap:round;stroke-miterlimit:0;paint-order:markers fill stroke" />
      <path
         d="m 167.25972,164.10435 q -0.37207,1.61231 -1.22645,2.38401 -0.85439,0.75792 -2.35645,0.75792 -0.78548,0 -1.41938,-0.19293 -0.62011,-0.19292 -1.06108,-0.60633 -0.44098,-0.42719 -0.67524,-1.07487 -0.23427,-0.66146 -0.23427,-1.59853 v -7.55164 h -2.06705 v -1.10243 h 2.06705 v -2.67339 l 2.48047,-0.41341 v 3.0868 h 3.58289 v 1.10243 h -3.58289 v 7.85481 q 0,0.565 0.0965,0.92329 0.11024,0.35829 0.30317,0.56499 0.19292,0.20671 0.45475,0.28939 0.26183,0.0689 0.59256,0.0689 0.44097,0 0.75792,-0.12402 0.31695,-0.1378 0.55121,-0.39963 0.24805,-0.27561 0.41341,-0.67524 0.17915,-0.39963 0.33073,-0.92328 0.26183,0.0413 0.50988,0.11024 0.24804,0.0689 0.48231,0.19292 z"
         id="path1802"
         style="font-size:28.2222px;font-family:'Javanese Text';-inkscape-font-specification:'Javanese Text, Normal';fill:#ffd700;stroke-width:0.264583;stroke-linecap:round;stroke-miterlimit:0;paint-order:markers fill stroke" />
      <path
         d="m 179.66205,163.12595 q -0.44097,1.99815 -1.70876,3.05924 -1.2678,1.06109 -3.29351,1.06109 -1.39182,0 -2.48047,-0.48231 -1.08865,-0.4961 -1.84657,-1.3367 -0.75792,-0.8406 -1.15755,-1.95681 -0.39963,-1.12999 -0.39963,-2.39779 0,-1.29535 0.41341,-2.4529 0.41341,-1.15756 1.17133,-2.01194 0.7717,-0.85438 1.83279,-1.35047 1.07487,-0.50988 2.39779,-0.50988 1.21267,0 2.17729,0.42719 0.96463,0.42719 1.63987,1.1989 0.67524,0.75792 1.03353,1.819 0.37207,1.06109 0.39963,2.32889 h -8.30957 q -0.0138,0.23426 -0.0138,0.31695 0,0.0689 0,0.0827 0,1.62608 0.23427,2.64583 0.24805,1.01975 0.67524,1.59852 0.44097,0.565 1.03352,0.7717 0.60634,0.20671 1.3367,0.20671 0.67524,0 1.2678,-0.17915 0.60633,-0.17914 1.08864,-0.56499 0.48232,-0.39963 0.84061,-1.01975 0.37207,-0.6339 0.59255,-1.51584 0.27561,0.0276 0.55122,0.0965 0.27561,0.0689 0.52365,0.16537 z m -2.60449,-3.67936 q -0.0413,-1.14377 -0.24804,-1.84657 -0.19293,-0.71658 -0.52366,-1.11621 -0.33073,-0.39963 -0.78548,-0.53744 -0.44097,-0.15158 -0.97841,-0.15158 -0.56499,0 -1.06109,0.16536 -0.48231,0.16537 -0.86816,0.57878 -0.38585,0.41341 -0.64768,1.11621 -0.24804,0.7028 -0.34451,1.79145 z"
         id="path1804"
         style="font-size:28.2222px;font-family:'Javanese Text';-inkscape-font-specification:'Javanese Text, Normal';fill:#ffd700;stroke-width:0.264583;stroke-linecap:round;stroke-miterlimit:0;paint-order:markers fill stroke" />
      <path
         d="m 186.31797,165.758 h 2.06706 v 1.10243 h -6.61458 V 165.758 h 2.06705 v -17.81802 h -2.06705 v -1.10243 h 4.54752 z"
         id="path1806"
         style="font-size:28.2222px;font-family:'Javanese Text';-inkscape-font-specification:'Javanese Text, Normal';fill:#ffd700;stroke-width:0.264583;stroke-linecap:round;stroke-miterlimit:0;paint-order:markers fill stroke" />
    </g>
  </g>
</svg>
