<?xml version="1.0" encoding="UTF-8" standalone="no"?>
<svg
   height="24"
   fill="currentColor"
   viewBox="0 0 24 13.090909"
   version="1.1"
   id="svg4"
   width="24"
   xmlns:xlink="http://www.w3.org/1999/xlink"
   xmlns="http://www.w3.org/2000/svg"
   xmlns:svg="http://www.w3.org/2000/svg">
  <defs
     id="defs8">
    <linearGradient
       id="linearGradient3727">
      <stop
         style="stop-color:#f09433;stop-opacity:1;"
         offset="0"
         id="stop3723" />
      <stop
         style="stop-color:#e6683c;stop-opacity:1;"
         offset="0.24504951"
         id="stop6635" />
      <stop
         style="stop-color:#dc2743;stop-opacity:1;"
         offset="0.5"
         id="stop7363" />
      <stop
         style="stop-color:#cc2366;stop-opacity:1;"
         offset="0.75"
         id="stop8091" />
      <stop
         style="stop-color:#bc1888;stop-opacity:1;"
         offset="1"
         id="stop3725" />
    </linearGradient>
    <linearGradient
       xlink:href="#linearGradient3727"
       id="linearGradient3729"
       x1="-26.876942"
       y1="22.081244"
       x2="-2.876941"
       y2="-1.9187571"
       gradientUnits="userSpaceOnUse"
       gradientTransform="translate(26.876941,1.9187572)" />
  </defs>
  <g
     id="g12499"
     transform="translate(0,-5.4545456)">
    <path
       id="rect2474"
       style="fill:url(#linearGradient3729);fill-opacity:1;stroke-width:1.008;stroke-linecap:square;stroke-linejoin:round;paint-order:fill markers stroke"
       d="M 1.682198,9.9999999e-8 H 22.317802 C 23.24974,9.9999999e-8 24,0.7502605 24,1.6821984 V 22.317802 C 24,23.24974 23.24974,24 22.317802,24 H 1.682198 C 0.75026,24 0,23.24974 0,22.317802 V 1.6821984 C 0,0.7502605 0.75026,9.9999999e-8 1.682198,9.9999999e-8 Z" />
    <path
       d="m 12,3.392625 c 2.8035,0 3.136,0.0105 4.24375,0.06125 2.8455,0.1295 4.174625,1.479625 4.304125,4.304125 0.05075,1.106875 0.06038,1.439375 0.06038,4.242875 0,2.804375 -0.0105,3.136 -0.06038,4.242875 -0.130375,2.821875 -1.456,4.174625 -4.304125,4.304125 -1.10775,0.05075 -1.4385,0.06125 -4.24375,0.06125 -2.8035,0 -3.136,-0.0105 -4.242875,-0.06125 C 4.904625,20.4175 3.5825,19.06125 3.453,16.242875 3.40225,15.136 3.39175,14.804375 3.39175,12 3.39175,9.1965 3.403125,8.864875 3.453,7.757125 3.583375,4.9335 4.909,3.5825 7.757125,3.453 8.864875,3.403125 9.1965,3.392625 12,3.392625 Z M 12,1.5 C 9.148375,1.5 8.791375,1.51225 7.671375,1.563 3.858125,1.738 1.738875,3.85375 1.563875,7.6705 1.51225,8.791375 1.5,9.148375 1.5,12 c 0,2.851625 0.01225,3.2095 0.063,4.3295 0.175,3.81325 2.29075,5.9325 6.1075,6.1075 C 8.791375,22.48775 9.148375,22.5 12,22.5 c 2.851625,0 3.2095,-0.01225 4.3295,-0.063 3.80975,-0.175 5.93425,-2.29075 6.106625,-6.1075 C 22.48775,15.2095 22.5,14.851625 22.5,12 22.5,9.148375 22.48775,8.791375 22.437,7.671375 22.2655,3.861625 20.147125,1.738875 16.330375,1.563875 15.2095,1.51225 14.851625,1.5 12,1.5 Z m 0,5.10825 c -2.977625,0 -5.39175,2.414125 -5.39175,5.39175 0,2.977625 2.414125,5.392625 5.39175,5.392625 2.977625,0 5.39175,-2.414125 5.39175,-5.392625 C 17.39175,9.022375 14.977625,6.60825 12,6.60825 Z M 12,15.5 c -1.932875,0 -3.5,-1.56625 -3.5,-3.5 0,-1.932875 1.567125,-3.5 3.5,-3.5 1.932875,0 3.5,1.567125 3.5,3.5 0,1.93375 -1.567125,3.5 -3.5,3.5 z M 17.60525,5.135625 c -0.6965,0 -1.260875,0.564375 -1.260875,1.26 0,0.695625 0.564375,1.26 1.260875,1.26 0.695625,0 1.259125,-0.564375 1.259125,-1.26 0,-0.695625 -0.5635,-1.26 -1.259125,-1.26 z"
       id="path2"
       style="fill:#ffffff;fill-opacity:1;stroke-width:0.875" />
  </g>
</svg>
