<?xml version="1.0" encoding="UTF-8" standalone="no"?>
<svg
   fill="currentColor"
   viewBox="0 0 24 12.892562"
   height="24"
   version="1.1"
   xml:space="preserve"
   style="clip-rule:evenodd;fill-rule:evenodd;stroke-linejoin:round;stroke-miterlimit:1.41421"
   id="svg3543"
   width="24"
   xmlns="http://www.w3.org/2000/svg"
   xmlns:svg="http://www.w3.org/2000/svg"><defs
     id="defs3547" /><g
     id="g4053"
     transform="translate(-1,-6.5537189)"><path
       id="rect2474"
       style="fill:#0088cc;fill-opacity:1;stroke-width:1.008;stroke-linecap:square;stroke-linejoin:round;paint-order:fill markers stroke"
       d="M 2.682198,0.9999999 H 23.317802 C 24.24974,0.9999999 25,1.7502603 25,2.6821982 V 23.317802 C 25,24.24974 24.24974,25 23.317802,25 H 2.682198 C 1.75026,25 1,24.24974 1,23.317802 V 2.6821982 C 1,1.7502603 1.75026,0.9999999 2.682198,0.9999999 Z" /><path
       id="telegram-1"
       d="m 18.585982,21.55657 c 0.281744,0.199495 0.64486,0.249369 0.968603,0.126872 0.323743,-0.123373 0.561737,-0.399866 0.633486,-0.734984 C 20.948428,17.37504 22.792886,8.330371 23.484996,5.07982 23.537496,4.8348256 23.449996,4.5802064 23.257501,4.4165851 23.065005,4.2529638 22.798136,4.2057149 22.560142,4.2940879 18.89135,5.652057 7.5927329,9.8913356 2.9745879,11.600171 c -0.293119,0.108498 -0.483864,0.390241 -0.47424,0.699109 0.0105,0.309743 0.218745,0.578362 0.518864,0.668485 2.071077,0.619486 4.789641,1.481341 4.789641,1.481341 0,0 1.270471,3.836788 1.932831,5.787994 0.08312,0.244994 0.2747431,0.43749 0.5276131,0.503988 0.251994,0.06562 0.521488,-0.0035 0.709608,-0.181121 1.063976,-1.004477 2.708939,-2.557567 2.708939,-2.557567 0,0 3.125428,2.291573 4.898138,3.55417 z m -9.6335301,-7.592203 1.4690911,4.84564 0.326368,-3.068555 c 0,0 5.675995,-5.119508 8.911672,-8.0375667 0.0945,-0.085748 0.107622,-0.2292448 0.02887,-0.3298675 C 19.610583,7.2733951 19.467087,7.2497706 19.359465,7.3180188 15.6093,9.7128396 8.9524519,13.964367 8.9524519,13.964367 Z"
       style="fill:#ffffff;stroke-width:0.87498" /></g></svg>
