<?xml version="1.0" encoding="UTF-8" standalone="no"?>
<svg
   height="24"
   viewBox="0 0 24 279.27273"
   version="1.1"
   id="svg2496"
   width="24"
   xmlns="http://www.w3.org/2000/svg"
   xmlns:svg="http://www.w3.org/2000/svg">
  <defs
     id="defs2500" />
  <g
     id="g3012">
    <path
       id="rect2474"
       style="fill:#000000;fill-opacity:1;stroke-width:11.7295;stroke-linecap:square;stroke-linejoin:round;paint-order:fill markers stroke"
       d="m -108.0617,8.75e-6 h 240.1234 c 10.8444,0 19.5747,8.73030005 19.5747,19.57467025 V 259.69805 c 0,10.84437 -8.7303,19.57467 -19.5747,19.57467 h -240.1234 c -10.8444,0 -19.5747,-8.7303 -19.5747,-19.57467 V 19.574679 c 0,-10.8443702 8.7303,-19.57467025 19.5747,-19.57467025 z" />
    <path
       fill="currentColor"
       d="M 113.81441,118.71054 A 95.50601,95.50601 0 0 1 57.995749,100.86511 v 81.25694 A 73.905083,73.905083 0 1 1 -5.7612985,108.88987 v 40.86944 A 33.926775,33.926775 0 1 0 17.985559,182.12205 V 23.272729 h 40.01019 a 55.095773,55.095773 0 0 0 0.845619,10.079829 v 0 a 55.550434,55.550434 0 0 0 24.510762,36.472876 55.209438,55.209438 0 0 0 30.46228,9.156857 z"
       id="path2494"
       style="fill:#ffffff;stroke-width:0.454661" />
  </g>
</svg>
