<?xml version="1.0" encoding="UTF-8" standalone="no"?>
<svg
   height="24"
   enable-background="new 0 0 100 100"
   viewBox="0 0 24 54.545455"
   id="viber"
   version="1.1"
   width="24"
   xmlns="http://www.w3.org/2000/svg"
   xmlns:svg="http://www.w3.org/2000/svg">
  <defs
     id="defs11" />
  <g
     id="g1030"
     transform="translate(-38,-22.727272)">
    <path
       id="rect2474"
       style="fill:#7360f2;fill-opacity:1;stroke-width:2.29091;stroke-linecap:square;stroke-linejoin:round;paint-order:fill markers stroke"
       d="m 26.55045,22.727273 h 46.8991 c 2.118041,0 3.823178,1.705138 3.823178,3.823178 V 73.44955 c 0,2.118041 -1.705137,3.823177 -3.823178,3.823177 h -46.8991 c -2.118041,0 -3.823178,-1.705136 -3.823178,-3.823177 V 26.550451 c 0,-2.11804 1.705137,-3.823178 3.823178,-3.823178 z" />
    <g
       id="g302"
       style="fill:#ffffff"
       transform="matrix(0.50398772,0,0,0.50398772,24.800658,24.800649)">
      <path
         style="fill:#ffffff"
         d="M 89.405,71.095 C 81.617,65.601 71.824,55.087 64.193,66.798 61.646,70.654 58.081,70.822 54.353,69.131 44.076,64.471 36.141,57.292 31.492,46.846 26.01,33.871 39.431,36.308 39.182,27.262 38.915,22.338 26.958,5.88 22.236,4.143 20.282,3.424 18.336,3.471 16.348,4.139 5.276,7.862 0.69,16.968 5.082,27.75 c 13.103,32.168 36.161,54.562 67.903,68.23 1.81,0.778 3.82,1.089 4.838,1.369 7.227,0.073 15.692,-6.89 18.137,-13.8 2.354,-6.648 -2.62,-9.286 -6.555,-12.454 z"
         id="path296" />
      <path
         style="fill:#ffffff"
         d="m 53.594,7.743 c 23.205,3.568 33.907,14.603 36.862,37.975 0.274,2.159 -0.53,5.407 2.55,5.467 3.219,0.062 2.443,-3.139 2.47,-5.3 C 95.749,23.872 76.556,3.466 54.265,2.713 c -1.682,0.242 -5.162,-1.16 -5.379,2.61 -0.144,2.541 2.786,2.124 4.708,2.42 z"
         id="path2" />
      <path
         fill="currentColor"
         fill-rule="evenodd"
         d="m 58.154,14.133 c -2.232,-0.269 -5.179,-1.321 -5.7,1.777 -0.545,3.251 2.739,2.921 4.85,3.393 14.332,3.203 19.322,8.42 21.682,22.636 0.345,2.073 -0.34,5.299 3.182,4.764 2.61,-0.398 1.668,-3.163 1.886,-4.778 0.116,-13.649 -11.58,-26.072 -25.9,-27.792 z"
         clip-rule="evenodd"
         id="path4"
         style="fill:#ffffff" />
      <path
         fill="currentColor"
         fill-rule="evenodd"
         d="m 59.511,25.239 c -1.49,0.037 -2.952,0.198 -3.5,1.79 -0.822,2.38 0.908,2.947 2.669,3.23 5.879,0.944 8.973,4.411 9.561,10.274 0.159,1.591 1.169,2.881 2.706,2.699 2.13,-0.254 2.323,-2.15 2.257,-3.951 0.105,-6.587 -7.34,-14.2 -13.693,-14.042 z"
         clip-rule="evenodd"
         id="path6"
         style="fill:#ffffff" />
    </g>
  </g>
</svg>
