<?xml version="1.0" encoding="UTF-8" standalone="no"?>
<svg
   height="24"
   fill="currentColor"
   viewBox="0 0 24 13.090909"
   version="1.1"
   id="svg3022"
   width="24"
   xmlns="http://www.w3.org/2000/svg"
   xmlns:svg="http://www.w3.org/2000/svg">
  <defs
     id="defs3026" />
  <g
     id="g3534"
     transform="translate(0,-5.454546)">
    <path
       id="rect2474"
       style="fill:#2dd26e;fill-opacity:1;stroke-width:1.008;stroke-linecap:square;stroke-linejoin:round;paint-order:fill markers stroke"
       d="M 1.682198,5e-7 H 22.317802 C 23.24974,5e-7 24,0.75026085 24,1.6821988 V 22.317803 C 24,23.24974 23.24974,24 22.317802,24 H 1.682198 C 0.75026,24 0,23.24974 0,22.317803 V 1.6821988 C 0,0.75026085 0.75026,5e-7 1.682198,5e-7 Z" />
    <path
       d="m 1.5498747,22.5 1.476125,-5.392625 c -0.910875,-1.5785 -1.3895,-3.367875 -1.388625,-5.20275 C 1.6399997,6.168125 6.3081247,1.5 12.04375,1.5 c 2.783375,8.75e-4 5.396125,1.085 7.361375,3.052 1.964375,1.967 3.045875,4.5815 3.045,7.36225 -0.0026,5.737375 -4.67075,10.4055 -10.406375,10.4055 -1.74125,-8.75e-4 -3.4571253,-0.4375 -4.9770003,-1.267 z m 5.772375,-3.331125 c 1.4665,0.870625 2.8665003,1.392125 4.7180003,1.393 4.767,0 8.65025,-3.87975 8.652875,-8.649375 C 20.694925,7.13325 16.83,3.25875 12.04725,3.257 c -4.7705003,0 -8.6511253,3.87975 -8.6528753,8.6485 -8.75e-4,1.946875 0.569625,3.404625 1.52775,4.92975 l -0.874125,3.192 z m 9.9636253,-4.781 c -0.06475,-0.1085 -0.238,-0.17325 -0.49875,-0.303625 -0.259875,-0.130375 -1.53825,-0.7595 -1.777125,-0.846125 -0.238,-0.08662 -0.41125,-0.130375 -0.585375,0.130375 -0.17325,0.259875 -0.672,0.846125 -0.823375,1.019375 -0.151375,0.17325 -0.303625,0.195125 -0.5635,0.06475 C 12.777875,14.32225 11.939625,14.048375 10.9465,13.162 10.173875,12.4725 9.6514997,11.621125 9.5001247,11.360375 c -0.151375,-0.259875 -0.01575,-0.40075 0.11375,-0.53025 0.11725,-0.116375 0.259875,-0.303625 0.3902503,-0.455875 0.132125,-0.1505 0.175,-0.259 0.2625,-0.433125 0.08662,-0.17325 0.04375,-0.3255 -0.02187,-0.455875 C 10.179125,9.35575 9.6593747,8.075625 9.4432497,7.555 9.2314997,7.048375 9.0171247,7.116625 8.8578747,7.10875 L 8.3591247,7.1 c -0.17325,0 -0.455,0.06475 -0.693,0.3255 -0.238,0.26075 -0.91,0.889 -0.91,2.169125 0,1.280125 0.931875,2.5165 1.061375,2.68975 0.130375,0.17325 1.833125,2.8 4.4415003,3.926125 0.620375,0.26775 1.105125,0.427875 1.48225,0.54775 0.623,0.19775 1.19,0.16975 1.638,0.10325 0.499625,-0.07437 1.53825,-0.629125 1.75525,-1.236375 0.217,-0.608125 0.217,-1.12875 0.151375,-1.23725 z"
       id="path3020"
       style="fill:#ffffff;stroke-width:0.875" />
  </g>
</svg>
