<?xml version="1.0" encoding="UTF-8" standalone="no"?>
<svg
   height="24"
   width="24"
   xml:space="preserve"
   viewBox="0 0 120 120"
   y="0px"
   x="0px"
   id="Capa_1"
   version="1.1"
   xmlns="http://www.w3.org/2000/svg"
   xmlns:svg="http://www.w3.org/2000/svg"
   xmlns:rdf="http://www.w3.org/1999/02/22-rdf-syntax-ns#"
   xmlns:cc="http://creativecommons.org/ns#"
   xmlns:dc="http://purl.org/dc/elements/1.1/"><metadata
   id="metadata41"><rdf:RDF><cc:Work
       rdf:about=""><dc:format>image/svg+xml</dc:format><dc:type
         rdf:resource="http://purl.org/dc/dcmitype/StillImage" /></cc:Work></rdf:RDF></metadata><defs
   id="defs39">
	
</defs>

<g
   transform="translate(0,-17.656998)"
   id="g6">
</g>
<g
   transform="translate(0,-17.656998)"
   id="g8">
</g>
<g
   transform="translate(0,-17.656998)"
   id="g10">
</g>
<g
   transform="translate(0,-17.656998)"
   id="g12">
</g>
<g
   transform="translate(0,-17.656998)"
   id="g14">
</g>
<g
   transform="translate(0,-17.656998)"
   id="g16">
</g>
<g
   transform="translate(0,-17.656998)"
   id="g18">
</g>
<g
   transform="translate(0,-17.656998)"
   id="g20">
</g>
<g
   transform="translate(0,-17.656998)"
   id="g22">
</g>
<g
   transform="translate(0,-17.656998)"
   id="g24">
</g>
<g
   transform="translate(0,-17.656998)"
   id="g26">
</g>
<g
   transform="translate(0,-17.656998)"
   id="g28">
</g>
<g
   transform="translate(0,-17.656998)"
   id="g30">
</g>
<g
   transform="translate(0,-17.656998)"
   id="g32">
</g>
<g
   transform="translate(0,-17.656998)"
   id="g34">
</g>

<path
   id="rect2474"
   style="fill:#c76e4b;fill-opacity:1;stroke-width:5.04;stroke-linecap:square;stroke-linejoin:round;paint-order:fill markers stroke"
   d="M 8.4082031 0 C 3.7485178 -7.4014794e-16 2.0823888e-16 3.7485198 0 8.4082031 L 0 111.5918 C -1.4802959e-15 116.25148 3.7485178 120 8.4082031 120 L 111.5918 120 C 116.25147 120 120 116.25148 120 111.5918 L 120 8.4082031 C 120 3.7485198 116.25147 2.0823894e-16 111.5918 0 L 8.4082031 0 z M 61.953125 7.5 C 70.337297 7.5 78.115258 9.1910321 85.273438 12.578125 C 92.47117 15.965218 98.504734 20.772816 103.36914 27.001953 C 106.33524 30.817299 108.58458 34.966167 110.12695 39.443359 C 111.70887 43.920552 112.5 48.551195 112.5 53.339844 C 112.5 63.578988 109.35454 71.660446 103.06641 77.578125 C 96.778281 83.495804 88.09492 86.573048 77.021484 86.806641 L 77.021484 77.8125 C 74.648607 80.810275 71.922634 83.03217 68.837891 84.472656 C 65.792694 85.874213 62.237498 86.572266 58.164062 86.572266 C 51.361806 86.572266 45.823917 84.153753 41.552734 79.326172 C 37.3211 74.459658 35.205078 68.137983 35.205078 60.351562 C 35.205078 52.565141 37.340146 46.233701 41.611328 41.367188 C 45.882511 36.500674 51.401354 34.072266 58.164062 34.072266 C 62.237498 34.072266 65.811741 34.809643 68.896484 36.289062 C 71.981228 37.729551 74.688153 39.931785 77.021484 42.890625 L 77.021484 35.234375 L 85.507812 35.234375 L 85.507812 78.222656 C 91.28182 77.366149 95.790266 74.770682 99.033203 70.449219 C 102.31568 66.088822 103.95508 60.465202 103.95508 53.574219 C 103.95508 49.408484 103.32609 45.495556 102.06055 41.835938 C 100.83456 38.17632 98.95685 34.794256 96.425781 31.679688 C 92.312792 26.579582 87.289623 22.686315 81.357422 20 C 75.464774 17.274752 69.040524 15.908203 62.080078 15.908203 C 57.215676 15.908203 52.545094 16.547272 48.076172 17.832031 C 43.60725 19.077859 39.470435 20.95561 35.673828 23.447266 C 29.464795 27.41834 24.603755 32.629067 21.083984 39.091797 C 17.603761 45.515594 15.869141 52.486103 15.869141 60 C 15.869141 66.190204 16.993812 71.99078 19.248047 77.402344 C 21.54183 82.813907 24.83966 87.582181 29.150391 91.708984 C 33.302929 95.75792 38.106831 98.835163 43.564453 100.9375 C 49.022075 103.07876 54.855423 104.15039 61.064453 104.15039 C 66.166148 104.15039 71.17027 103.29504 76.074219 101.58203 C 81.017714 99.907953 85.545207 97.489441 89.658203 94.335938 L 95 100.82031 C 90.056498 104.59672 84.661695 107.47735 78.808594 109.46289 C 72.99504 111.48736 67.075747 112.5 61.064453 112.5 C 53.748079 112.5 46.847198 111.2121 40.361328 108.64258 C 33.875459 106.11199 28.109017 102.41534 23.046875 97.548828 C 17.984733 92.68232 14.124324 87.058696 11.474609 80.673828 C 8.8248938 74.250029 7.5 67.358167 7.5 60 C 7.5 52.914356 8.8439396 46.160127 11.533203 39.736328 C 14.222466 33.312531 18.063829 27.669248 23.046875 22.802734 C 28.148565 17.858357 34.039047 14.08306 40.722656 11.474609 C 47.406266 8.8272264 54.478553 7.5 61.953125 7.5 z " /><path
   style="font-style:normal;font-weight:normal;font-size:172.203px;line-height:1.25;font-family:sans-serif;letter-spacing:0px;word-spacing:0px;fill:#c76e4b;fill-opacity:1;stroke:none;stroke-width:3.01355;stroke-opacity:1"
   d="m 44.694916,60.350387 q 0,8.350945 4.211864,13.139599 4.211865,4.730257 11.567793,4.730257 7.29662,0 11.44916,-4.788655 4.21186,-4.788654 4.21186,-13.081201 0,-8.175751 -4.27118,-12.964405 -4.27119,-4.847052 -11.50848,-4.847052 -7.177966,0 -11.449153,4.788654 -4.211864,4.788654 -4.211864,13.022803 z"
   id="path829" /></svg>
