<?xml version="1.0" encoding="UTF-8" standalone="no"?>
<svg
   height="24"
   fill="currentColor"
   viewBox="0 0 24 13.090909"
   version="1.1"
   id="svg4"
   width="24"
   xmlns:xlink="http://www.w3.org/1999/xlink"
   xmlns="http://www.w3.org/2000/svg"
   xmlns:svg="http://www.w3.org/2000/svg">
  <defs
     id="defs8">
    <linearGradient
       id="linearGradient3727">
      <stop
         style="stop-color:#f09433;stop-opacity:1;"
         offset="0"
         id="stop3723" />
      <stop
         style="stop-color:#e6683c;stop-opacity:1;"
         offset="0.24504951"
         id="stop6635" />
      <stop
         style="stop-color:#dc2743;stop-opacity:1;"
         offset="0.5"
         id="stop7363" />
      <stop
         style="stop-color:#cc2366;stop-opacity:1;"
         offset="0.75"
         id="stop8091" />
      <stop
         style="stop-color:#bc1888;stop-opacity:1;"
         offset="1"
         id="stop3725" />
    </linearGradient>
    <linearGradient
       xlink:href="#linearGradient3727"
       id="linearGradient3729"
       x1="-26.876942"
       y1="22.081244"
       x2="-2.876941"
       y2="-1.9187571"
       gradientUnits="userSpaceOnUse"
       gradientTransform="translate(26.876941,-3.5357884)" />
  </defs>
  <path
     id="path2"
     style="fill:#c76e4b;fill-opacity:1;stroke-width:0.875"
     d="m 12,-2.0619206 c 2.8035,0 3.136,0.0105 4.24375,0.06125 2.8455,0.1295 4.174625,1.479625 4.304125,4.304125 0.05075,1.106875 0.06038,1.439375 0.06038,4.242875 0,2.804375 -0.0105,3.136 -0.06038,4.2428746 -0.130375,2.821875 -1.456,4.174625 -4.304125,4.304125 -1.10775,0.05075 -1.4385,0.06125 -4.24375,0.06125 -2.8035,0 -3.136,-0.0105 -4.242875,-0.06125 C 4.904625,14.962954 3.5825,13.606704 3.453,10.788329 3.40225,9.6814544 3.39175,9.3498294 3.39175,6.5454544 c 0,-2.8035 0.011375,-3.135125 0.06125,-4.242875 0.130375,-2.823625 1.456,-4.174625 4.304125,-4.304125 C 8.864875,-2.0514206 9.1965,-2.0619206 12,-2.0619206 Z m 0,-1.892625 c -2.851625,0 -3.208625,0.01225 -4.328625,0.063 -3.81325,0.175 -5.9325,2.29075 -6.1075,6.1075 C 1.51225,3.3368294 1.5,3.6938294 1.5,6.5454544 c 0,2.851625 0.01225,3.2095 0.063,4.3294996 0.175,3.81325 2.29075,5.9325 6.1075,6.1075 1.120875,0.05075 1.477875,0.063 4.3295,0.063 2.851625,0 3.2095,-0.01225 4.3295,-0.063 3.80975,-0.175 5.93425,-2.29075 6.106625,-6.1075 C 22.48775,9.7549544 22.5,9.3970794 22.5,6.5454544 c 0,-2.851625 -0.01225,-3.208625 -0.063,-4.328625 -0.1715,-3.80975 -2.289875,-5.9325 -6.106625,-6.1075 C 15.2095,-3.9422956 14.851625,-3.9545456 12,-3.9545456 Z m 0,5.10825 c -2.977625,0 -5.39175,2.414125 -5.39175,5.39175 0,2.977625 2.414125,5.3926246 5.39175,5.3926246 2.977625,0 5.39175,-2.4141246 5.39175,-5.3926246 0,-2.977625 -2.414125,-5.39175 -5.39175,-5.39175 z m 0,8.8917496 c -1.932875,0 -3.5,-1.5662496 -3.5,-3.4999996 0,-1.932875 1.567125,-3.5 3.5,-3.5 1.932875,0 3.5,1.567125 3.5,3.5 0,1.93375 -1.567125,3.4999996 -3.5,3.4999996 z m 5.60525,-10.3643746 c -0.6965,0 -1.260875,0.564375 -1.260875,1.26 0,0.695625 0.564375,1.26 1.260875,1.26 0.695625,0 1.259125,-0.564375 1.259125,-1.26 0,-0.695625 -0.5635,-1.26 -1.259125,-1.26 z M 1.682198,-5.4545455 H 22.317802 C 23.24974,-5.4545455 24,-4.7042851 24,-3.7723472 V 16.863256 c 0,0.931938 -0.75026,1.682198 -1.682198,1.682198 H 1.682198 C 0.75026,18.545454 0,17.795194 0,16.863256 V -3.7723472 c 0,-0.9319379 0.75026,-1.6821983 1.682198,-1.6821983 z" />
</svg>
