<?xml version="1.0" encoding="UTF-8" standalone="no"?>
<svg
   class="h-4 w-4"
   fill="currentColor"
   height="24"
   viewBox="0 0 24 13.090909"
   fill-rule="evenodd"
   clip-rule="evenodd"
   version="1.1"
   id="svg293"
   width="24"
   xmlns="http://www.w3.org/2000/svg"
   xmlns:svg="http://www.w3.org/2000/svg">
  <defs
     id="defs297" />
  <g
     id="g309">
    <path
       id="path291"
       style="fill:#c76e4b;fill-opacity:1;stroke:none;stroke-width:0.833333"
       d="m 12,-3.4545453 c -5.5225,0 -10,4.14583305 -10,9.259167 0,2.914166 1.4541667,5.5133333 3.7266666,7.2099993 v 3.530833 L 9.1316665,14.67712 C 10.04,14.927955 11.003333,15.063787 12,15.063787 c 5.5225,0 10,-4.145 10,-9.2591653 0,-5.11333395 -4.4775,-9.259167 -10,-9.259167 z m -10.3178017,-2 H 22.317802 C 23.24974,-5.4545453 24,-4.7042849 24,-3.772347 v 20.635603 c 0,0.931938 -0.75026,1.682198 -1.682198,1.682198 H 1.6821983 C 0.75026044,18.545454 0,17.795194 0,16.863256 V -3.772347 c 0,-0.9319379 0.75026044,-1.6821983 1.6821983,-1.6821983 z" />
    <path
       style="fill:#c76e4b;fill-opacity:1;stroke:none;stroke-width:0.833333"
       d="M 12.994167,9.0146207 10.4475,6.2987887 5.4783332,9.0146207 10.944166,3.2121207 13.5525,5.9279547 18.46,3.2121207 Z"
       id="path304" />
  </g>
</svg>
