<?xml version="1.0" encoding="UTF-8" standalone="no"?>
<svg
   fill="currentColor"
   viewBox="0 0 24 12.892562"
   height="24"
   version="1.1"
   xml:space="preserve"
   style="clip-rule:evenodd;fill-rule:evenodd;stroke-linejoin:round;stroke-miterlimit:1.41421"
   id="svg3543"
   width="24"
   xmlns="http://www.w3.org/2000/svg"
   xmlns:svg="http://www.w3.org/2000/svg"><defs
     id="defs3547" /><path
     id="telegram-1"
     style="fill:#c76e4b;stroke-width:0.87498"
     d="m 17.585982,15.002851 c 0.281744,0.199495 0.64486,0.249369 0.968603,0.126872 0.323743,-0.123373 0.561737,-0.399866 0.633486,-0.734984 0.760357,-3.573418 2.604815,-12.6180869 3.296925,-15.8686379 0.0525,-0.2449944 -0.035,-0.4996136 -0.227495,-0.6632349 C 22.065005,-2.3007551 21.798136,-2.348004 21.560142,-2.259631 17.89135,-0.9016619 6.5927329,3.3376167 1.9745879,5.0464521 c -0.293119,0.108498 -0.483864,0.390241 -0.47424,0.699109 0.0105,0.309743 0.218745,0.578362 0.518864,0.668485 2.071077,0.619486 4.789641,1.481341 4.789641,1.481341 0,0 1.270471,3.8367879 1.932831,5.7879939 0.08312,0.244994 0.2747431,0.43749 0.5276131,0.503988 0.251994,0.06562 0.521488,-0.0035 0.709608,-0.181121 1.063976,-1.004477 2.708939,-2.557567 2.708939,-2.557567 0,0 3.125428,2.291573 4.898138,3.55417 z M 7.9524519,7.4106481 9.421543,12.256288 9.747911,9.1877331 c 0,0 5.675995,-5.119508 8.911672,-8.0375667 0.0945,-0.085748 0.107622,-0.2292448 0.02887,-0.3298675 C 18.610583,0.7196762 18.467087,0.6960517 18.359465,0.7642999 14.6093,3.1591207 7.9524519,7.4106481 7.9524519,7.4106481 Z M 1.682198,-5.553719 H 22.317802 C 23.24974,-5.553719 24,-4.8034586 24,-3.8715207 V 16.764083 c 0,0.931938 -0.75026,1.682198 -1.682198,1.682198 H 1.682198 C 0.75026,18.446281 0,17.696021 0,16.764083 V -3.8715207 C 0,-4.8034586 0.75026,-5.553719 1.682198,-5.553719 Z" /></svg>
