<?xml version="1.0" encoding="UTF-8" standalone="no"?>
<svg
   height="24"
   viewBox="0 0 24 279.27273"
   version="1.1"
   id="svg2496"
   width="24"
   xmlns="http://www.w3.org/2000/svg"
   xmlns:svg="http://www.w3.org/2000/svg">
  <defs
     id="defs2500" />
  <path
     id="path236"
     style="fill:#ffffff;stroke-width:0.454661"
     d="M -108.06818 2.0670334e-14 C -118.91257 2.0670334e-14 -127.63636 8.7238227 -127.63636 19.568182 L -127.63636 259.70455 C -127.63636 270.54891 -118.91257 279.27273 -108.06818 279.27273 L 132.06818 279.27273 C 142.91257 279.27273 151.63636 270.54891 151.63636 259.70455 L 151.63636 19.568182 C 151.63636 8.7238227 142.91257 2.1154963e-14 132.06818 2.0670334e-14 L -108.06818 2.0670334e-14 z M 17.977273 23.272728 L 58 23.272728 A 55.095773 55.095773 0 0 0 58.84091 33.363637 A 55.550434 55.550434 0 0 0 83.34091 69.818183 A 55.209438 55.209438 0 0 0 113.81818 78.977273 L 113.81818 118.70455 A 95.50601 95.50601 0 0 1 58 100.86364 L 58 182.11364 A 73.905083 73.905083 0 1 1 -5.7500002 108.88636 L -5.7500002 149.75 A 33.926775 33.926775 0 1 0 17.977273 182.11364 L 17.977273 23.272728 z " />
</svg>
