<?xml version="1.0" encoding="UTF-8" standalone="no"?>
<svg
   height="24"
   fill="currentColor"
   viewBox="0 0 24 13.090909"
   version="1.1"
   id="svg3022"
   width="24"
   xmlns="http://www.w3.org/2000/svg"
   xmlns:svg="http://www.w3.org/2000/svg">
  <defs
     id="defs3026" />
  <path
     id="rect2474"
     style="fill:#c76e4b;fill-opacity:1;stroke-width:1.008;stroke-linecap:square;stroke-linejoin:round;paint-order:fill markers stroke"
     d="M 1.6816409,-5.4545451 C 0.74970385,-5.4545451 2.5e-7,-4.7048414 2.5e-7,-3.7729045 V 16.863814 c 0,0.931935 0.7497036,1.68164 1.68164065,1.68164 H 22.318359 C 23.250296,18.545454 24,17.79575 24,16.863814 V -3.7729045 c 0,-0.9319369 -0.749704,-1.6816406 -1.681641,-1.6816406 z m 10.3613281,1.5 c 2.783372,8.75e-4 5.39608,1.0857363 7.361328,3.0527345 1.964373,1.9669979 3.045797,4.5805808 3.044922,7.361328 C 22.446619,12.196886 17.778588,16.865767 12.042969,16.865767 10.30172,16.864892 8.58628,16.427688 7.0664065,15.598189 l -5.515625,1.447265 1.4746093,-5.392578 C 2.1145168,10.074378 1.6358441,8.284625 1.6367191,6.4497518 1.639339,0.7132576 6.3073494,-3.9545451 12.042969,-3.9545451 Z m 0.0039,1.7578125 c -4.7704952,0 -8.6505936,3.8796923 -8.6523436,8.6484375 -8.749e-4,1.9468731 0.5692198,3.4045643 1.5273439,4.9296871 l -0.873047,3.191406 3.2734376,-0.859375 c 1.4664986,0.870624 2.8672511,1.393657 4.7187501,1.394531 4.766995,0 8.649718,-3.88077 8.652343,-8.6503897 0.0018,-4.7792452 -3.863739,-8.6525469 -8.646484,-8.6542969 z m -3.6874997,3.8417969 0.4980469,0.00977 c 0.1592498,0.00787 0.3741877,-0.061312 0.5859375,0.4453125 0.2161248,0.5206245 0.7351513,1.8001876 0.8007813,1.9296875 0.06562,0.1303749 0.110057,0.2837814 0.02344,0.4570312 -0.0875,0.1741249 -0.131547,0.283094 -0.263672,0.4335938 C 9.8735354,5.0727091 9.7305354,5.2591625 9.6132854,5.3755374 9.4837857,5.5050373 9.3486295,5.6469127 9.5000043,5.9067874 9.651379,6.1675372 10.174645,7.0180694 10.94727,7.7075687 c 0.993124,0.8863741 1.829969,1.1606407 2.089843,1.2910159 0.259875,0.130375 0.413079,0.108796 0.564453,-0.064453 0.151371,-0.1732547 0.649012,-0.7596613 0.822262,-1.0195361 0.174125,-0.2607497 0.347938,-0.2174793 0.585938,-0.1308594 0.238874,0.086625 1.517469,0.7153283 1.777343,0.8457032 0.26075,0.1303748 0.433297,0.1961876 0.498047,0.3046875 0.06562,0.1085004 0.06661,0.6282034 -0.15039,1.2363272 -0.217,0.60725 -1.256235,1.161959 -1.75586,1.236329 -0.447999,0.0665 -1.013719,0.09423 -1.636718,-0.103516 C 13.365063,11.183392 12.88014,11.024142 12.259766,10.756392 9.6513932,9.6302682 7.9487345,7.003861 7.8183597,6.8306111 c -0.1294999,-0.1732498 -1.0625,-1.4112825 -1.0625,-2.6914062 0,-1.2801237 0.6721565,-1.907219 0.9101562,-2.1679688 C 7.9040157,1.7104864 8.1861256,1.6450643 8.3593754,1.6450643 Z" />
</svg>
