<?xml version="1.0" encoding="UTF-8" standalone="no"?>
<svg
   width="295.53601"
   zoomAndPan="magnify"
   viewBox="0 0 221.65201 132.94725"
   height="177.263"
   preserveAspectRatio="xMidYMid"
   version="1.2"
   id="svg26"
   xmlns="http://www.w3.org/2000/svg"
   xmlns:svg="http://www.w3.org/2000/svg">
  <defs
     id="defs3">
    <clipPath
       id="d9ecdff878">
      <path
         d="m 167,154.3125 h 149 v 62.25 H 167 Z m 0,0"
         id="path1" />
    </clipPath>
    <clipPath
       id="578f520a42">
      <path
         d="m 167,115.01563 h 33.41016 V 217 H 167 Z m 0,0"
         id="path2" />
    </clipPath>
    <clipPath
       id="9eb33dd804">
      <path
         d="M 276.66016,110.94141 H 316 v 105.75 h -39.33984 z m 0,0"
         id="path3" />
    </clipPath>
  </defs>
  <g
     id="620bb43e6f"
     transform="translate(-94.518535,-110.94141)">
    <g
       clip-rule="nonzero"
       clip-path="url(#d9ecdff878)"
       id="g4">
      <path
         style="fill:#737373;fill-opacity:1;fill-rule:nonzero;stroke:none"
         d="m 313.41797,212.03125 h -3.17969 l -9.65625,-12.59766 v -11 h 3.39063 c 0.28906,0 0.57031,-0.0547 0.84375,-0.15625 0.26953,-0.10156 0.51562,-0.24609 0.73046,-0.4375 0.21875,-0.1914 0.39454,-0.41406 0.53125,-0.67187 0.13672,-0.25391 0.22657,-0.52735 0.26563,-0.8125 l 6.21094,-28.01953 c 0.0391,-0.17188 0.0586,-0.34766 0.0586,-0.52344 -0.004,-0.17969 -0.0234,-0.35547 -0.0625,-0.52734 -0.043,-0.17188 -0.10156,-0.33985 -0.17969,-0.5 -0.0781,-0.16016 -0.17187,-0.3086 -0.28515,-0.44532 -0.10938,-0.14062 -0.23438,-0.26172 -0.375,-0.375 -0.13672,-0.10937 -0.28907,-0.20312 -0.44922,-0.28125 -0.16016,-0.0742 -0.32422,-0.13281 -0.4961,-0.17187 -0.17578,-0.0391 -0.35156,-0.0625 -0.52734,-0.0625 v -0.008 h -8.54297 c 0.19141,-1.60157 0.41406,-3.19532 0.70313,-4.75 0.30859,-1.67188 0.69922,-3.31641 1.1289,-4.91797 1.375,-0.17188 2.60157,-0.69922 3.67188,-1.58594 1.8125,-1.48438 3.09375,-3.33203 3.84375,-5.55078 0.63672,-2.04688 0.88281,-4.14453 0.74219,-6.28125 -0.14454,-2.14063 -0.66797,-4.1836 -1.57032,-6.12891 -8.26953,2.96485 -13.40625,8.63672 -12.9375,13.72656 0.17188,1.57422 0.75782,2.97657 1.75391,4.20704 -0.48828,1.8164 -0.94141,3.70703 -1.30078,5.67578 -0.17188,0.92968 -0.3086,1.85547 -0.44531,2.78515 -0.87891,-5.66797 -2.37891,-11.16406 -4.50391,-16.48828 0.99219,-1.17187 1.53516,-2.52344 1.63281,-4.05859 0.16797,-2.33203 -0.28515,-4.53906 -1.34765,-6.61719 -0.94922,-2.27734 -2.40235,-4.17187 -4.35157,-5.67969 -2.22656,-1.65625 -4.73047,-2.54687 -7.5039,-2.66796 -0.98438,2.08593 -1.53516,4.27734 -1.66016,6.57812 -0.12109,2.09375 0.13672,4.13672 0.76563,6.13672 0.3125,1.28125 0.82421,2.48047 1.53906,3.58984 0.71484,1.10938 1.59375,2.07031 2.63281,2.88672 1.17188,0.82031 2.46484,1.35547 3.875,1.60938 2.24609,5.64843 3.73047,11.48828 4.44531,17.52734 h -6.65234 c -0.3125,0 -0.61719,0.0625 -0.91016,0.18359 -0.29297,0.1211 -0.55078,0.29297 -0.77343,0.51563 -0.22266,0.22265 -0.39454,0.48047 -0.51563,0.77344 -0.12109,0.29296 -0.18359,0.59375 -0.18359,0.91015 0,0.25 0.0351,0.49219 0.10937,0.73047 l 6.21485,28.00391 c 0.0586,0.26562 0.15625,0.51172 0.30078,0.74218 0.14062,0.23047 0.32031,0.42969 0.52734,0.59766 0.21094,0.17188 0.44531,0.30078 0.69922,0.39063 0.25781,0.0898 0.51953,0.13671 0.78906,0.13671 v 0.0117 h 3.39453 v 11 l -9.65625,12.59766 h -9.57422 c -1.34375,-4.69531 -2.6914,-9.38281 -4.03515,-14.07031 0.86719,-0.20313 1.67578,-0.54688 2.42969,-1.02344 0.7539,-0.47656 1.40625,-1.06641 1.96093,-1.76563 0.55078,-0.69921 0.97657,-1.46875 1.26953,-2.30859 0.29297,-0.84375 0.44141,-1.71094 0.44141,-2.60156 v -11.58985 c 0,-0.20703 -0.0703,-0.38281 -0.21094,-0.52734 l -0.0117,-0.0117 c -0.14843,-0.14453 -0.32031,-0.21484 -0.52734,-0.21094 h -6.03516 c -0.20312,-0.004 -0.3789,0.0664 -0.52734,0.21094 l -0.0117,0.0117 c -0.14062,0.14453 -0.21094,0.32031 -0.21094,0.52734 v 9.54688 c 0,0.31641 -0.0586,0.62109 -0.17968,0.91406 -0.1211,0.29297 -0.29297,0.55078 -0.51563,0.77344 -0.22656,0.22656 -0.48437,0.39844 -0.77734,0.51953 -0.28906,0.12109 -0.59375,0.18359 -0.91016,0.18359 h -65.70312 c -0.32032,0.004 -0.625,-0.0586 -0.91797,-0.17578 -0.29688,-0.12109 -0.55469,-0.29687 -0.78125,-0.51953 -0.22266,-0.22656 -0.39453,-0.48437 -0.51563,-0.77734 -0.12109,-0.29688 -0.18359,-0.60156 -0.17968,-0.91797 v -9.54688 c 0,-0.20312 -0.0703,-0.3789 -0.21094,-0.52734 l -0.0117,-0.0117 c -0.14844,-0.14062 -0.32031,-0.21094 -0.52734,-0.21094 h -6.03125 c -0.20313,0 -0.37891,0.0703 -0.52344,0.21094 l -0.0117,0.0117 c -0.14453,0.14844 -0.21484,0.32422 -0.21094,0.52734 v 11.59375 c 0,0.44532 0.0391,0.89063 0.11719,1.32813 0.0742,0.44141 0.1875,0.87109 0.33594,1.28906 0.15234,0.42188 0.33203,0.82813 0.55078,1.21485 0.21875,0.39062 0.46484,0.76171 0.74609,1.10937 0.27735,0.34766 0.58594,0.66797 0.91797,0.96484 0.33203,0.29688 0.6875,0.5625 1.06641,0.79688 0.3789,0.23828 0.77343,0.44141 1.1875,0.60937 0.41406,0.17188 0.83593,0.30469 1.27343,0.40235 -1.3789,4.68359 -2.7539,9.36719 -4.125,14.05078 h -10.96875 v -74.34766 h 9.65625 c 0.19532,0 0.39063,-0.0273 0.58204,-0.0742 0.1914,-0.0508 0.375,-0.12109 0.55078,-0.21875 0.17187,-0.0937 0.33203,-0.20703 0.47656,-0.34375 0.14453,-0.13281 0.27344,-0.28515 0.37891,-0.44921 0.10937,-0.16797 0.19531,-0.34375 0.25781,-0.53125 0.0625,-0.1875 0.10156,-0.37891 0.11719,-0.57813 0.0156,-0.19922 0.008,-0.39453 -0.0234,-0.58984 -0.0352,-0.19532 -0.0898,-0.38282 -0.17188,-0.5625 l -6.17968,-13.84766 c -0.16407,-0.47656 -0.45704,-0.86328 -0.8711,-1.15625 -0.41406,-0.29687 -0.87109,-0.44531 -1.3789,-0.44531 h -11.5586 c -0.46094,0.004 -0.89062,0.12891 -1.28125,0.37891 -0.39844,0.2539 -0.69531,0.60156 -0.88672,1.03515 l -6.18359,13.84375 c -0.19922,0.35938 -0.29688,0.74609 -0.29688,1.15625 0,0.31641 0.0625,0.62109 0.1836,0.91406 0.12109,0.29297 0.29297,0.55078 0.51562,0.77735 0.22266,0.22265 0.48047,0.39453 0.77344,0.51562 0.29297,0.125 0.59766,0.1836 0.91406,0.1875 h 9.65625 v 74.33594 h -9.65625 c -0.3125,0.004 -0.60937,0.0703 -0.89453,0.19531 -0.28515,0.125 -0.53906,0.30078 -0.75781,0.52344 -0.21484,0.22266 -0.38281,0.47656 -0.5,0.76562 -0.11719,0.28907 -0.17578,0.58985 -0.17578,0.89844 0,0.3125 0.0586,0.61328 0.17578,0.90235 0.11719,0.28906 0.28516,0.54296 0.5,0.76562 0.21875,0.22266 0.47266,0.39844 0.75781,0.51953 0.28516,0.125 0.58203,0.19141 0.89453,0.19922 H 313.4181 c 0.32031,0.008 0.6289,-0.0469 0.92969,-0.16406 0.30078,-0.11719 0.5625,-0.28906 0.79296,-0.51563 0.23047,-0.22265 0.41016,-0.48437 0.53125,-0.77734 0.125,-0.29688 0.1875,-0.60547 0.1875,-0.92969 0,-0.32031 -0.0625,-0.6289 -0.1875,-0.92578 -0.12109,-0.29687 -0.30078,-0.55469 -0.53125,-0.78125 -0.23046,-0.22266 -0.49218,-0.39453 -0.79296,-0.51172 -0.30079,-0.11719 -0.60938,-0.17187 -0.92969,-0.16406 z m -113.28516,0 c 1.40235,-4.62109 2.80469,-9.23828 4.20313,-13.85547 h 63.23437 c 1.34766,4.61719 2.69531,9.23438 4.04688,13.85547 z m 95.67969,0 h -3.66016 l 3.66016,-4.77734 z m 4.76562,0 v -4.77734 l 3.66016,4.77734 z m -67.08593,-26.19531 h -28.08594 v -4.1875 h 28.08594 z m 4.76953,-4.1875 h 28.07812 v 4.1875 h -28.07812 z m 28.07812,-4.76953 h -28.07812 v -14.66797 c 0,-0.26172 0.0508,-0.51563 0.15234,-0.76172 0.10156,-0.24219 0.2461,-0.46094 0.4336,-0.64453 0.1875,-0.1875 0.40234,-0.33203 0.64453,-0.4336 0.24218,-0.10156 0.49609,-0.15625 0.76172,-0.15625 h 24.08984 c 0.55078,0 1.01953,0.19141 1.41016,0.57813 l 0.0117,0.0117 c 0.38672,0.39062 0.57813,0.85937 0.57813,1.41015 z m -32.85156,0 h -28.08203 v -14.67188 c 0,-0.55078 0.19531,-1.01953 0.58984,-1.40625 l 0.0859,-0.0898 c 0.375,-0.33203 0.81641,-0.5 1.32031,-0.5 h 24.09375 c 0.26172,0.004 0.51563,0.0547 0.75782,0.15625 0.24609,0.10156 0.46093,0.24609 0.64453,0.43359 0.1875,0.18359 0.33203,0.39844 0.43359,0.64453 0.10156,0.24219 0.15234,0.4961 0.15625,0.75781 z m 12.0625,-45.36329 H 204.13672 V 115.5 l 14.29297,-7.66797 z m 22.05859,0 H 252.78125 L 237.05469,117.78125 253.08594,107.70703 267.60937,115.5 Z M 220.41016,103.25 l 12.90234,11.26172 18.33203,-11.51563 c 0.36719,-0.2539 0.77344,-0.39062 1.21875,-0.41406 0.44531,-0.0234 0.86328,0.0703 1.25781,0.28125 l 13.48828,7.23438 V 78.253906 h -63.47265 v 31.843754 l 13.49219,-7.23438 c 0.45703,-0.24609 0.9414,-0.33203 1.45312,-0.26172 0.51563,0.0703 0.95703,0.28516 1.32813,0.64844 z m 7.92968,-17.761719 0.0117,-0.0078 c 0.49219,-0.496094 1.03125,-0.9375 1.60938,-1.324219 0.58203,-0.390625 1.19531,-0.71875 1.83984,-0.984375 0.64453,-0.269531 1.3125,-0.472656 1.99609,-0.609375 0.6836,-0.136719 1.375,-0.203125 2.07422,-0.203125 0.69922,0 1.39063,0.06641 2.07813,0.203125 0.68359,0.136719 1.34765,0.339844 1.99609,0.609375 0.64453,0.265625 1.25781,0.59375 1.83594,0.984375 0.58203,0.386719 1.11719,0.828125 1.60937,1.324219 l 0.0117,0.0078 c 0.4961,0.496094 0.9375,1.03125 1.32813,1.613281 0.38672,0.578126 0.71484,1.191407 0.98437,1.839844 0.26563,0.644532 0.46875,1.308594 0.60547,1.992188 0.13672,0.6875 0.20313,1.378906 0.20313,2.078125 0,0.699219 -0.0664,1.390625 -0.20313,2.074219 -0.13672,0.6875 -0.33984,1.351562 -0.60547,1.996093 -0.26953,0.644531 -0.59765,1.257813 -0.98437,1.839844 -0.39063,0.582031 -0.83203,1.117185 -1.32813,1.609375 l -0.0117,0.0117 c -0.49218,0.49609 -1.02734,0.9375 -1.60937,1.32422 -0.58203,0.39062 -1.19141,0.71875 -1.83984,0.98437 -0.64454,0.26953 -1.3086,0.46875 -1.99219,0.60547 -0.6875,0.13672 -1.37891,0.20703 -2.07813,0.20703 -0.69922,0 -1.39062,-0.0703 -2.07422,-0.20703 -0.68359,-0.13672 -1.35156,-0.33594 -1.99609,-0.60547 -0.64453,-0.26562 -1.25781,-0.59375 -1.83984,-0.98437 -0.57813,-0.38672 -1.11719,-0.82813 -1.60938,-1.32422 l -0.0117,-0.0117 c -0.49218,-0.49219 -0.93359,-1.03125 -1.32422,-1.609375 -0.38671,-0.582031 -0.71484,-1.195313 -0.98437,-1.839844 -0.26563,-0.644531 -0.46875,-1.308593 -0.60547,-1.996093 -0.13672,-0.683594 -0.20703,-1.375 -0.20703,-2.074219 0,-0.699219 0.0703,-1.390625 0.20703,-2.074219 0.13672,-0.6875 0.33984,-1.351562 0.60547,-1.996094 0.26953,-0.648437 0.59766,-1.257812 0.98437,-1.839844 0.39063,-0.582031 0.83204,-1.117187 1.32422,-1.613281 z m 3.37891,11.6875 c -0.32031,-0.320312 -0.60156,-0.671875 -0.83984,-1.054687 -0.24219,-0.386719 -0.4375,-0.792969 -0.58204,-1.21875 -0.14843,-0.429688 -0.24218,-0.871094 -0.28906,-1.320313 -0.0469,-0.449219 -0.0391,-0.902343 0.0195,-1.351562 0.0586,-0.449219 0.16407,-0.886719 0.32422,-1.308594 0.16016,-0.425781 0.36328,-0.824219 0.61328,-1.203125 0.25391,-0.378906 0.54297,-0.722656 0.8711,-1.03125 0.33203,-0.3125 0.6914,-0.578125 1.08593,-0.808594 0.39063,-0.226562 0.80469,-0.40625 1.23829,-0.539062 0.43359,-0.132813 0.875,-0.210938 1.32812,-0.242188 0.44922,-0.03125 0.90234,-0.0078 1.34766,0.0625 0.44531,0.07422 0.8789,0.195313 1.30078,0.371094 0.41797,0.171875 0.8125,0.390625 1.17969,0.652344 0.36718,0.265625 0.70312,0.566406 1,0.90625 0.30078,0.339844 0.55859,0.710937 0.76953,1.109375 0.21484,0.398437 0.38281,0.820312 0.5,1.257812 0.11718,0.4375 0.18359,0.882813 0.19922,1.332031 0.0156,0.453126 -0.0234,0.902344 -0.10938,1.347657 -0.0898,0.445312 -0.22656,0.875 -0.41406,1.285156 -0.1875,0.414063 -0.41797,0.800781 -0.69141,1.160156 -0.27734,0.359375 -0.58984,0.683594 -0.9414,0.96875 -0.34766,0.289063 -0.72657,0.53125 -1.13282,0.734375 -0.40625,0.199219 -0.83203,0.351563 -1.27343,0.453125 -0.44141,0.105469 -0.88672,0.15625 -1.33985,0.15625 -0.78125,0 -1.53515,-0.148437 -2.25781,-0.445312 -0.72266,-0.296875 -1.35938,-0.722657 -1.91406,-1.273438 z m 0,0"
         id="path4" />
    </g>
    <g
       clip-rule="nonzero"
       clip-path="url(#578f520a42)"
       id="g5">
      <path
         style="fill:#737373;fill-opacity:1;fill-rule:nonzero;stroke:none"
         d="m 313.41797,212.03125 h -3.17969 l -9.65625,-12.59766 v -11 h 3.39063 c 0.28906,0 0.57031,-0.0547 0.84375,-0.15625 0.26953,-0.10156 0.51562,-0.24609 0.73046,-0.4375 0.21875,-0.1914 0.39454,-0.41406 0.53125,-0.67187 0.13672,-0.25391 0.22657,-0.52735 0.26563,-0.8125 l 6.21094,-28.01953 c 0.0391,-0.17188 0.0586,-0.34766 0.0586,-0.52344 -0.004,-0.17969 -0.0234,-0.35547 -0.0625,-0.52734 -0.043,-0.17188 -0.10156,-0.33985 -0.17969,-0.5 -0.0781,-0.16016 -0.17187,-0.3086 -0.28515,-0.44532 -0.10938,-0.14062 -0.23438,-0.26562 -0.375,-0.375 -0.13672,-0.10937 -0.28907,-0.20312 -0.44922,-0.28125 -0.16016,-0.0742 -0.32422,-0.13281 -0.4961,-0.17187 -0.17578,-0.0391 -0.35156,-0.0625 -0.52734,-0.0625 v -0.008 h -8.54297 c 0.19141,-1.60157 0.41406,-3.19532 0.70313,-4.75 0.30859,-1.67188 0.69922,-3.31641 1.1289,-4.91797 1.375,-0.17188 2.60157,-0.69922 3.67188,-1.58594 1.8125,-1.48438 3.09375,-3.33203 3.84375,-5.55078 0.63672,-2.04688 0.88281,-4.14453 0.74219,-6.28125 -0.14454,-2.14063 -0.66797,-4.1836 -1.57032,-6.12891 -8.26953,2.96485 -13.40625,8.63672 -12.9375,13.72656 0.17188,1.57422 0.75782,2.97657 1.75391,4.20704 -0.48828,1.8164 -0.94141,3.70703 -1.30078,5.67578 -0.17188,0.92968 -0.3086,1.85547 -0.44531,2.78515 -0.87891,-5.66797 -2.37891,-11.16406 -4.50391,-16.48828 0.99219,-1.17187 1.53516,-2.52344 1.63281,-4.05859 0.16797,-2.33203 -0.28515,-4.53906 -1.34765,-6.61719 -0.94922,-2.27734 -2.40235,-4.17187 -4.35157,-5.67969 -2.22656,-1.65625 -4.73047,-2.54687 -7.5039,-2.66796 -0.98438,2.08593 -1.53516,4.27734 -1.66016,6.57812 -0.12109,2.09375 0.13672,4.13672 0.76563,6.13672 0.3125,1.28125 0.82421,2.48047 1.53906,3.58984 0.71484,1.10938 1.59375,2.07031 2.63281,2.88672 1.17188,0.82031 2.46484,1.35547 3.875,1.60938 2.24609,5.64843 3.73047,11.48828 4.44531,17.52734 h -6.65234 c -0.3125,0 -0.61719,0.0625 -0.91016,0.18359 -0.29297,0.1211 -0.55078,0.29297 -0.77343,0.51563 -0.22266,0.22265 -0.39454,0.48047 -0.51563,0.77344 -0.12109,0.29296 -0.18359,0.59375 -0.18359,0.91015 0,0.25 0.0351,0.49219 0.10937,0.73047 l 6.21485,28.00391 c 0.0586,0.26562 0.15625,0.51172 0.30078,0.74218 0.14062,0.23047 0.32031,0.42969 0.52734,0.59766 0.21094,0.17188 0.44531,0.30078 0.69922,0.39063 0.25781,0.0898 0.51953,0.13671 0.78906,0.13671 v 0.0117 h 3.39453 v 11 l -9.65625,12.59766 h -9.57422 c -1.34375,-4.69531 -2.6914,-9.38281 -4.03515,-14.07031 0.86719,-0.20313 1.67578,-0.54688 2.42969,-1.02344 0.7539,-0.47656 1.40625,-1.06641 1.96093,-1.76563 0.55078,-0.69921 0.97657,-1.46875 1.26953,-2.30859 0.29297,-0.84375 0.44141,-1.71094 0.44141,-2.60156 v -11.58985 c 0,-0.20703 -0.0703,-0.38281 -0.21094,-0.52734 l -0.0117,-0.0117 c -0.14843,-0.14453 -0.32031,-0.21484 -0.52734,-0.21094 h -6.03516 c -0.20312,-0.004 -0.3789,0.0664 -0.52734,0.21094 l -0.0117,0.0117 c -0.14062,0.14453 -0.21094,0.32031 -0.21094,0.52734 v 9.54688 c 0,0.31641 -0.0586,0.62109 -0.17968,0.91406 -0.1211,0.29297 -0.29297,0.55078 -0.51563,0.77344 -0.22656,0.22656 -0.48437,0.39844 -0.77734,0.51953 -0.28906,0.12109 -0.59375,0.18359 -0.91016,0.18359 h -65.70312 c -0.32032,0.004 -0.625,-0.0586 -0.91797,-0.17578 -0.29688,-0.12109 -0.55469,-0.29687 -0.78125,-0.51953 -0.22266,-0.22656 -0.39453,-0.48437 -0.51563,-0.77734 -0.12109,-0.29688 -0.18359,-0.60156 -0.17968,-0.91797 v -9.54688 c 0,-0.20312 -0.0703,-0.3789 -0.21094,-0.52734 l -0.0117,-0.0117 c -0.14844,-0.14062 -0.32031,-0.21094 -0.52734,-0.21094 h -6.03125 c -0.20313,0 -0.37891,0.0703 -0.52344,0.21094 l -0.0117,0.0117 c -0.14453,0.14844 -0.21484,0.32422 -0.21094,0.52734 v 11.59375 c 0,0.44532 0.0391,0.89063 0.11719,1.32813 0.0742,0.44141 0.1875,0.87109 0.33594,1.28906 0.15234,0.42188 0.33203,0.82813 0.55078,1.21485 0.21875,0.39062 0.46484,0.76171 0.74609,1.10937 0.27735,0.34766 0.58594,0.66797 0.91797,0.96484 0.33203,0.29688 0.6875,0.5625 1.06641,0.79688 0.3789,0.23828 0.77343,0.44141 1.1875,0.60937 0.41406,0.17188 0.83593,0.30469 1.27343,0.40235 -1.3789,4.68359 -2.7539,9.36719 -4.125,14.05078 h -10.96875 v -74.34766 h 9.65625 c 0.19532,0 0.39063,-0.0273 0.58204,-0.0742 0.1914,-0.0508 0.375,-0.12109 0.55078,-0.21875 0.17187,-0.0937 0.33203,-0.20703 0.47656,-0.34375 0.14453,-0.13281 0.27344,-0.28515 0.37891,-0.44921 0.10937,-0.16797 0.19531,-0.34375 0.25781,-0.53125 0.0625,-0.1875 0.10156,-0.37891 0.11719,-0.57813 0.0156,-0.19922 0.008,-0.39453 -0.0234,-0.58984 -0.0352,-0.19532 -0.0898,-0.38282 -0.17188,-0.5625 l -6.17968,-13.84766 c -0.16407,-0.47656 -0.45704,-0.86328 -0.8711,-1.15625 -0.41406,-0.29687 -0.87109,-0.44531 -1.3789,-0.44531 h -11.5586 c -0.46094,0.004 -0.89062,0.12891 -1.28125,0.37891 -0.39844,0.2539 -0.69531,0.60156 -0.88672,1.03515 l -6.18359,13.84375 c -0.19922,0.35938 -0.29688,0.74609 -0.29688,1.15625 0,0.31641 0.0625,0.62109 0.1836,0.91406 0.12109,0.29297 0.29297,0.55078 0.51562,0.77735 0.22266,0.22265 0.48047,0.39453 0.77344,0.51562 0.29297,0.125 0.59766,0.1836 0.91406,0.1875 h 9.65625 v 74.33594 h -9.65625 c -0.3125,0.004 -0.60937,0.0703 -0.89453,0.19531 -0.28515,0.125 -0.53906,0.30078 -0.75781,0.52344 -0.21484,0.22266 -0.38281,0.47656 -0.5,0.76562 -0.11719,0.28907 -0.17578,0.58985 -0.17578,0.89844 0,0.3125 0.0586,0.61328 0.17578,0.90235 0.11719,0.28906 0.28516,0.54296 0.5,0.76562 0.21875,0.22266 0.47266,0.39844 0.75781,0.51953 0.28516,0.125 0.58203,0.19141 0.89453,0.19922 H 313.4181 c 0.32031,0.008 0.6289,-0.0469 0.92969,-0.16406 0.30078,-0.11719 0.5625,-0.28906 0.79296,-0.51563 0.23047,-0.22265 0.41016,-0.48437 0.53125,-0.78125 0.125,-0.29297 0.1875,-0.60156 0.1875,-0.92578 0,-0.32031 -0.0625,-0.6289 -0.1875,-0.92578 -0.12109,-0.29687 -0.30078,-0.55469 -0.53125,-0.78125 -0.23046,-0.22266 -0.49218,-0.39453 -0.79296,-0.51172 -0.30079,-0.11719 -0.60938,-0.17187 -0.92969,-0.16406 z m -113.28516,0 c 1.40235,-4.62109 2.80469,-9.23828 4.20313,-13.85547 h 63.23437 c 1.34766,4.61719 2.69531,9.23438 4.04688,13.85547 z m 95.67969,0 h -3.66016 l 3.66016,-4.77734 z m 4.76562,0 v -4.77734 l 3.66016,4.77734 z m -67.08593,-26.19531 h -28.08594 v -4.1875 h 28.08594 z m 4.76953,-4.1875 h 28.07812 v 4.1875 h -28.07812 z m 28.07812,-4.76953 h -28.07812 v -14.66797 c 0,-0.26172 0.0508,-0.51563 0.15234,-0.76172 0.10156,-0.24219 0.2461,-0.46094 0.4336,-0.64453 0.1875,-0.1875 0.40234,-0.33203 0.64453,-0.4336 0.24218,-0.10156 0.49609,-0.15625 0.76172,-0.15625 h 24.08984 c 0.55078,0 1.01953,0.19141 1.41016,0.57813 l 0.0117,0.0117 c 0.38672,0.39062 0.57813,0.85937 0.57813,1.41015 z m -32.85156,0 h -28.08203 v -14.67188 c 0,-0.55078 0.19531,-1.01953 0.58984,-1.40625 l 0.0859,-0.0898 c 0.375,-0.33203 0.81641,-0.5 1.32031,-0.5 h 24.09375 c 0.26172,0.004 0.51563,0.0547 0.75782,0.15625 0.24609,0.10156 0.46093,0.24609 0.64453,0.43359 0.1875,0.18359 0.33203,0.39844 0.43359,0.64453 0.10156,0.24219 0.15234,0.4961 0.15625,0.75781 z m 12.0625,-45.36329 H 204.13672 V 115.5 l 14.29297,-7.66797 z m 22.05859,0 H 252.78125 L 237.05469,117.78125 253.08594,107.70703 267.60937,115.5 Z M 220.41016,103.25 l 12.90234,11.26172 18.33203,-11.51563 c 0.36719,-0.2539 0.77344,-0.39062 1.21875,-0.41406 0.44531,-0.0234 0.86328,0.0703 1.25781,0.28125 l 13.48828,7.23438 V 78.253906 h -63.47265 v 31.843754 l 13.49219,-7.23438 c 0.45703,-0.24609 0.9414,-0.33203 1.45312,-0.26172 0.51563,0.0703 0.95703,0.28516 1.32813,0.64844 z m 7.92968,-17.761719 0.0117,-0.0078 c 0.49219,-0.496094 1.03125,-0.9375 1.60938,-1.324219 0.58203,-0.390625 1.19531,-0.71875 1.83984,-0.984375 0.64453,-0.269531 1.3125,-0.472656 1.99609,-0.609375 0.6836,-0.136719 1.375,-0.203125 2.07422,-0.203125 0.69922,0 1.39063,0.06641 2.07813,0.203125 0.68359,0.136719 1.34765,0.339844 1.99609,0.609375 0.64453,0.265625 1.25781,0.59375 1.83594,0.984375 0.58203,0.386719 1.11719,0.828125 1.60937,1.324219 l 0.0117,0.0078 c 0.4961,0.496094 0.9375,1.03125 1.32813,1.613281 0.38672,0.578126 0.71484,1.191407 0.98437,1.839844 0.26563,0.644532 0.46875,1.308594 0.60547,1.992188 0.13672,0.6875 0.20313,1.378906 0.20313,2.078125 0,0.699219 -0.0664,1.390625 -0.20313,2.074219 -0.13672,0.6875 -0.33984,1.351562 -0.60547,1.996093 -0.26953,0.644531 -0.59765,1.257813 -0.98437,1.839844 -0.39063,0.582031 -0.83203,1.117185 -1.32813,1.609375 l -0.0117,0.0117 c -0.49218,0.49609 -1.02734,0.9375 -1.60937,1.32422 -0.58203,0.39062 -1.19141,0.71875 -1.83984,0.98437 -0.64454,0.26953 -1.3086,0.46875 -1.99219,0.60547 -0.6875,0.13672 -1.37891,0.20703 -2.07813,0.20703 -0.69922,0 -1.39062,-0.0703 -2.07422,-0.20703 -0.68359,-0.13672 -1.35156,-0.33594 -1.99609,-0.60547 -0.64453,-0.26562 -1.25781,-0.59375 -1.83984,-0.98437 -0.57813,-0.38672 -1.11719,-0.82813 -1.60938,-1.32422 l -0.0117,-0.0117 c -0.49218,-0.49219 -0.93359,-1.03125 -1.32422,-1.609375 -0.38671,-0.582031 -0.71484,-1.195313 -0.98437,-1.839844 -0.26563,-0.644531 -0.46875,-1.308593 -0.60547,-1.996093 -0.13672,-0.683594 -0.20703,-1.375 -0.20703,-2.074219 0,-0.699219 0.0703,-1.390625 0.20703,-2.074219 0.13672,-0.6875 0.33984,-1.351562 0.60547,-1.996094 0.26953,-0.648437 0.59766,-1.257812 0.98437,-1.839844 0.39063,-0.582031 0.83204,-1.117187 1.32422,-1.613281 z m 3.37891,11.6875 c -0.32031,-0.320312 -0.60156,-0.671875 -0.83984,-1.054687 -0.24219,-0.386719 -0.4375,-0.792969 -0.58204,-1.21875 -0.14843,-0.429688 -0.24218,-0.871094 -0.28906,-1.320313 -0.0469,-0.449219 -0.0391,-0.902343 0.0195,-1.351562 0.0586,-0.449219 0.16407,-0.886719 0.32422,-1.308594 0.16016,-0.425781 0.36328,-0.824219 0.61328,-1.203125 0.25391,-0.378906 0.54297,-0.722656 0.8711,-1.03125 0.33203,-0.3125 0.6914,-0.578125 1.08593,-0.808594 0.39063,-0.226562 0.80469,-0.40625 1.23829,-0.539062 0.43359,-0.132813 0.875,-0.210938 1.32812,-0.242188 0.44922,-0.03125 0.90234,-0.0078 1.34766,0.0625 0.44531,0.07422 0.8789,0.195313 1.30078,0.371094 0.41797,0.171875 0.8125,0.390625 1.17969,0.652344 0.36718,0.265625 0.70312,0.566406 1,0.90625 0.30078,0.339844 0.55859,0.710937 0.76953,1.109375 0.21484,0.398437 0.38281,0.820312 0.5,1.257812 0.11718,0.4375 0.18359,0.882813 0.19922,1.332031 0.0156,0.453126 -0.0234,0.902344 -0.10938,1.347657 -0.0898,0.445312 -0.22656,0.875 -0.41406,1.285156 -0.1875,0.414063 -0.41797,0.800781 -0.69141,1.160156 -0.27734,0.359375 -0.58984,0.683594 -0.9414,0.96875 -0.34766,0.289063 -0.72657,0.53125 -1.13282,0.734375 -0.40625,0.199219 -0.83203,0.351563 -1.27343,0.453125 -0.44141,0.105469 -0.88672,0.15625 -1.33985,0.15625 -0.78125,0 -1.53515,-0.148437 -2.25781,-0.445312 -0.72266,-0.296875 -1.35938,-0.722657 -1.91406,-1.273438 z m 0,0"
         id="path5" />
    </g>
    <g
       clip-rule="nonzero"
       clip-path="url(#9eb33dd804)"
       id="g6">
      <path
         style="fill:#737373;fill-opacity:1;fill-rule:nonzero;stroke:none"
         d="m 313.41797,212.03125 h -3.17969 l -9.65625,-12.59766 v -11 h 3.39063 c 0.28906,0 0.57031,-0.0547 0.84375,-0.15625 0.26953,-0.10156 0.51562,-0.24609 0.73046,-0.4375 0.21875,-0.1914 0.39454,-0.41406 0.53125,-0.67187 0.13672,-0.25391 0.22657,-0.52735 0.26563,-0.8125 l 6.21094,-28.01953 c 0.0391,-0.17188 0.0586,-0.34766 0.0586,-0.52344 -0.004,-0.17969 -0.0234,-0.35547 -0.0625,-0.52734 -0.043,-0.17188 -0.10156,-0.33985 -0.17969,-0.5 -0.0781,-0.16016 -0.17187,-0.3086 -0.28515,-0.44532 -0.10938,-0.14062 -0.23438,-0.26562 -0.375,-0.375 -0.13672,-0.10937 -0.28907,-0.20312 -0.44922,-0.28125 -0.16016,-0.0742 -0.32422,-0.13281 -0.4961,-0.17187 -0.17578,-0.0391 -0.35156,-0.0625 -0.52734,-0.0625 v -0.008 h -8.54297 c 0.19141,-1.60157 0.41406,-3.19532 0.70313,-4.75 0.30859,-1.67188 0.69922,-3.31641 1.1289,-4.91797 1.375,-0.17188 2.60157,-0.69922 3.67188,-1.58594 1.8125,-1.48438 3.09375,-3.33203 3.84375,-5.55078 0.63672,-2.04688 0.88281,-4.14453 0.74219,-6.28125 -0.14454,-2.14063 -0.66797,-4.1836 -1.57032,-6.12891 -8.26953,2.96485 -13.40625,8.63672 -12.9375,13.72656 0.17188,1.57422 0.75782,2.97657 1.75391,4.20704 -0.48828,1.8164 -0.94141,3.70703 -1.30078,5.67578 -0.17188,0.92968 -0.3086,1.85547 -0.44531,2.78515 -0.87891,-5.66797 -2.37891,-11.16406 -4.50391,-16.48828 0.99219,-1.17187 1.53516,-2.52344 1.63281,-4.05859 0.16797,-2.33203 -0.28515,-4.53906 -1.34765,-6.61719 -0.94922,-2.27734 -2.40235,-4.17187 -4.35157,-5.67969 -2.22656,-1.65625 -4.73047,-2.54687 -7.5039,-2.66796 -0.98438,2.08593 -1.53516,4.27734 -1.66016,6.57812 -0.12109,2.09375 0.13672,4.13672 0.76563,6.13672 0.3125,1.28125 0.82421,2.48047 1.53906,3.58984 0.71484,1.10938 1.59375,2.07031 2.63281,2.88672 1.17188,0.82031 2.46484,1.35547 3.875,1.60938 2.24609,5.64843 3.73047,11.48828 4.44531,17.52734 h -6.65234 c -0.3125,0 -0.61719,0.0625 -0.91016,0.18359 -0.29297,0.1211 -0.55078,0.29297 -0.77343,0.51563 -0.22266,0.22265 -0.39454,0.48047 -0.51563,0.77344 -0.12109,0.29296 -0.18359,0.59375 -0.18359,0.91015 0,0.25 0.0351,0.49219 0.10937,0.73047 l 6.21485,28.00391 c 0.0586,0.26562 0.15625,0.51172 0.30078,0.74218 0.14062,0.23047 0.32031,0.42969 0.52734,0.59766 0.21094,0.17188 0.44531,0.30078 0.69922,0.39063 0.25781,0.0898 0.51953,0.13671 0.78906,0.13671 v 0.0117 h 3.39453 v 11 l -9.65625,12.59766 h -9.57422 c -1.34375,-4.69531 -2.6914,-9.38281 -4.03515,-14.07031 0.86719,-0.20313 1.67578,-0.54688 2.42969,-1.02344 0.7539,-0.47656 1.40625,-1.06641 1.96093,-1.76563 0.55078,-0.69921 0.97657,-1.46875 1.26953,-2.30859 0.29297,-0.84375 0.44141,-1.71094 0.44141,-2.60156 v -11.58985 c 0,-0.20703 -0.0703,-0.38281 -0.21094,-0.52734 l -0.0117,-0.0117 c -0.14843,-0.14453 -0.32031,-0.21484 -0.52734,-0.21094 h -6.03516 c -0.20312,-0.004 -0.3789,0.0664 -0.52734,0.21094 l -0.0117,0.0117 c -0.14062,0.14453 -0.21094,0.32031 -0.21094,0.52734 v 9.54688 c 0,0.31641 -0.0586,0.62109 -0.17968,0.91406 -0.1211,0.29297 -0.29297,0.55078 -0.51563,0.77344 -0.22656,0.22656 -0.48437,0.39844 -0.77734,0.51953 -0.28906,0.12109 -0.59375,0.18359 -0.91016,0.18359 h -65.70312 c -0.32032,0.004 -0.625,-0.0586 -0.91797,-0.17578 -0.29688,-0.12109 -0.55469,-0.29687 -0.78125,-0.51953 -0.22266,-0.22656 -0.39453,-0.48437 -0.51563,-0.77734 -0.12109,-0.29688 -0.18359,-0.60156 -0.17968,-0.91797 v -9.54688 c 0,-0.20312 -0.0703,-0.3789 -0.21094,-0.52734 l -0.0117,-0.0117 c -0.14844,-0.14062 -0.32031,-0.21094 -0.52734,-0.21094 h -6.03125 c -0.20313,0 -0.37891,0.0703 -0.52344,0.21094 l -0.0117,0.0117 c -0.14453,0.14844 -0.21484,0.32422 -0.21094,0.52734 v 11.59375 c 0,0.44532 0.0391,0.89063 0.11719,1.32813 0.0742,0.44141 0.1875,0.87109 0.33594,1.28906 0.15234,0.42188 0.33203,0.82813 0.55078,1.21485 0.21875,0.39062 0.46484,0.76171 0.74609,1.10937 0.27735,0.34766 0.58594,0.66797 0.91797,0.96484 0.33203,0.29688 0.6875,0.5625 1.06641,0.79688 0.3789,0.23828 0.77343,0.44141 1.1875,0.60937 0.41406,0.17188 0.83593,0.30469 1.27343,0.40235 -1.3789,4.68359 -2.7539,9.36719 -4.125,14.05078 h -10.96875 v -74.34766 h 9.65625 c 0.19532,0 0.39063,-0.0273 0.58204,-0.0742 0.1914,-0.0508 0.375,-0.12109 0.55078,-0.21875 0.17187,-0.0937 0.33203,-0.20703 0.47656,-0.34375 0.14453,-0.13281 0.27344,-0.28515 0.37891,-0.44921 0.10937,-0.16797 0.19531,-0.34375 0.25781,-0.53125 0.0625,-0.1875 0.10547,-0.37891 0.11719,-0.57813 0.0156,-0.19922 0.008,-0.39453 -0.0234,-0.58984 -0.0352,-0.19532 -0.0898,-0.38282 -0.17188,-0.5625 l -6.17968,-13.84766 c -0.16407,-0.47656 -0.45704,-0.86328 -0.8711,-1.15625 -0.41406,-0.29687 -0.87109,-0.44531 -1.3789,-0.44531 h -11.5586 c -0.46094,0.004 -0.89062,0.12891 -1.28125,0.37891 -0.39844,0.2539 -0.69531,0.60156 -0.88672,1.03515 l -6.18359,13.84375 c -0.19922,0.35938 -0.29688,0.74609 -0.29688,1.15625 0,0.31641 0.0625,0.62109 0.1836,0.91406 0.12109,0.29297 0.29297,0.55078 0.51562,0.77735 0.22266,0.22265 0.48047,0.39453 0.77344,0.51562 0.29297,0.125 0.59766,0.1836 0.91406,0.1875 h 9.65625 v 74.33594 h -9.65625 c -0.3125,0.004 -0.60937,0.0703 -0.89453,0.19531 -0.28515,0.125 -0.53906,0.30078 -0.75781,0.52344 -0.21484,0.22266 -0.38281,0.47656 -0.5,0.76562 -0.11719,0.28907 -0.17578,0.58985 -0.17578,0.89844 0,0.3125 0.0586,0.61328 0.17578,0.90235 0.11719,0.28906 0.28516,0.54296 0.5,0.76562 0.21875,0.22266 0.47266,0.39844 0.75781,0.51953 0.28516,0.125 0.58203,0.19141 0.89453,0.19922 H 313.4181 c 0.32031,0.008 0.6289,-0.0469 0.92969,-0.16406 0.30078,-0.11719 0.5625,-0.28906 0.79296,-0.51563 0.23047,-0.22265 0.41016,-0.48437 0.53125,-0.78125 0.125,-0.29297 0.1875,-0.60156 0.1875,-0.92578 0,-0.32031 -0.0625,-0.6289 -0.1875,-0.92578 -0.12109,-0.29687 -0.30078,-0.55469 -0.53125,-0.78125 -0.23046,-0.22266 -0.49218,-0.39453 -0.79296,-0.51172 -0.30079,-0.11719 -0.60938,-0.17187 -0.92969,-0.16406 z m -113.28516,0 c 1.40235,-4.62109 2.80469,-9.23828 4.20313,-13.85547 h 63.23437 c 1.34766,4.61719 2.69531,9.23438 4.04688,13.85547 z m 95.67969,0 h -3.66016 l 3.66016,-4.77734 z m 4.76562,0 v -4.77734 l 3.66016,4.77734 z m -67.08593,-26.19531 h -28.08594 v -4.1875 h 28.08594 z m 4.76953,-4.1875 h 28.07812 v 4.1875 h -28.07812 z m 28.07812,-4.76953 h -28.07812 v -14.66797 c 0,-0.26172 0.0508,-0.51563 0.15234,-0.76172 0.10156,-0.24219 0.2461,-0.46094 0.4336,-0.64453 0.1875,-0.1875 0.40234,-0.33203 0.64453,-0.4336 0.24218,-0.10156 0.49609,-0.15625 0.76172,-0.15625 h 24.08984 c 0.55078,0 1.01953,0.19141 1.41016,0.57813 l 0.0117,0.0117 c 0.38672,0.39062 0.57813,0.85937 0.57813,1.41015 z m -32.85156,0 h -28.08203 v -14.67188 c 0,-0.55078 0.19531,-1.01953 0.58984,-1.40625 l 0.0859,-0.0898 c 0.375,-0.33203 0.81641,-0.5 1.32031,-0.5 h 24.09375 c 0.26172,0.004 0.51563,0.0547 0.75782,0.15625 0.24609,0.10156 0.46093,0.24609 0.64453,0.43359 0.1875,0.18359 0.33203,0.39844 0.43359,0.64453 0.10156,0.24219 0.15234,0.4961 0.15625,0.75781 z m 12.0625,-45.36329 H 204.13672 V 115.5 l 14.29297,-7.66797 z m 22.05859,0 H 252.78125 L 237.05469,117.78125 253.08594,107.70703 267.60937,115.5 Z M 220.41016,103.25 l 12.90234,11.26172 18.33203,-11.51563 c 0.36719,-0.2539 0.77344,-0.39062 1.21875,-0.41406 0.44531,-0.0234 0.86328,0.0703 1.25781,0.28125 l 13.48828,7.23438 V 78.253906 h -63.47265 v 31.843754 l 13.49219,-7.23438 c 0.45703,-0.24609 0.9414,-0.33203 1.45312,-0.26172 0.51563,0.0703 0.95703,0.28516 1.32813,0.64844 z m 7.92968,-17.761719 0.0117,-0.0078 c 0.49219,-0.496094 1.03125,-0.9375 1.60938,-1.324219 0.58203,-0.390625 1.19531,-0.71875 1.83984,-0.984375 0.64453,-0.269531 1.3125,-0.472656 1.99609,-0.609375 0.6836,-0.136719 1.375,-0.203125 2.07422,-0.203125 0.69922,0 1.39063,0.06641 2.07813,0.203125 0.68359,0.136719 1.34765,0.339844 1.99609,0.609375 0.64453,0.265625 1.25781,0.59375 1.83594,0.984375 0.58203,0.386719 1.11719,0.828125 1.60937,1.324219 l 0.0117,0.0078 c 0.4961,0.496094 0.9375,1.03125 1.32813,1.613281 0.38672,0.578126 0.71484,1.191407 0.98437,1.839844 0.26563,0.644532 0.46875,1.308594 0.60547,1.992188 0.13672,0.6875 0.20313,1.378906 0.20703,2.078125 -0.004,0.699219 -0.0703,1.390625 -0.20703,2.074219 -0.13672,0.6875 -0.33984,1.351562 -0.60547,1.996093 -0.26953,0.644531 -0.59765,1.257813 -0.98437,1.839844 -0.39063,0.582031 -0.83203,1.117185 -1.32813,1.609375 l -0.0117,0.0117 c -0.49218,0.49609 -1.02734,0.9375 -1.60937,1.32422 -0.58203,0.39062 -1.19141,0.71875 -1.83984,0.98437 -0.64454,0.26953 -1.3086,0.46875 -1.99219,0.60547 -0.6875,0.13672 -1.37891,0.20703 -2.07813,0.20703 -0.69922,0 -1.39062,-0.0703 -2.07422,-0.20703 -0.68359,-0.13672 -1.35156,-0.33594 -1.99609,-0.60547 -0.64453,-0.26562 -1.25781,-0.59375 -1.83984,-0.98437 -0.57813,-0.38672 -1.11719,-0.82813 -1.60938,-1.32422 l -0.0117,-0.0117 c -0.49218,-0.49219 -0.93359,-1.03125 -1.32422,-1.609375 -0.38671,-0.582031 -0.71484,-1.195313 -0.98437,-1.839844 -0.26563,-0.644531 -0.46875,-1.308593 -0.60547,-1.996093 -0.13672,-0.683594 -0.20703,-1.375 -0.20703,-2.074219 0,-0.699219 0.0703,-1.390625 0.20703,-2.074219 0.13672,-0.6875 0.33984,-1.351562 0.60547,-1.996094 0.26953,-0.648437 0.59766,-1.257812 0.98437,-1.839844 0.39063,-0.582031 0.83204,-1.117187 1.32422,-1.613281 z m 3.37891,11.6875 c -0.32031,-0.320312 -0.60156,-0.671875 -0.83984,-1.054687 -0.24219,-0.386719 -0.4375,-0.792969 -0.58204,-1.21875 -0.14843,-0.429688 -0.24218,-0.871094 -0.28906,-1.320313 -0.0469,-0.449219 -0.0391,-0.902343 0.0195,-1.351562 0.0586,-0.449219 0.16407,-0.886719 0.32422,-1.308594 0.16016,-0.425781 0.36328,-0.824219 0.61328,-1.203125 0.25391,-0.378906 0.54297,-0.722656 0.875,-1.03125 0.32813,-0.3125 0.6875,-0.578125 1.08203,-0.808594 0.39063,-0.226562 0.80469,-0.40625 1.23829,-0.539062 0.43359,-0.132813 0.875,-0.210938 1.32812,-0.242188 0.44922,-0.03125 0.90234,-0.0078 1.34766,0.0625 0.44531,0.07422 0.8789,0.195313 1.30078,0.371094 0.41797,0.171875 0.8125,0.390625 1.17969,0.652344 0.36718,0.265625 0.70312,0.566406 1,0.90625 0.30078,0.339844 0.55859,0.710937 0.76953,1.109375 0.21484,0.398437 0.38281,0.820312 0.5,1.257812 0.11718,0.4375 0.18359,0.882813 0.19922,1.332031 0.0156,0.453126 -0.0234,0.902344 -0.10938,1.347657 -0.0898,0.445312 -0.22656,0.875 -0.41406,1.285156 -0.1875,0.414063 -0.41797,0.800781 -0.69141,1.160156 -0.27734,0.359375 -0.58984,0.683594 -0.9414,0.96875 -0.34766,0.289063 -0.72657,0.53125 -1.13282,0.734375 -0.40625,0.199219 -0.83203,0.351563 -1.27343,0.453125 -0.44141,0.105469 -0.88672,0.15625 -1.33985,0.15625 -0.78125,0 -1.53515,-0.148437 -2.25781,-0.445312 -0.72266,-0.296875 -1.35938,-0.722657 -1.91406,-1.273438 z m 0,0"
         id="path6" />
    </g>
    <g
       style="fill:#737373;fill-opacity:1"
       id="g8">
      <g
         transform="translate(157.98948,243.45778)"
         id="g7">
        <path
           style="stroke:none"
           d="m 1.957031,0 h 11.003907 c 0.394531,0 0.5625,-0.195312 0.636718,-0.5625 l 0.585938,-2.46875 c 0.05078,-0.269531 -0.07031,-0.492188 -0.292969,-0.492188 h -0.144531 c -0.855469,0 -1.273438,2.519532 -2.570313,2.519532 H 5.429688 c -0.613282,0 -0.90625,-0.488282 -0.90625,-1.050782 L 4.550781,-8.390625 H 9 c 0.929688,0 0.90625,1.394531 1.417969,1.394531 h 0.09766 c 0.195313,0 0.320313,-0.171875 0.320313,-0.414062 v -3.007813 c 0,-0.269531 -0.125,-0.417969 -0.320313,-0.417969 h -0.09766 C 9.90625,-10.835938 9.929688,-9.390625 9,-9.390625 H 4.550781 v -6.140625 c 0,-0.585938 0.242188,-0.832031 0.683594,-0.832031 h 5.183594 c 1.273437,0 1.859375,2.445312 2.617187,2.445312 h 0.121094 c 0.246094,0 0.367188,-0.144531 0.296875,-0.488281 l -0.589844,-2.421875 c -0.07031,-0.339844 -0.21875,-0.535156 -0.609375,-0.535156 H 1.882812 c -0.269531,0 -0.441406,0.09766 -0.441406,0.265625 v 0.07422 c 0,0.441407 0.90625,0.464844 0.90625,1.394532 v 13.890625 c 0,0.929687 -0.90625,0.929687 -0.90625,1.394531 v 0.050781 C 1.441406,-0.0976562 1.664062,0 1.957031,0 Z m 0,0"
           id="path7" />
      </g>
    </g>
    <g
       style="fill:#737373;fill-opacity:1"
       id="g10">
      <g
         transform="translate(176.21091,243.45778)"
         id="g9">
        <path
           style="stroke:none"
           d="m 10.34375,-9.316406 c 2.03125,-0.464844 3.304688,-1.835938 3.304688,-3.71875 0,-2.519532 -2.375,-4.328125 -6.359376,-4.328125 H 1.957031 c -0.292969,0 -0.488281,0.09766 -0.488281,0.292969 v 0.04687 c 0,0.464844 0.878906,0.515626 0.878906,1.371094 v 13.941406 c 0,0.855469 -0.878906,0.902344 -0.878906,1.34375 v 0.074219 C 1.46875,-0.0976562 1.664062,0 1.957031,0 H 8.65625 c 3.890625,0 6.679688,-1.710938 6.679688,-4.769531 0,-2.421875 -1.761719,-4.132813 -4.992188,-4.546875 z M 4.574219,-15.53125 c 0,-0.585938 0.292969,-0.804688 0.734375,-0.804688 l 1.929687,-0.02734 c 2.667969,0 4.402344,1.371093 4.402344,3.695312 0,1.710938 -1.417969,2.957031 -3.59375,2.957031 H 5.503906 c -0.5625,0 -0.953125,-0.367187 -0.953125,-0.929687 z M 8.460938,-1.003906 H 5.601562 c -0.613281,0 -1.027343,-0.464844 -1.027343,-1.171875 v -6.53125 h 2.886719 c 3.667968,0 5.597656,1.957031 5.597656,4.304687 0,2.300782 -1.785156,3.398438 -4.597656,3.398438 z m 0,0"
           id="path8" />
      </g>
    </g>
    <g
       style="fill:#737373;fill-opacity:1"
       id="g12">
      <g
         transform="translate(195.89977,243.45778)"
         id="g11">
        <path
           style="stroke:none"
           d="m 1.710938,-7.191406 h 7.777343 c 0.222657,0 0.34375,-0.144532 0.34375,-0.367188 v -0.511718 c 0,-0.195313 -0.121093,-0.320313 -0.34375,-0.320313 H 1.710938 c -0.21875,0 -0.339844,0.125 -0.339844,0.320313 v 0.511718 c 0,0.222656 0.121094,0.367188 0.339844,0.367188 z m 0,0"
           id="path10" />
      </g>
    </g>
    <g
       style="fill:#737373;fill-opacity:1"
       id="g14">
      <g
         transform="translate(210.6483,243.45778)"
         id="g13">
        <path
           style="stroke:none"
           d="m 16.535156,-17.363281 h -2.226562 c -0.320313,0 -0.515625,0.121093 -0.515625,0.316406 v 0.05078 c 0,0.4375 1.003906,0.460938 1.003906,1.34375 V -2.835938 L 4.648438,-16.875 C 4.425781,-17.195312 4.15625,-17.363281 3.765625,-17.363281 H 1.90625 c -0.316406,0 -0.488281,0.121093 -0.488281,0.316406 v 0.09766 c 0,0.464844 0.929687,0.464844 0.929687,1.320313 v 13.84375 c 0,0.90625 -0.929687,0.976562 -0.929687,1.441406 v 0.050781 C 1.417969,-0.0976562 1.589844,0 1.90625,0 H 4.132812 C 4.425781,0 4.648438,-0.0976562 4.648438,-0.292969 V -0.34375 c 0,-0.464844 -1.054688,-0.535156 -1.054688,-1.441406 V -14.871094 L 14.039062,-0.636719 C 14.355469,-0.148438 14.578125,0 14.820312,0 h 0.613282 c 0.390625,0 0.609375,-0.246094 0.609375,-0.660156 v -14.992188 c 0,-0.882812 0.980469,-0.90625 0.980469,-1.34375 v -0.05078 c 0,-0.195313 -0.195313,-0.316406 -0.488282,-0.316406 z m 0,0"
           id="path12" />
      </g>
    </g>
    <g
       style="fill:#737373;fill-opacity:1"
       id="g16">
      <g
         transform="translate(232.53829,243.45778)"
         id="g15">
        <path
           style="stroke:none"
           d="M 1.46875,-0.292969 C 1.46875,-0.0976562 1.664062,0 1.957031,0 H 5.015625 C 5.308594,0 5.503906,-0.0976562 5.503906,-0.292969 V -0.34375 c 0,-0.4375 -0.929687,-0.464844 -0.929687,-1.34375 v -13.964844 c 0,-0.882812 0.929687,-0.90625 0.929687,-1.371094 v -0.04687 c 0,-0.195313 -0.195312,-0.292969 -0.488281,-0.292969 H 1.957031 c -0.292969,0 -0.488281,0.09766 -0.488281,0.292969 v 0.04687 c 0,0.464844 0.878906,0.488282 0.878906,1.371094 V -1.6875 c 0,0.878906 -0.878906,0.90625 -0.878906,1.34375 z m 0,0"
           id="path14" />
      </g>
    </g>
    <g
       style="fill:#737373;fill-opacity:1"
       id="g18">
      <g
         transform="translate(243.03129,243.45778)"
         id="g17">
        <path
           style="stroke:none"
           d="M 5.820312,0 H 8.878906 C 9.195312,0 9.390625,-0.0976562 9.390625,-0.292969 V -0.34375 c 0,-0.464844 -0.953125,-0.488281 -0.953125,-1.367188 V -16.3125 h 3.375 c 1.222656,0 1.542969,2.640625 2.25,2.640625 h 0.246094 c 0.21875,0 0.367187,-0.148437 0.292968,-0.464844 L 14.0625,-16.828125 c -0.07422,-0.339844 -0.242188,-0.535156 -0.636719,-0.535156 H 1.273438 c -0.394532,0 -0.5625,0.195312 -0.613282,0.535156 l -0.390625,2.667969 c -0.050781,0.339844 0.074219,0.488281 0.316407,0.488281 h 0.222656 c 0.707031,0 0.855468,-2.640625 2.101562,-2.640625 h 3.328125 v 14.601562 c 0,0.878907 -0.90625,0.902344 -0.90625,1.367188 v 0.050781 C 5.332031,-0.0976562 5.527344,0 5.820312,0 Z m 0,0"
           id="path16" />
      </g>
    </g>
    <g
       style="fill:#737373;fill-opacity:1"
       id="g20">
      <g
         transform="translate(261.44838,243.45778)"
         id="g19">
        <path
           style="stroke:none"
           d="m 8.976562,0.246094 c 3.839844,0 6.53125,-2.742188 6.53125,-6.972656 v -8.925782 c 0,-0.855468 1,-0.90625 1,-1.34375 v -0.07422 c 0,-0.195313 -0.21875,-0.292969 -0.511718,-0.292969 H 13.84375 c -0.292969,0 -0.515625,0.09766 -0.515625,0.292969 v 0.07422 c 0,0.4375 0.929687,0.488282 0.929687,1.34375 V -6.75 c 0,3.886719 -2.296874,5.941406 -4.867187,5.941406 -3.054687,0 -5.085937,-2.320312 -5.085937,-5.941406 v -8.902344 c 0,-0.855468 0.929687,-0.90625 0.929687,-1.34375 v -0.07422 c 0,-0.195313 -0.195313,-0.292969 -0.488281,-0.292969 H 1.664062 c -0.292968,0 -0.488281,0.09766 -0.488281,0.292969 v 0.07422 c 0,0.4375 0.878907,0.488282 0.878907,1.34375 V -6.75 c 0,4.253906 2.835937,6.996094 6.921874,6.996094 z m 0,0"
           id="path18" />
      </g>
    </g>
    <g
       style="fill:#737373;fill-opacity:1"
       id="g22">
      <g
         transform="translate(282.5802,243.45778)"
         id="g21">
        <path
           style="stroke:none"
           d="m 14.136719,-1.710938 -3.914063,-5.40625 c 2.691406,-0.757812 4.132813,-2.640624 4.132813,-4.867187 -0.02344,-3.691406 -3.203125,-5.378906 -7.386719,-5.378906 H 1.957031 c -0.292969,0 -0.488281,0.09766 -0.488281,0.292969 v 0.04687 c 0,0.464844 0.878906,0.488282 0.878906,1.371094 v 13.941406 c 0,0.878907 -0.878906,0.902344 -0.878906,1.367188 v 0.050781 C 1.46875,-0.0976562 1.664062,0 1.957031,0 H 5.039062 C 5.332031,0 5.527344,-0.0976562 5.527344,-0.292969 V -0.34375 c 0,-0.464844 -0.953125,-0.488281 -0.953125,-1.367188 V -6.703125 L 7.507812,-6.75 c 0.222657,0 0.417969,0 0.613282,-0.023438 l 3.667968,5.0625 c 0.5625,0.902344 -0.488281,0.902344 -0.488281,1.367188 v 0.050781 C 11.300781,-0.0976562 11.496094,0 11.789062,0 H 15.1875 c 0.292969,0 0.488281,-0.0976562 0.488281,-0.292969 V -0.34375 c 0,-0.464844 -0.878906,-0.4375 -1.539062,-1.367188 z M 7.289062,-7.730469 h -1.6875 c -0.660156,0 -1.027343,-0.339843 -1.027343,-1.148437 v -6.652344 c 0,-0.511719 0.195312,-0.832031 0.636719,-0.832031 h 1.636718 c 2.738282,0 5.234375,1.46875 5.234375,4.695312 0,2.472657 -1.957031,3.9375 -4.792969,3.9375 z m 0,0"
           id="path20" />
      </g>
    </g>
    <g
       style="fill:#737373;fill-opacity:1"
       id="g24">
      <g
         transform="translate(301.97558,243.45778)"
         id="g23">
        <path
           style="stroke:none"
           d="m 1.957031,0 h 11.003907 c 0.394531,0 0.5625,-0.195312 0.636718,-0.5625 l 0.585938,-2.46875 c 0.05078,-0.269531 -0.07031,-0.492188 -0.292969,-0.492188 h -0.144531 c -0.855469,0 -1.273438,2.519532 -2.570313,2.519532 H 5.429688 c -0.613282,0 -0.90625,-0.488282 -0.90625,-1.050782 L 4.550781,-8.390625 H 9 c 0.929688,0 0.90625,1.394531 1.417969,1.394531 h 0.09766 c 0.195313,0 0.320313,-0.171875 0.320313,-0.414062 v -3.007813 c 0,-0.269531 -0.125,-0.417969 -0.320313,-0.417969 h -0.09766 C 9.90625,-10.835938 9.929688,-9.390625 9,-9.390625 H 4.550781 v -6.140625 c 0,-0.585938 0.242188,-0.832031 0.683594,-0.832031 h 5.183594 c 1.273437,0 1.859375,2.445312 2.617187,2.445312 h 0.121094 c 0.246094,0 0.367188,-0.144531 0.296875,-0.488281 l -0.589844,-2.421875 c -0.07031,-0.339844 -0.21875,-0.535156 -0.609375,-0.535156 H 1.882812 c -0.269531,0 -0.441406,0.09766 -0.441406,0.265625 v 0.07422 c 0,0.441407 0.90625,0.464844 0.90625,1.394532 v 13.890625 c 0,0.929687 -0.90625,0.929687 -0.90625,1.394531 v 0.050781 C 1.441406,-0.0976562 1.664062,0 1.957031,0 Z m 0,0"
           id="path22" />
      </g>
    </g>
    <g
       style="fill:#ffbd59;fill-opacity:1"
       id="g26">
      <g
         transform="translate(93.299785,243.88869)"
         id="g25">
        <path
           style="stroke:none"
           d="M 67.765625,-44.390625 55.109375,0 H 42.453125 L 34.515625,-27.734375 26.59375,0 H 13.875 L 1.21875,-44.390625 H 13.875 l 7.921875,27.734375 7.9375,-27.734375 h 12.71875 l 7.9375,27.734375 7.875,-27.734375 z m 0,0"
           id="path24" />
      </g>
    </g>
  </g>
</svg>
