<svg xmlns="http://www.w3.org/2000/svg" xmlns:xlink="http://www.w3.org/1999/xlink" width="500" zoomAndPan="magnify" viewBox="0 0 375 374.999991" height="500" preserveAspectRatio="xMidYMid meet" version="1.2"><defs><clipPath id="d9ecdff878"><path d="M 167 154.3125 L 316 154.3125 L 316 216.5625 L 167 216.5625 Z M 167 154.3125 "/></clipPath><clipPath id="578f520a42"><path d="M 167 115.015625 L 200.410156 115.015625 L 200.410156 217 L 167 217 Z M 167 115.015625 "/></clipPath><clipPath id="9eb33dd804"><path d="M 276.660156 110.941406 L 316 110.941406 L 316 216.691406 L 276.660156 216.691406 Z M 276.660156 110.941406 "/></clipPath></defs><g id="620bb43e6f"><g clip-rule="nonzero" clip-path="url(#d9ecdff878)"><path style=" stroke:none;fill-rule:nonzero;fill:#737373;fill-opacity:1;" d="M 313.417969 212.03125 L 310.238281 212.03125 L 300.582031 199.433594 L 300.582031 188.433594 L 303.972656 188.433594 C 304.261719 188.433594 304.542969 188.378906 304.816406 188.277344 C 305.085938 188.175781 305.332031 188.03125 305.546875 187.839844 C 305.765625 187.648438 305.941406 187.425781 306.078125 187.167969 C 306.214844 186.914062 306.304688 186.640625 306.34375 186.355469 L 312.554688 158.335938 C 312.59375 158.164062 312.613281 157.988281 312.613281 157.8125 C 312.609375 157.632812 312.589844 157.457031 312.550781 157.285156 C 312.507812 157.113281 312.449219 156.945312 312.371094 156.785156 C 312.292969 156.625 312.199219 156.476562 312.085938 156.339844 C 311.976562 156.199219 311.851562 156.078125 311.710938 155.964844 C 311.574219 155.855469 311.421875 155.761719 311.261719 155.683594 C 311.101562 155.609375 310.9375 155.550781 310.765625 155.511719 C 310.589844 155.472656 310.414062 155.449219 310.238281 155.449219 L 310.238281 155.441406 L 301.695312 155.441406 C 301.886719 153.839844 302.109375 152.246094 302.398438 150.691406 C 302.707031 149.019531 303.097656 147.375 303.527344 145.773438 C 304.902344 145.601562 306.128906 145.074219 307.199219 144.1875 C 309.011719 142.703125 310.292969 140.855469 311.042969 138.636719 C 311.679688 136.589844 311.925781 134.492188 311.785156 132.355469 C 311.640625 130.214844 311.117188 128.171875 310.214844 126.226562 C 301.945312 129.191406 296.808594 134.863281 297.277344 139.953125 C 297.449219 141.527344 298.035156 142.929688 299.03125 144.160156 C 298.542969 145.976562 298.089844 147.867188 297.730469 149.835938 C 297.558594 150.765625 297.421875 151.691406 297.285156 152.621094 C 296.40625 146.953125 294.90625 141.457031 292.78125 136.132812 C 293.773438 134.960938 294.316406 133.609375 294.414062 132.074219 C 294.582031 129.742188 294.128906 127.535156 293.066406 125.457031 C 292.117188 123.179688 290.664062 121.285156 288.714844 119.777344 C 286.488281 118.121094 283.984375 117.230469 281.210938 117.109375 C 280.226562 119.195312 279.675781 121.386719 279.550781 123.6875 C 279.429688 125.78125 279.6875 127.824219 280.316406 129.824219 C 280.628906 131.105469 281.140625 132.304688 281.855469 133.414062 C 282.570312 134.523438 283.449219 135.484375 284.488281 136.300781 C 285.660156 137.121094 286.953125 137.65625 288.363281 137.910156 C 290.609375 143.558594 292.09375 149.398438 292.808594 155.4375 L 286.15625 155.4375 C 285.84375 155.4375 285.539062 155.5 285.246094 155.621094 C 284.953125 155.742188 284.695312 155.914062 284.472656 156.136719 C 284.25 156.359375 284.078125 156.617188 283.957031 156.910156 C 283.835938 157.203125 283.773438 157.503906 283.773438 157.820312 C 283.773438 158.070312 283.808594 158.3125 283.882812 158.550781 L 290.097656 186.554688 C 290.15625 186.820312 290.253906 187.066406 290.398438 187.296875 C 290.539062 187.527344 290.71875 187.726562 290.925781 187.894531 C 291.136719 188.066406 291.371094 188.195312 291.625 188.285156 C 291.882812 188.375 292.144531 188.421875 292.414062 188.421875 L 292.414062 188.433594 L 295.808594 188.433594 L 295.808594 199.433594 L 286.152344 212.03125 L 276.578125 212.03125 C 275.234375 207.335938 273.886719 202.648438 272.542969 197.960938 C 273.410156 197.757812 274.21875 197.414062 274.972656 196.9375 C 275.726562 196.460938 276.378906 195.871094 276.933594 195.171875 C 277.484375 194.472656 277.910156 193.703125 278.203125 192.863281 C 278.496094 192.019531 278.644531 191.152344 278.644531 190.261719 L 278.644531 178.671875 C 278.644531 178.464844 278.574219 178.289062 278.433594 178.144531 L 278.421875 178.132812 C 278.273438 177.988281 278.101562 177.917969 277.894531 177.921875 L 271.859375 177.921875 C 271.65625 177.917969 271.480469 177.988281 271.332031 178.132812 L 271.320312 178.144531 C 271.179688 178.289062 271.109375 178.464844 271.109375 178.671875 L 271.109375 188.21875 C 271.109375 188.535156 271.050781 188.839844 270.929688 189.132812 C 270.808594 189.425781 270.636719 189.683594 270.414062 189.90625 C 270.1875 190.132812 269.929688 190.304688 269.636719 190.425781 C 269.347656 190.546875 269.042969 190.609375 268.726562 190.609375 L 203.023438 190.609375 C 202.703125 190.613281 202.398438 190.550781 202.105469 190.433594 C 201.808594 190.3125 201.550781 190.136719 201.324219 189.914062 C 201.101562 189.6875 200.929688 189.429688 200.808594 189.136719 C 200.6875 188.839844 200.625 188.535156 200.628906 188.21875 L 200.628906 178.671875 C 200.628906 178.46875 200.558594 178.292969 200.417969 178.144531 L 200.40625 178.132812 C 200.257812 177.992188 200.085938 177.921875 199.878906 177.921875 L 193.847656 177.921875 C 193.644531 177.921875 193.46875 177.992188 193.324219 178.132812 L 193.3125 178.144531 C 193.167969 178.292969 193.097656 178.46875 193.101562 178.671875 L 193.101562 190.265625 C 193.101562 190.710938 193.140625 191.15625 193.21875 191.59375 C 193.292969 192.035156 193.40625 192.464844 193.554688 192.882812 C 193.707031 193.304688 193.886719 193.710938 194.105469 194.097656 C 194.324219 194.488281 194.570312 194.859375 194.851562 195.207031 C 195.128906 195.554688 195.4375 195.875 195.769531 196.171875 C 196.101562 196.46875 196.457031 196.734375 196.835938 196.96875 C 197.214844 197.207031 197.609375 197.410156 198.023438 197.578125 C 198.4375 197.75 198.859375 197.882812 199.296875 197.980469 C 197.917969 202.664062 196.542969 207.347656 195.171875 212.03125 L 184.203125 212.03125 L 184.203125 137.683594 L 193.859375 137.683594 C 194.054688 137.683594 194.25 137.65625 194.441406 137.609375 C 194.632812 137.558594 194.816406 137.488281 194.992188 137.390625 C 195.164062 137.296875 195.324219 137.183594 195.46875 137.046875 C 195.613281 136.914062 195.742188 136.761719 195.847656 136.597656 C 195.957031 136.429688 196.042969 136.253906 196.105469 136.066406 C 196.167969 135.878906 196.207031 135.6875 196.222656 135.488281 C 196.238281 135.289062 196.230469 135.09375 196.199219 134.898438 C 196.164062 134.703125 196.109375 134.515625 196.027344 134.335938 L 189.847656 120.488281 C 189.683594 120.011719 189.390625 119.625 188.976562 119.332031 C 188.5625 119.035156 188.105469 118.886719 187.597656 118.886719 L 176.039062 118.886719 C 175.578125 118.890625 175.148438 119.015625 174.757812 119.265625 C 174.359375 119.519531 174.0625 119.867188 173.871094 120.300781 L 167.6875 134.144531 C 167.488281 134.503906 167.390625 134.890625 167.390625 135.300781 C 167.390625 135.617188 167.453125 135.921875 167.574219 136.214844 C 167.695312 136.507812 167.867188 136.765625 168.089844 136.992188 C 168.3125 137.214844 168.570312 137.386719 168.863281 137.507812 C 169.15625 137.632812 169.460938 137.691406 169.777344 137.695312 L 179.433594 137.695312 L 179.433594 212.03125 L 169.777344 212.03125 C 169.464844 212.035156 169.167969 212.101562 168.882812 212.226562 C 168.597656 212.351562 168.34375 212.527344 168.125 212.75 C 167.910156 212.972656 167.742188 213.226562 167.625 213.515625 C 167.507812 213.804688 167.449219 214.105469 167.449219 214.414062 C 167.449219 214.726562 167.507812 215.027344 167.625 215.316406 C 167.742188 215.605469 167.910156 215.859375 168.125 216.082031 C 168.34375 216.304688 168.597656 216.480469 168.882812 216.601562 C 169.167969 216.726562 169.464844 216.792969 169.777344 216.800781 L 313.417969 216.800781 C 313.738281 216.808594 314.046875 216.753906 314.347656 216.636719 C 314.648438 216.519531 314.910156 216.347656 315.140625 216.121094 C 315.371094 215.898438 315.550781 215.636719 315.671875 215.34375 C 315.796875 215.046875 315.859375 214.738281 315.859375 214.414062 C 315.859375 214.09375 315.796875 213.785156 315.671875 213.488281 C 315.550781 213.191406 315.371094 212.933594 315.140625 212.707031 C 314.910156 212.484375 314.648438 212.3125 314.347656 212.195312 C 314.046875 212.078125 313.738281 212.023438 313.417969 212.03125 Z M 200.132812 212.03125 C 201.535156 207.410156 202.9375 202.792969 204.335938 198.175781 L 267.570312 198.175781 C 268.917969 202.792969 270.265625 207.410156 271.617188 212.03125 Z M 295.8125 212.03125 L 292.152344 212.03125 L 295.8125 207.253906 Z M 300.578125 212.03125 L 300.578125 207.253906 L 304.238281 212.03125 Z M 233.492188 185.835938 L 205.40625 185.835938 L 205.40625 181.648438 L 233.492188 181.648438 Z M 238.261719 181.648438 L 266.339844 181.648438 L 266.339844 185.835938 L 238.261719 185.835938 Z M 266.339844 176.878906 L 238.261719 176.878906 L 238.261719 162.210938 C 238.261719 161.949219 238.3125 161.695312 238.414062 161.449219 C 238.515625 161.207031 238.660156 160.988281 238.847656 160.804688 C 239.035156 160.617188 239.25 160.472656 239.492188 160.371094 C 239.734375 160.269531 239.988281 160.214844 240.253906 160.214844 L 264.34375 160.214844 C 264.894531 160.214844 265.363281 160.40625 265.753906 160.792969 L 265.765625 160.804688 C 266.152344 161.195312 266.34375 161.664062 266.34375 162.214844 Z M 233.488281 176.878906 L 205.40625 176.878906 L 205.40625 162.207031 C 205.40625 161.65625 205.601562 161.1875 205.996094 160.800781 L 206.082031 160.710938 C 206.457031 160.378906 206.898438 160.210938 207.402344 160.210938 L 231.496094 160.210938 C 231.757812 160.214844 232.011719 160.265625 232.253906 160.367188 C 232.5 160.46875 232.714844 160.613281 232.898438 160.800781 C 233.085938 160.984375 233.230469 161.199219 233.332031 161.445312 C 233.433594 161.6875 233.484375 161.941406 233.488281 162.203125 Z M 245.550781 131.515625 L 204.136719 131.515625 L 204.136719 115.5 L 218.429688 107.832031 Z M 267.609375 131.515625 L 252.78125 131.515625 L 237.054688 117.78125 L 253.085938 107.707031 L 267.609375 115.5 Z M 220.410156 103.25 L 233.3125 114.511719 L 251.644531 102.996094 C 252.011719 102.742188 252.417969 102.605469 252.863281 102.582031 C 253.308594 102.558594 253.726562 102.652344 254.121094 102.863281 L 267.609375 110.097656 L 267.609375 78.253906 L 204.136719 78.253906 L 204.136719 110.097656 L 217.628906 102.863281 C 218.085938 102.617188 218.570312 102.53125 219.082031 102.601562 C 219.597656 102.671875 220.039062 102.886719 220.410156 103.25 Z M 228.339844 85.488281 L 228.351562 85.480469 C 228.84375 84.984375 229.382812 84.542969 229.960938 84.15625 C 230.542969 83.765625 231.15625 83.4375 231.800781 83.171875 C 232.445312 82.902344 233.113281 82.699219 233.796875 82.5625 C 234.480469 82.425781 235.171875 82.359375 235.871094 82.359375 C 236.570312 82.359375 237.261719 82.425781 237.949219 82.5625 C 238.632812 82.699219 239.296875 82.902344 239.945312 83.171875 C 240.589844 83.4375 241.203125 83.765625 241.78125 84.15625 C 242.363281 84.542969 242.898438 84.984375 243.390625 85.480469 L 243.402344 85.488281 C 243.898438 85.984375 244.339844 86.519531 244.730469 87.101562 C 245.117188 87.679688 245.445312 88.292969 245.714844 88.941406 C 245.980469 89.585938 246.183594 90.25 246.320312 90.933594 C 246.457031 91.621094 246.523438 92.3125 246.523438 93.011719 C 246.523438 93.710938 246.457031 94.402344 246.320312 95.085938 C 246.183594 95.773438 245.980469 96.4375 245.714844 97.082031 C 245.445312 97.726562 245.117188 98.339844 244.730469 98.921875 C 244.339844 99.503906 243.898438 100.039062 243.402344 100.53125 L 243.390625 100.542969 C 242.898438 101.039062 242.363281 101.480469 241.78125 101.867188 C 241.199219 102.257812 240.589844 102.585938 239.941406 102.851562 C 239.296875 103.121094 238.632812 103.320312 237.949219 103.457031 C 237.261719 103.59375 236.570312 103.664062 235.871094 103.664062 C 235.171875 103.664062 234.480469 103.59375 233.796875 103.457031 C 233.113281 103.320312 232.445312 103.121094 231.800781 102.851562 C 231.15625 102.585938 230.542969 102.257812 229.960938 101.867188 C 229.382812 101.480469 228.84375 101.039062 228.351562 100.542969 L 228.339844 100.53125 C 227.847656 100.039062 227.40625 99.5 227.015625 98.921875 C 226.628906 98.339844 226.300781 97.726562 226.03125 97.082031 C 225.765625 96.4375 225.5625 95.773438 225.425781 95.085938 C 225.289062 94.402344 225.21875 93.710938 225.21875 93.011719 C 225.21875 92.3125 225.289062 91.621094 225.425781 90.9375 C 225.5625 90.25 225.765625 89.585938 226.03125 88.941406 C 226.300781 88.292969 226.628906 87.683594 227.015625 87.101562 C 227.40625 86.519531 227.847656 85.984375 228.339844 85.488281 Z M 231.71875 97.175781 C 231.398438 96.855469 231.117188 96.503906 230.878906 96.121094 C 230.636719 95.734375 230.441406 95.328125 230.296875 94.902344 C 230.148438 94.472656 230.054688 94.03125 230.007812 93.582031 C 229.960938 93.132812 229.96875 92.679688 230.027344 92.230469 C 230.085938 91.78125 230.191406 91.34375 230.351562 90.921875 C 230.511719 90.496094 230.714844 90.097656 230.964844 89.71875 C 231.21875 89.339844 231.507812 88.996094 231.835938 88.6875 C 232.167969 88.375 232.527344 88.109375 232.921875 87.878906 C 233.3125 87.652344 233.726562 87.472656 234.160156 87.339844 C 234.59375 87.207031 235.035156 87.128906 235.488281 87.097656 C 235.9375 87.066406 236.390625 87.089844 236.835938 87.160156 C 237.28125 87.234375 237.714844 87.355469 238.136719 87.53125 C 238.554688 87.703125 238.949219 87.921875 239.316406 88.183594 C 239.683594 88.449219 240.019531 88.75 240.316406 89.089844 C 240.617188 89.429688 240.875 89.800781 241.085938 90.199219 C 241.300781 90.597656 241.46875 91.019531 241.585938 91.457031 C 241.703125 91.894531 241.769531 92.339844 241.785156 92.789062 C 241.800781 93.242188 241.761719 93.691406 241.675781 94.136719 C 241.585938 94.582031 241.449219 95.011719 241.261719 95.421875 C 241.074219 95.835938 240.84375 96.222656 240.570312 96.582031 C 240.292969 96.941406 239.980469 97.265625 239.628906 97.550781 C 239.28125 97.839844 238.902344 98.082031 238.496094 98.285156 C 238.089844 98.484375 237.664062 98.636719 237.222656 98.738281 C 236.78125 98.84375 236.335938 98.894531 235.882812 98.894531 C 235.101562 98.894531 234.347656 98.746094 233.625 98.449219 C 232.902344 98.152344 232.265625 97.726562 231.710938 97.175781 Z M 231.71875 97.175781 "/></g><g clip-rule="nonzero" clip-path="url(#578f520a42)"><path style=" stroke:none;fill-rule:nonzero;fill:#737373;fill-opacity:1;" d="M 313.417969 212.03125 L 310.238281 212.03125 L 300.582031 199.433594 L 300.582031 188.433594 L 303.972656 188.433594 C 304.261719 188.433594 304.542969 188.378906 304.816406 188.277344 C 305.085938 188.175781 305.332031 188.03125 305.546875 187.839844 C 305.765625 187.648438 305.941406 187.425781 306.078125 187.167969 C 306.214844 186.914062 306.304688 186.640625 306.34375 186.355469 L 312.554688 158.335938 C 312.59375 158.164062 312.613281 157.988281 312.613281 157.8125 C 312.609375 157.632812 312.589844 157.457031 312.550781 157.285156 C 312.507812 157.113281 312.449219 156.945312 312.371094 156.785156 C 312.292969 156.625 312.199219 156.476562 312.085938 156.339844 C 311.976562 156.199219 311.851562 156.074219 311.710938 155.964844 C 311.574219 155.855469 311.421875 155.761719 311.261719 155.683594 C 311.101562 155.609375 310.9375 155.550781 310.765625 155.511719 C 310.589844 155.472656 310.414062 155.449219 310.238281 155.449219 L 310.238281 155.441406 L 301.695312 155.441406 C 301.886719 153.839844 302.109375 152.246094 302.398438 150.691406 C 302.707031 149.019531 303.097656 147.375 303.527344 145.773438 C 304.902344 145.601562 306.128906 145.074219 307.199219 144.1875 C 309.011719 142.703125 310.292969 140.855469 311.042969 138.636719 C 311.679688 136.589844 311.925781 134.492188 311.785156 132.355469 C 311.640625 130.214844 311.117188 128.171875 310.214844 126.226562 C 301.945312 129.191406 296.808594 134.863281 297.277344 139.953125 C 297.449219 141.527344 298.035156 142.929688 299.03125 144.160156 C 298.542969 145.976562 298.089844 147.867188 297.730469 149.835938 C 297.558594 150.765625 297.421875 151.691406 297.285156 152.621094 C 296.40625 146.953125 294.90625 141.457031 292.78125 136.132812 C 293.773438 134.960938 294.316406 133.609375 294.414062 132.074219 C 294.582031 129.742188 294.128906 127.535156 293.066406 125.457031 C 292.117188 123.179688 290.664062 121.285156 288.714844 119.777344 C 286.488281 118.121094 283.984375 117.230469 281.210938 117.109375 C 280.226562 119.195312 279.675781 121.386719 279.550781 123.6875 C 279.429688 125.78125 279.6875 127.824219 280.316406 129.824219 C 280.628906 131.105469 281.140625 132.304688 281.855469 133.414062 C 282.570312 134.523438 283.449219 135.484375 284.488281 136.300781 C 285.660156 137.121094 286.953125 137.65625 288.363281 137.910156 C 290.609375 143.558594 292.09375 149.398438 292.808594 155.4375 L 286.15625 155.4375 C 285.84375 155.4375 285.539062 155.5 285.246094 155.621094 C 284.953125 155.742188 284.695312 155.914062 284.472656 156.136719 C 284.25 156.359375 284.078125 156.617188 283.957031 156.910156 C 283.835938 157.203125 283.773438 157.503906 283.773438 157.820312 C 283.773438 158.070312 283.808594 158.3125 283.882812 158.550781 L 290.097656 186.554688 C 290.15625 186.820312 290.253906 187.066406 290.398438 187.296875 C 290.539062 187.527344 290.71875 187.726562 290.925781 187.894531 C 291.136719 188.066406 291.371094 188.195312 291.625 188.285156 C 291.882812 188.375 292.144531 188.421875 292.414062 188.421875 L 292.414062 188.433594 L 295.808594 188.433594 L 295.808594 199.433594 L 286.152344 212.03125 L 276.578125 212.03125 C 275.234375 207.335938 273.886719 202.648438 272.542969 197.960938 C 273.410156 197.757812 274.21875 197.414062 274.972656 196.9375 C 275.726562 196.460938 276.378906 195.871094 276.933594 195.171875 C 277.484375 194.472656 277.910156 193.703125 278.203125 192.863281 C 278.496094 192.019531 278.644531 191.152344 278.644531 190.261719 L 278.644531 178.671875 C 278.644531 178.464844 278.574219 178.289062 278.433594 178.144531 L 278.421875 178.132812 C 278.273438 177.988281 278.101562 177.917969 277.894531 177.921875 L 271.859375 177.921875 C 271.65625 177.917969 271.480469 177.988281 271.332031 178.132812 L 271.320312 178.144531 C 271.179688 178.289062 271.109375 178.464844 271.109375 178.671875 L 271.109375 188.21875 C 271.109375 188.535156 271.050781 188.839844 270.929688 189.132812 C 270.808594 189.425781 270.636719 189.683594 270.414062 189.90625 C 270.1875 190.132812 269.929688 190.304688 269.636719 190.425781 C 269.347656 190.546875 269.042969 190.609375 268.726562 190.609375 L 203.023438 190.609375 C 202.703125 190.613281 202.398438 190.550781 202.105469 190.433594 C 201.808594 190.3125 201.550781 190.136719 201.324219 189.914062 C 201.101562 189.6875 200.929688 189.429688 200.808594 189.136719 C 200.6875 188.839844 200.625 188.535156 200.628906 188.21875 L 200.628906 178.671875 C 200.628906 178.46875 200.558594 178.292969 200.417969 178.144531 L 200.40625 178.132812 C 200.257812 177.992188 200.085938 177.921875 199.878906 177.921875 L 193.847656 177.921875 C 193.644531 177.921875 193.46875 177.992188 193.324219 178.132812 L 193.3125 178.144531 C 193.167969 178.292969 193.097656 178.46875 193.101562 178.671875 L 193.101562 190.265625 C 193.101562 190.710938 193.140625 191.15625 193.21875 191.59375 C 193.292969 192.035156 193.40625 192.464844 193.554688 192.882812 C 193.707031 193.304688 193.886719 193.710938 194.105469 194.097656 C 194.324219 194.488281 194.570312 194.859375 194.851562 195.207031 C 195.128906 195.554688 195.4375 195.875 195.769531 196.171875 C 196.101562 196.46875 196.457031 196.734375 196.835938 196.96875 C 197.214844 197.207031 197.609375 197.410156 198.023438 197.578125 C 198.4375 197.75 198.859375 197.882812 199.296875 197.980469 C 197.917969 202.664062 196.542969 207.347656 195.171875 212.03125 L 184.203125 212.03125 L 184.203125 137.683594 L 193.859375 137.683594 C 194.054688 137.683594 194.25 137.65625 194.441406 137.609375 C 194.632812 137.558594 194.816406 137.488281 194.992188 137.390625 C 195.164062 137.296875 195.324219 137.183594 195.46875 137.046875 C 195.613281 136.914062 195.742188 136.761719 195.847656 136.597656 C 195.957031 136.429688 196.042969 136.253906 196.105469 136.066406 C 196.167969 135.878906 196.207031 135.6875 196.222656 135.488281 C 196.238281 135.289062 196.230469 135.09375 196.199219 134.898438 C 196.164062 134.703125 196.109375 134.515625 196.027344 134.335938 L 189.847656 120.488281 C 189.683594 120.011719 189.390625 119.625 188.976562 119.332031 C 188.5625 119.035156 188.105469 118.886719 187.597656 118.886719 L 176.039062 118.886719 C 175.578125 118.890625 175.148438 119.015625 174.757812 119.265625 C 174.359375 119.519531 174.0625 119.867188 173.871094 120.300781 L 167.6875 134.144531 C 167.488281 134.503906 167.390625 134.890625 167.390625 135.300781 C 167.390625 135.617188 167.453125 135.921875 167.574219 136.214844 C 167.695312 136.507812 167.867188 136.765625 168.089844 136.992188 C 168.3125 137.214844 168.570312 137.386719 168.863281 137.507812 C 169.15625 137.632812 169.460938 137.691406 169.777344 137.695312 L 179.433594 137.695312 L 179.433594 212.03125 L 169.777344 212.03125 C 169.464844 212.035156 169.167969 212.101562 168.882812 212.226562 C 168.597656 212.351562 168.34375 212.527344 168.125 212.75 C 167.910156 212.972656 167.742188 213.226562 167.625 213.515625 C 167.507812 213.804688 167.449219 214.105469 167.449219 214.414062 C 167.449219 214.726562 167.507812 215.027344 167.625 215.316406 C 167.742188 215.605469 167.910156 215.859375 168.125 216.082031 C 168.34375 216.304688 168.597656 216.480469 168.882812 216.601562 C 169.167969 216.726562 169.464844 216.792969 169.777344 216.800781 L 313.417969 216.800781 C 313.738281 216.808594 314.046875 216.753906 314.347656 216.636719 C 314.648438 216.519531 314.910156 216.347656 315.140625 216.121094 C 315.371094 215.898438 315.550781 215.636719 315.671875 215.339844 C 315.796875 215.046875 315.859375 214.738281 315.859375 214.414062 C 315.859375 214.09375 315.796875 213.785156 315.671875 213.488281 C 315.550781 213.191406 315.371094 212.933594 315.140625 212.707031 C 314.910156 212.484375 314.648438 212.3125 314.347656 212.195312 C 314.046875 212.078125 313.738281 212.023438 313.417969 212.03125 Z M 200.132812 212.03125 C 201.535156 207.410156 202.9375 202.792969 204.335938 198.175781 L 267.570312 198.175781 C 268.917969 202.792969 270.265625 207.410156 271.617188 212.03125 Z M 295.8125 212.03125 L 292.152344 212.03125 L 295.8125 207.253906 Z M 300.578125 212.03125 L 300.578125 207.253906 L 304.238281 212.03125 Z M 233.492188 185.835938 L 205.40625 185.835938 L 205.40625 181.648438 L 233.492188 181.648438 Z M 238.261719 181.648438 L 266.339844 181.648438 L 266.339844 185.835938 L 238.261719 185.835938 Z M 266.339844 176.878906 L 238.261719 176.878906 L 238.261719 162.210938 C 238.261719 161.949219 238.3125 161.695312 238.414062 161.449219 C 238.515625 161.207031 238.660156 160.988281 238.847656 160.804688 C 239.035156 160.617188 239.25 160.472656 239.492188 160.371094 C 239.734375 160.269531 239.988281 160.214844 240.253906 160.214844 L 264.34375 160.214844 C 264.894531 160.214844 265.363281 160.40625 265.753906 160.792969 L 265.765625 160.804688 C 266.152344 161.195312 266.34375 161.664062 266.34375 162.214844 Z M 233.488281 176.878906 L 205.40625 176.878906 L 205.40625 162.207031 C 205.40625 161.65625 205.601562 161.1875 205.996094 160.800781 L 206.082031 160.710938 C 206.457031 160.378906 206.898438 160.210938 207.402344 160.210938 L 231.496094 160.210938 C 231.757812 160.214844 232.011719 160.265625 232.253906 160.367188 C 232.5 160.46875 232.714844 160.613281 232.898438 160.800781 C 233.085938 160.984375 233.230469 161.199219 233.332031 161.445312 C 233.433594 161.6875 233.484375 161.941406 233.488281 162.203125 Z M 245.550781 131.515625 L 204.136719 131.515625 L 204.136719 115.5 L 218.429688 107.832031 Z M 267.609375 131.515625 L 252.78125 131.515625 L 237.054688 117.78125 L 253.085938 107.707031 L 267.609375 115.5 Z M 220.410156 103.25 L 233.3125 114.511719 L 251.644531 102.996094 C 252.011719 102.742188 252.417969 102.605469 252.863281 102.582031 C 253.308594 102.558594 253.726562 102.652344 254.121094 102.863281 L 267.609375 110.097656 L 267.609375 78.253906 L 204.136719 78.253906 L 204.136719 110.097656 L 217.628906 102.863281 C 218.085938 102.617188 218.570312 102.53125 219.082031 102.601562 C 219.597656 102.671875 220.039062 102.886719 220.410156 103.25 Z M 228.339844 85.488281 L 228.351562 85.480469 C 228.84375 84.984375 229.382812 84.542969 229.960938 84.15625 C 230.542969 83.765625 231.15625 83.4375 231.800781 83.171875 C 232.445312 82.902344 233.113281 82.699219 233.796875 82.5625 C 234.480469 82.425781 235.171875 82.359375 235.871094 82.359375 C 236.570312 82.359375 237.261719 82.425781 237.949219 82.5625 C 238.632812 82.699219 239.296875 82.902344 239.945312 83.171875 C 240.589844 83.4375 241.203125 83.765625 241.78125 84.15625 C 242.363281 84.542969 242.898438 84.984375 243.390625 85.480469 L 243.402344 85.488281 C 243.898438 85.984375 244.339844 86.519531 244.730469 87.101562 C 245.117188 87.679688 245.445312 88.292969 245.714844 88.941406 C 245.980469 89.585938 246.183594 90.25 246.320312 90.933594 C 246.457031 91.621094 246.523438 92.3125 246.523438 93.011719 C 246.523438 93.710938 246.457031 94.402344 246.320312 95.085938 C 246.183594 95.773438 245.980469 96.4375 245.714844 97.082031 C 245.445312 97.726562 245.117188 98.339844 244.730469 98.921875 C 244.339844 99.503906 243.898438 100.039062 243.402344 100.53125 L 243.390625 100.542969 C 242.898438 101.039062 242.363281 101.480469 241.78125 101.867188 C 241.199219 102.257812 240.589844 102.585938 239.941406 102.851562 C 239.296875 103.121094 238.632812 103.320312 237.949219 103.457031 C 237.261719 103.59375 236.570312 103.664062 235.871094 103.664062 C 235.171875 103.664062 234.480469 103.59375 233.796875 103.457031 C 233.113281 103.320312 232.445312 103.121094 231.800781 102.851562 C 231.15625 102.585938 230.542969 102.257812 229.960938 101.867188 C 229.382812 101.480469 228.84375 101.039062 228.351562 100.542969 L 228.339844 100.53125 C 227.847656 100.039062 227.40625 99.5 227.015625 98.921875 C 226.628906 98.339844 226.300781 97.726562 226.03125 97.082031 C 225.765625 96.4375 225.5625 95.773438 225.425781 95.085938 C 225.289062 94.402344 225.21875 93.710938 225.21875 93.011719 C 225.21875 92.3125 225.289062 91.621094 225.425781 90.9375 C 225.5625 90.25 225.765625 89.585938 226.03125 88.941406 C 226.300781 88.292969 226.628906 87.683594 227.015625 87.101562 C 227.40625 86.519531 227.847656 85.984375 228.339844 85.488281 Z M 231.71875 97.175781 C 231.398438 96.855469 231.117188 96.503906 230.878906 96.121094 C 230.636719 95.734375 230.441406 95.328125 230.296875 94.902344 C 230.148438 94.472656 230.054688 94.03125 230.007812 93.582031 C 229.960938 93.132812 229.96875 92.679688 230.027344 92.230469 C 230.085938 91.78125 230.191406 91.34375 230.351562 90.921875 C 230.511719 90.496094 230.714844 90.097656 230.964844 89.71875 C 231.21875 89.339844 231.507812 88.996094 231.835938 88.6875 C 232.167969 88.375 232.527344 88.109375 232.921875 87.878906 C 233.3125 87.652344 233.726562 87.472656 234.160156 87.339844 C 234.59375 87.207031 235.035156 87.128906 235.488281 87.097656 C 235.9375 87.066406 236.390625 87.089844 236.835938 87.160156 C 237.28125 87.234375 237.714844 87.355469 238.136719 87.53125 C 238.554688 87.703125 238.949219 87.921875 239.316406 88.183594 C 239.683594 88.449219 240.019531 88.75 240.316406 89.089844 C 240.617188 89.429688 240.875 89.800781 241.085938 90.199219 C 241.300781 90.597656 241.46875 91.019531 241.585938 91.457031 C 241.703125 91.894531 241.769531 92.339844 241.785156 92.789062 C 241.800781 93.242188 241.761719 93.691406 241.675781 94.136719 C 241.585938 94.582031 241.449219 95.011719 241.261719 95.421875 C 241.074219 95.835938 240.84375 96.222656 240.570312 96.582031 C 240.292969 96.941406 239.980469 97.265625 239.628906 97.550781 C 239.28125 97.839844 238.902344 98.082031 238.496094 98.285156 C 238.089844 98.484375 237.664062 98.636719 237.222656 98.738281 C 236.78125 98.84375 236.335938 98.894531 235.882812 98.894531 C 235.101562 98.894531 234.347656 98.746094 233.625 98.449219 C 232.902344 98.152344 232.265625 97.726562 231.710938 97.175781 Z M 231.71875 97.175781 "/></g><g clip-rule="nonzero" clip-path="url(#9eb33dd804)"><path style=" stroke:none;fill-rule:nonzero;fill:#737373;fill-opacity:1;" d="M 313.417969 212.03125 L 310.238281 212.03125 L 300.582031 199.433594 L 300.582031 188.433594 L 303.972656 188.433594 C 304.261719 188.433594 304.542969 188.378906 304.816406 188.277344 C 305.085938 188.175781 305.332031 188.03125 305.546875 187.839844 C 305.765625 187.648438 305.941406 187.425781 306.078125 187.167969 C 306.214844 186.914062 306.304688 186.640625 306.34375 186.355469 L 312.554688 158.335938 C 312.59375 158.164062 312.613281 157.988281 312.613281 157.8125 C 312.609375 157.632812 312.589844 157.457031 312.550781 157.285156 C 312.507812 157.113281 312.449219 156.945312 312.371094 156.785156 C 312.292969 156.625 312.199219 156.476562 312.085938 156.339844 C 311.976562 156.199219 311.851562 156.074219 311.710938 155.964844 C 311.574219 155.855469 311.421875 155.761719 311.261719 155.683594 C 311.101562 155.609375 310.9375 155.550781 310.765625 155.511719 C 310.589844 155.472656 310.414062 155.449219 310.238281 155.449219 L 310.238281 155.441406 L 301.695312 155.441406 C 301.886719 153.839844 302.109375 152.246094 302.398438 150.691406 C 302.707031 149.019531 303.097656 147.375 303.527344 145.773438 C 304.902344 145.601562 306.128906 145.074219 307.199219 144.1875 C 309.011719 142.703125 310.292969 140.855469 311.042969 138.636719 C 311.679688 136.589844 311.925781 134.492188 311.785156 132.355469 C 311.640625 130.214844 311.117188 128.171875 310.214844 126.226562 C 301.945312 129.191406 296.808594 134.863281 297.277344 139.953125 C 297.449219 141.527344 298.035156 142.929688 299.03125 144.160156 C 298.542969 145.976562 298.089844 147.867188 297.730469 149.835938 C 297.558594 150.765625 297.421875 151.691406 297.285156 152.621094 C 296.40625 146.953125 294.90625 141.457031 292.78125 136.132812 C 293.773438 134.960938 294.316406 133.609375 294.414062 132.074219 C 294.582031 129.742188 294.128906 127.535156 293.066406 125.457031 C 292.117188 123.179688 290.664062 121.285156 288.714844 119.777344 C 286.488281 118.121094 283.984375 117.230469 281.210938 117.109375 C 280.226562 119.195312 279.675781 121.386719 279.550781 123.6875 C 279.429688 125.78125 279.6875 127.824219 280.316406 129.824219 C 280.628906 131.105469 281.140625 132.304688 281.855469 133.414062 C 282.570312 134.523438 283.449219 135.484375 284.488281 136.300781 C 285.660156 137.121094 286.953125 137.65625 288.363281 137.910156 C 290.609375 143.558594 292.09375 149.398438 292.808594 155.4375 L 286.15625 155.4375 C 285.84375 155.4375 285.539062 155.5 285.246094 155.621094 C 284.953125 155.742188 284.695312 155.914062 284.472656 156.136719 C 284.25 156.359375 284.078125 156.617188 283.957031 156.910156 C 283.835938 157.203125 283.773438 157.503906 283.773438 157.820312 C 283.773438 158.070312 283.808594 158.3125 283.882812 158.550781 L 290.097656 186.554688 C 290.15625 186.820312 290.253906 187.066406 290.398438 187.296875 C 290.539062 187.527344 290.71875 187.726562 290.925781 187.894531 C 291.136719 188.066406 291.371094 188.195312 291.625 188.285156 C 291.882812 188.375 292.144531 188.421875 292.414062 188.421875 L 292.414062 188.433594 L 295.808594 188.433594 L 295.808594 199.433594 L 286.152344 212.03125 L 276.578125 212.03125 C 275.234375 207.335938 273.886719 202.648438 272.542969 197.960938 C 273.410156 197.757812 274.21875 197.414062 274.972656 196.9375 C 275.726562 196.460938 276.378906 195.871094 276.933594 195.171875 C 277.484375 194.472656 277.910156 193.703125 278.203125 192.863281 C 278.496094 192.019531 278.644531 191.152344 278.644531 190.261719 L 278.644531 178.671875 C 278.644531 178.464844 278.574219 178.289062 278.433594 178.144531 L 278.421875 178.132812 C 278.273438 177.988281 278.101562 177.917969 277.894531 177.921875 L 271.859375 177.921875 C 271.65625 177.917969 271.480469 177.988281 271.332031 178.132812 L 271.320312 178.144531 C 271.179688 178.289062 271.109375 178.464844 271.109375 178.671875 L 271.109375 188.21875 C 271.109375 188.535156 271.050781 188.839844 270.929688 189.132812 C 270.808594 189.425781 270.636719 189.683594 270.414062 189.90625 C 270.1875 190.132812 269.929688 190.304688 269.636719 190.425781 C 269.347656 190.546875 269.042969 190.609375 268.726562 190.609375 L 203.023438 190.609375 C 202.703125 190.613281 202.398438 190.550781 202.105469 190.433594 C 201.808594 190.3125 201.550781 190.136719 201.324219 189.914062 C 201.101562 189.6875 200.929688 189.429688 200.808594 189.136719 C 200.6875 188.839844 200.625 188.535156 200.628906 188.21875 L 200.628906 178.671875 C 200.628906 178.46875 200.558594 178.292969 200.417969 178.144531 L 200.40625 178.132812 C 200.257812 177.992188 200.085938 177.921875 199.878906 177.921875 L 193.847656 177.921875 C 193.644531 177.921875 193.46875 177.992188 193.324219 178.132812 L 193.3125 178.144531 C 193.167969 178.292969 193.097656 178.46875 193.101562 178.671875 L 193.101562 190.265625 C 193.101562 190.710938 193.140625 191.15625 193.21875 191.59375 C 193.292969 192.035156 193.40625 192.464844 193.554688 192.882812 C 193.707031 193.304688 193.886719 193.710938 194.105469 194.097656 C 194.324219 194.488281 194.570312 194.859375 194.851562 195.207031 C 195.128906 195.554688 195.4375 195.875 195.769531 196.171875 C 196.101562 196.46875 196.457031 196.734375 196.835938 196.96875 C 197.214844 197.207031 197.609375 197.410156 198.023438 197.578125 C 198.4375 197.75 198.859375 197.882812 199.296875 197.980469 C 197.917969 202.664062 196.542969 207.347656 195.171875 212.03125 L 184.203125 212.03125 L 184.203125 137.683594 L 193.859375 137.683594 C 194.054688 137.683594 194.25 137.65625 194.441406 137.609375 C 194.632812 137.558594 194.816406 137.488281 194.992188 137.390625 C 195.164062 137.296875 195.324219 137.183594 195.46875 137.046875 C 195.613281 136.914062 195.742188 136.761719 195.847656 136.597656 C 195.957031 136.429688 196.042969 136.253906 196.105469 136.066406 C 196.167969 135.878906 196.210938 135.6875 196.222656 135.488281 C 196.238281 135.289062 196.230469 135.09375 196.199219 134.898438 C 196.164062 134.703125 196.109375 134.515625 196.027344 134.335938 L 189.847656 120.488281 C 189.683594 120.011719 189.390625 119.625 188.976562 119.332031 C 188.5625 119.035156 188.105469 118.886719 187.597656 118.886719 L 176.039062 118.886719 C 175.578125 118.890625 175.148438 119.015625 174.757812 119.265625 C 174.359375 119.519531 174.0625 119.867188 173.871094 120.300781 L 167.6875 134.144531 C 167.488281 134.503906 167.390625 134.890625 167.390625 135.300781 C 167.390625 135.617188 167.453125 135.921875 167.574219 136.214844 C 167.695312 136.507812 167.867188 136.765625 168.089844 136.992188 C 168.3125 137.214844 168.570312 137.386719 168.863281 137.507812 C 169.15625 137.632812 169.460938 137.691406 169.777344 137.695312 L 179.433594 137.695312 L 179.433594 212.03125 L 169.777344 212.03125 C 169.464844 212.035156 169.167969 212.101562 168.882812 212.226562 C 168.597656 212.351562 168.34375 212.527344 168.125 212.75 C 167.910156 212.972656 167.742188 213.226562 167.625 213.515625 C 167.507812 213.804688 167.449219 214.105469 167.449219 214.414062 C 167.449219 214.726562 167.507812 215.027344 167.625 215.316406 C 167.742188 215.605469 167.910156 215.859375 168.125 216.082031 C 168.34375 216.304688 168.597656 216.480469 168.882812 216.601562 C 169.167969 216.726562 169.464844 216.792969 169.777344 216.800781 L 313.417969 216.800781 C 313.738281 216.808594 314.046875 216.753906 314.347656 216.636719 C 314.648438 216.519531 314.910156 216.347656 315.140625 216.121094 C 315.371094 215.898438 315.550781 215.636719 315.671875 215.339844 C 315.796875 215.046875 315.859375 214.738281 315.859375 214.414062 C 315.859375 214.09375 315.796875 213.785156 315.671875 213.488281 C 315.550781 213.191406 315.371094 212.933594 315.140625 212.707031 C 314.910156 212.484375 314.648438 212.3125 314.347656 212.195312 C 314.046875 212.078125 313.738281 212.023438 313.417969 212.03125 Z M 200.132812 212.03125 C 201.535156 207.410156 202.9375 202.792969 204.335938 198.175781 L 267.570312 198.175781 C 268.917969 202.792969 270.265625 207.410156 271.617188 212.03125 Z M 295.8125 212.03125 L 292.152344 212.03125 L 295.8125 207.253906 Z M 300.578125 212.03125 L 300.578125 207.253906 L 304.238281 212.03125 Z M 233.492188 185.835938 L 205.40625 185.835938 L 205.40625 181.648438 L 233.492188 181.648438 Z M 238.261719 181.648438 L 266.339844 181.648438 L 266.339844 185.835938 L 238.261719 185.835938 Z M 266.339844 176.878906 L 238.261719 176.878906 L 238.261719 162.210938 C 238.261719 161.949219 238.3125 161.695312 238.414062 161.449219 C 238.515625 161.207031 238.660156 160.988281 238.847656 160.804688 C 239.035156 160.617188 239.25 160.472656 239.492188 160.371094 C 239.734375 160.269531 239.988281 160.214844 240.253906 160.214844 L 264.34375 160.214844 C 264.894531 160.214844 265.363281 160.40625 265.753906 160.792969 L 265.765625 160.804688 C 266.152344 161.195312 266.34375 161.664062 266.34375 162.214844 Z M 233.488281 176.878906 L 205.40625 176.878906 L 205.40625 162.207031 C 205.40625 161.65625 205.601562 161.1875 205.996094 160.800781 L 206.082031 160.710938 C 206.457031 160.378906 206.898438 160.210938 207.402344 160.210938 L 231.496094 160.210938 C 231.757812 160.214844 232.011719 160.265625 232.253906 160.367188 C 232.5 160.46875 232.714844 160.613281 232.898438 160.800781 C 233.085938 160.984375 233.230469 161.199219 233.332031 161.445312 C 233.433594 161.6875 233.484375 161.941406 233.488281 162.203125 Z M 245.550781 131.515625 L 204.136719 131.515625 L 204.136719 115.5 L 218.429688 107.832031 Z M 267.609375 131.515625 L 252.78125 131.515625 L 237.054688 117.78125 L 253.085938 107.707031 L 267.609375 115.5 Z M 220.410156 103.25 L 233.3125 114.511719 L 251.644531 102.996094 C 252.011719 102.742188 252.417969 102.605469 252.863281 102.582031 C 253.308594 102.558594 253.726562 102.652344 254.121094 102.863281 L 267.609375 110.097656 L 267.609375 78.253906 L 204.136719 78.253906 L 204.136719 110.097656 L 217.628906 102.863281 C 218.085938 102.617188 218.570312 102.53125 219.082031 102.601562 C 219.597656 102.671875 220.039062 102.886719 220.410156 103.25 Z M 228.339844 85.488281 L 228.351562 85.480469 C 228.84375 84.984375 229.382812 84.542969 229.960938 84.15625 C 230.542969 83.765625 231.15625 83.4375 231.800781 83.171875 C 232.445312 82.902344 233.113281 82.699219 233.796875 82.5625 C 234.480469 82.425781 235.171875 82.359375 235.871094 82.359375 C 236.570312 82.359375 237.261719 82.425781 237.949219 82.5625 C 238.632812 82.699219 239.296875 82.902344 239.945312 83.171875 C 240.589844 83.4375 241.203125 83.765625 241.78125 84.15625 C 242.363281 84.542969 242.898438 84.984375 243.390625 85.480469 L 243.402344 85.488281 C 243.898438 85.984375 244.339844 86.519531 244.730469 87.101562 C 245.117188 87.679688 245.445312 88.292969 245.714844 88.941406 C 245.980469 89.585938 246.183594 90.25 246.320312 90.933594 C 246.457031 91.621094 246.523438 92.3125 246.527344 93.011719 C 246.523438 93.710938 246.457031 94.402344 246.320312 95.085938 C 246.183594 95.773438 245.980469 96.4375 245.714844 97.082031 C 245.445312 97.726562 245.117188 98.339844 244.730469 98.921875 C 244.339844 99.503906 243.898438 100.039062 243.402344 100.53125 L 243.390625 100.542969 C 242.898438 101.039062 242.363281 101.480469 241.78125 101.867188 C 241.199219 102.257812 240.589844 102.585938 239.941406 102.851562 C 239.296875 103.121094 238.632812 103.320312 237.949219 103.457031 C 237.261719 103.59375 236.570312 103.664062 235.871094 103.664062 C 235.171875 103.664062 234.480469 103.59375 233.796875 103.457031 C 233.113281 103.320312 232.445312 103.121094 231.800781 102.851562 C 231.15625 102.585938 230.542969 102.257812 229.960938 101.867188 C 229.382812 101.480469 228.84375 101.039062 228.351562 100.542969 L 228.339844 100.53125 C 227.847656 100.039062 227.40625 99.5 227.015625 98.921875 C 226.628906 98.339844 226.300781 97.726562 226.03125 97.082031 C 225.765625 96.4375 225.5625 95.773438 225.425781 95.085938 C 225.289062 94.402344 225.21875 93.710938 225.21875 93.011719 C 225.21875 92.3125 225.289062 91.621094 225.425781 90.9375 C 225.5625 90.25 225.765625 89.585938 226.03125 88.941406 C 226.300781 88.292969 226.628906 87.683594 227.015625 87.101562 C 227.40625 86.519531 227.847656 85.984375 228.339844 85.488281 Z M 231.71875 97.175781 C 231.398438 96.855469 231.117188 96.503906 230.878906 96.121094 C 230.636719 95.734375 230.441406 95.328125 230.296875 94.902344 C 230.148438 94.472656 230.054688 94.03125 230.007812 93.582031 C 229.960938 93.132812 229.96875 92.679688 230.027344 92.230469 C 230.085938 91.78125 230.191406 91.34375 230.351562 90.921875 C 230.511719 90.496094 230.714844 90.097656 230.964844 89.71875 C 231.21875 89.339844 231.507812 88.996094 231.839844 88.6875 C 232.167969 88.375 232.527344 88.109375 232.921875 87.878906 C 233.3125 87.652344 233.726562 87.472656 234.160156 87.339844 C 234.59375 87.207031 235.035156 87.128906 235.488281 87.097656 C 235.9375 87.066406 236.390625 87.089844 236.835938 87.160156 C 237.28125 87.234375 237.714844 87.355469 238.136719 87.53125 C 238.554688 87.703125 238.949219 87.921875 239.316406 88.183594 C 239.683594 88.449219 240.019531 88.75 240.316406 89.089844 C 240.617188 89.429688 240.875 89.800781 241.085938 90.199219 C 241.300781 90.597656 241.46875 91.019531 241.585938 91.457031 C 241.703125 91.894531 241.769531 92.339844 241.785156 92.789062 C 241.800781 93.242188 241.761719 93.691406 241.675781 94.136719 C 241.585938 94.582031 241.449219 95.011719 241.261719 95.421875 C 241.074219 95.835938 240.84375 96.222656 240.570312 96.582031 C 240.292969 96.941406 239.980469 97.265625 239.628906 97.550781 C 239.28125 97.839844 238.902344 98.082031 238.496094 98.285156 C 238.089844 98.484375 237.664062 98.636719 237.222656 98.738281 C 236.78125 98.84375 236.335938 98.894531 235.882812 98.894531 C 235.101562 98.894531 234.347656 98.746094 233.625 98.449219 C 232.902344 98.152344 232.265625 97.726562 231.710938 97.175781 Z M 231.71875 97.175781 "/></g><g style="fill:#737373;fill-opacity:1;"><g transform="translate(157.98948, 243.457777)"><path style="stroke:none" d="M 1.957031 0 L 12.960938 0 C 13.355469 0 13.523438 -0.195312 13.597656 -0.5625 L 14.183594 -3.03125 C 14.234375 -3.300781 14.113281 -3.523438 13.890625 -3.523438 L 13.746094 -3.523438 C 12.890625 -3.523438 12.472656 -1.003906 11.175781 -1.003906 L 5.429688 -1.003906 C 4.816406 -1.003906 4.523438 -1.492188 4.523438 -2.054688 L 4.550781 -8.390625 L 9 -8.390625 C 9.929688 -8.390625 9.90625 -6.996094 10.417969 -6.996094 L 10.515625 -6.996094 C 10.710938 -6.996094 10.835938 -7.167969 10.835938 -7.410156 L 10.835938 -10.417969 C 10.835938 -10.6875 10.710938 -10.835938 10.515625 -10.835938 L 10.417969 -10.835938 C 9.90625 -10.835938 9.929688 -9.390625 9 -9.390625 L 4.550781 -9.390625 L 4.550781 -15.53125 C 4.550781 -16.117188 4.792969 -16.363281 5.234375 -16.363281 L 10.417969 -16.363281 C 11.691406 -16.363281 12.277344 -13.917969 13.035156 -13.917969 L 13.15625 -13.917969 C 13.402344 -13.917969 13.523438 -14.0625 13.453125 -14.40625 L 12.863281 -16.828125 C 12.792969 -17.167969 12.644531 -17.363281 12.253906 -17.363281 L 1.882812 -17.363281 C 1.613281 -17.363281 1.441406 -17.265625 1.441406 -17.097656 L 1.441406 -17.023438 C 1.441406 -16.582031 2.347656 -16.558594 2.347656 -15.628906 L 2.347656 -1.738281 C 2.347656 -0.808594 1.441406 -0.808594 1.441406 -0.34375 L 1.441406 -0.292969 C 1.441406 -0.0976562 1.664062 0 1.957031 0 Z M 1.957031 0 "/></g></g><g style="fill:#737373;fill-opacity:1;"><g transform="translate(176.21091, 243.457777)"><path style="stroke:none" d="M 10.34375 -9.316406 C 12.375 -9.78125 13.648438 -11.152344 13.648438 -13.035156 C 13.648438 -15.554688 11.273438 -17.363281 7.289062 -17.363281 L 1.957031 -17.363281 C 1.664062 -17.363281 1.46875 -17.265625 1.46875 -17.070312 L 1.46875 -17.023438 C 1.46875 -16.558594 2.347656 -16.507812 2.347656 -15.652344 L 2.347656 -1.710938 C 2.347656 -0.855469 1.46875 -0.808594 1.46875 -0.367188 L 1.46875 -0.292969 C 1.46875 -0.0976562 1.664062 0 1.957031 0 L 8.65625 0 C 12.546875 0 15.335938 -1.710938 15.335938 -4.769531 C 15.335938 -7.191406 13.574219 -8.902344 10.34375 -9.316406 Z M 4.574219 -15.53125 C 4.574219 -16.117188 4.867188 -16.335938 5.308594 -16.335938 L 7.238281 -16.363281 C 9.90625 -16.363281 11.640625 -14.992188 11.640625 -12.667969 C 11.640625 -10.957031 10.222656 -9.710938 8.046875 -9.710938 L 5.503906 -9.710938 C 4.941406 -9.710938 4.550781 -10.078125 4.550781 -10.640625 Z M 8.460938 -1.003906 L 5.601562 -1.003906 C 4.988281 -1.003906 4.574219 -1.46875 4.574219 -2.175781 L 4.574219 -8.707031 L 7.460938 -8.707031 C 11.128906 -8.707031 13.058594 -6.75 13.058594 -4.402344 C 13.058594 -2.101562 11.273438 -1.003906 8.460938 -1.003906 Z M 8.460938 -1.003906 "/></g></g><g style="fill:#737373;fill-opacity:1;"><g transform="translate(195.899771, 243.457777)"><path style="stroke:none" d="M 1.710938 -7.191406 L 9.488281 -7.191406 C 9.710938 -7.191406 9.832031 -7.335938 9.832031 -7.558594 L 9.832031 -8.070312 C 9.832031 -8.265625 9.710938 -8.390625 9.488281 -8.390625 L 1.710938 -8.390625 C 1.492188 -8.390625 1.371094 -8.265625 1.371094 -8.070312 L 1.371094 -7.558594 C 1.371094 -7.335938 1.492188 -7.191406 1.710938 -7.191406 Z M 1.710938 -7.191406 "/></g></g><g style="fill:#737373;fill-opacity:1;"><g transform="translate(210.648297, 243.457777)"><path style="stroke:none" d="M 16.535156 -17.363281 L 14.308594 -17.363281 C 13.988281 -17.363281 13.792969 -17.242188 13.792969 -17.046875 L 13.792969 -16.996094 C 13.792969 -16.558594 14.796875 -16.535156 14.796875 -15.652344 L 14.796875 -2.835938 L 4.648438 -16.875 C 4.425781 -17.195312 4.15625 -17.363281 3.765625 -17.363281 L 1.90625 -17.363281 C 1.589844 -17.363281 1.417969 -17.242188 1.417969 -17.046875 L 1.417969 -16.949219 C 1.417969 -16.484375 2.347656 -16.484375 2.347656 -15.628906 L 2.347656 -1.785156 C 2.347656 -0.878906 1.417969 -0.808594 1.417969 -0.34375 L 1.417969 -0.292969 C 1.417969 -0.0976562 1.589844 0 1.90625 0 L 4.132812 0 C 4.425781 0 4.648438 -0.0976562 4.648438 -0.292969 L 4.648438 -0.34375 C 4.648438 -0.808594 3.59375 -0.878906 3.59375 -1.785156 L 3.59375 -14.871094 L 14.039062 -0.636719 C 14.355469 -0.148438 14.578125 0 14.820312 0 L 15.433594 0 C 15.824219 0 16.042969 -0.246094 16.042969 -0.660156 L 16.042969 -15.652344 C 16.042969 -16.535156 17.023438 -16.558594 17.023438 -16.996094 L 17.023438 -17.046875 C 17.023438 -17.242188 16.828125 -17.363281 16.535156 -17.363281 Z M 16.535156 -17.363281 "/></g></g><g style="fill:#737373;fill-opacity:1;"><g transform="translate(232.538292, 243.457777)"><path style="stroke:none" d="M 1.46875 -0.292969 C 1.46875 -0.0976562 1.664062 0 1.957031 0 L 5.015625 0 C 5.308594 0 5.503906 -0.0976562 5.503906 -0.292969 L 5.503906 -0.34375 C 5.503906 -0.78125 4.574219 -0.808594 4.574219 -1.6875 L 4.574219 -15.652344 C 4.574219 -16.535156 5.503906 -16.558594 5.503906 -17.023438 L 5.503906 -17.070312 C 5.503906 -17.265625 5.308594 -17.363281 5.015625 -17.363281 L 1.957031 -17.363281 C 1.664062 -17.363281 1.46875 -17.265625 1.46875 -17.070312 L 1.46875 -17.023438 C 1.46875 -16.558594 2.347656 -16.535156 2.347656 -15.652344 L 2.347656 -1.6875 C 2.347656 -0.808594 1.46875 -0.78125 1.46875 -0.34375 Z M 1.46875 -0.292969 "/></g></g><g style="fill:#737373;fill-opacity:1;"><g transform="translate(243.031287, 243.457777)"><path style="stroke:none" d="M 5.820312 0 L 8.878906 0 C 9.195312 0 9.390625 -0.0976562 9.390625 -0.292969 L 9.390625 -0.34375 C 9.390625 -0.808594 8.4375 -0.832031 8.4375 -1.710938 L 8.4375 -16.3125 L 11.8125 -16.3125 C 13.035156 -16.3125 13.355469 -13.671875 14.0625 -13.671875 L 14.308594 -13.671875 C 14.527344 -13.671875 14.675781 -13.820312 14.601562 -14.136719 L 14.0625 -16.828125 C 13.988281 -17.167969 13.820312 -17.363281 13.425781 -17.363281 L 1.273438 -17.363281 C 0.878906 -17.363281 0.710938 -17.167969 0.660156 -16.828125 L 0.269531 -14.160156 C 0.21875 -13.820312 0.34375 -13.671875 0.585938 -13.671875 L 0.808594 -13.671875 C 1.515625 -13.671875 1.664062 -16.3125 2.910156 -16.3125 L 6.238281 -16.3125 L 6.238281 -1.710938 C 6.238281 -0.832031 5.332031 -0.808594 5.332031 -0.34375 L 5.332031 -0.292969 C 5.332031 -0.0976562 5.527344 0 5.820312 0 Z M 5.820312 0 "/></g></g><g style="fill:#737373;fill-opacity:1;"><g transform="translate(261.448377, 243.457777)"><path style="stroke:none" d="M 8.976562 0.246094 C 12.816406 0.246094 15.507812 -2.496094 15.507812 -6.726562 L 15.507812 -15.652344 C 15.507812 -16.507812 16.507812 -16.558594 16.507812 -16.996094 L 16.507812 -17.070312 C 16.507812 -17.265625 16.289062 -17.363281 15.996094 -17.363281 L 13.84375 -17.363281 C 13.550781 -17.363281 13.328125 -17.265625 13.328125 -17.070312 L 13.328125 -16.996094 C 13.328125 -16.558594 14.257812 -16.507812 14.257812 -15.652344 L 14.257812 -6.75 C 14.257812 -2.863281 11.960938 -0.808594 9.390625 -0.808594 C 6.335938 -0.808594 4.304688 -3.128906 4.304688 -6.75 L 4.304688 -15.652344 C 4.304688 -16.507812 5.234375 -16.558594 5.234375 -16.996094 L 5.234375 -17.070312 C 5.234375 -17.265625 5.039062 -17.363281 4.746094 -17.363281 L 1.664062 -17.363281 C 1.371094 -17.363281 1.175781 -17.265625 1.175781 -17.070312 L 1.175781 -16.996094 C 1.175781 -16.558594 2.054688 -16.507812 2.054688 -15.652344 L 2.054688 -6.75 C 2.054688 -2.496094 4.890625 0.246094 8.976562 0.246094 Z M 8.976562 0.246094 "/></g></g><g style="fill:#737373;fill-opacity:1;"><g transform="translate(282.5802, 243.457777)"><path style="stroke:none" d="M 14.136719 -1.710938 L 10.222656 -7.117188 C 12.914062 -7.875 14.355469 -9.757812 14.355469 -11.984375 C 14.332031 -15.675781 11.152344 -17.363281 6.96875 -17.363281 L 1.957031 -17.363281 C 1.664062 -17.363281 1.46875 -17.265625 1.46875 -17.070312 L 1.46875 -17.023438 C 1.46875 -16.558594 2.347656 -16.535156 2.347656 -15.652344 L 2.347656 -1.710938 C 2.347656 -0.832031 1.46875 -0.808594 1.46875 -0.34375 L 1.46875 -0.292969 C 1.46875 -0.0976562 1.664062 0 1.957031 0 L 5.039062 0 C 5.332031 0 5.527344 -0.0976562 5.527344 -0.292969 L 5.527344 -0.34375 C 5.527344 -0.808594 4.574219 -0.832031 4.574219 -1.710938 L 4.574219 -6.703125 L 7.507812 -6.75 C 7.730469 -6.75 7.925781 -6.75 8.121094 -6.773438 L 11.789062 -1.710938 C 12.351562 -0.808594 11.300781 -0.808594 11.300781 -0.34375 L 11.300781 -0.292969 C 11.300781 -0.0976562 11.496094 0 11.789062 0 L 15.1875 0 C 15.480469 0 15.675781 -0.0976562 15.675781 -0.292969 L 15.675781 -0.34375 C 15.675781 -0.808594 14.796875 -0.78125 14.136719 -1.710938 Z M 7.289062 -7.730469 L 5.601562 -7.730469 C 4.941406 -7.730469 4.574219 -8.070312 4.574219 -8.878906 L 4.574219 -15.53125 C 4.574219 -16.042969 4.769531 -16.363281 5.210938 -16.363281 L 6.847656 -16.363281 C 9.585938 -16.363281 12.082031 -14.894531 12.082031 -11.667969 C 12.082031 -9.195312 10.125 -7.730469 7.289062 -7.730469 Z M 7.289062 -7.730469 "/></g></g><g style="fill:#737373;fill-opacity:1;"><g transform="translate(301.975577, 243.457777)"><path style="stroke:none" d="M 1.957031 0 L 12.960938 0 C 13.355469 0 13.523438 -0.195312 13.597656 -0.5625 L 14.183594 -3.03125 C 14.234375 -3.300781 14.113281 -3.523438 13.890625 -3.523438 L 13.746094 -3.523438 C 12.890625 -3.523438 12.472656 -1.003906 11.175781 -1.003906 L 5.429688 -1.003906 C 4.816406 -1.003906 4.523438 -1.492188 4.523438 -2.054688 L 4.550781 -8.390625 L 9 -8.390625 C 9.929688 -8.390625 9.90625 -6.996094 10.417969 -6.996094 L 10.515625 -6.996094 C 10.710938 -6.996094 10.835938 -7.167969 10.835938 -7.410156 L 10.835938 -10.417969 C 10.835938 -10.6875 10.710938 -10.835938 10.515625 -10.835938 L 10.417969 -10.835938 C 9.90625 -10.835938 9.929688 -9.390625 9 -9.390625 L 4.550781 -9.390625 L 4.550781 -15.53125 C 4.550781 -16.117188 4.792969 -16.363281 5.234375 -16.363281 L 10.417969 -16.363281 C 11.691406 -16.363281 12.277344 -13.917969 13.035156 -13.917969 L 13.15625 -13.917969 C 13.402344 -13.917969 13.523438 -14.0625 13.453125 -14.40625 L 12.863281 -16.828125 C 12.792969 -17.167969 12.644531 -17.363281 12.253906 -17.363281 L 1.882812 -17.363281 C 1.613281 -17.363281 1.441406 -17.265625 1.441406 -17.097656 L 1.441406 -17.023438 C 1.441406 -16.582031 2.347656 -16.558594 2.347656 -15.628906 L 2.347656 -1.738281 C 2.347656 -0.808594 1.441406 -0.808594 1.441406 -0.34375 L 1.441406 -0.292969 C 1.441406 -0.0976562 1.664062 0 1.957031 0 Z M 1.957031 0 "/></g></g><g style="fill:#ffbd59;fill-opacity:1;"><g transform="translate(93.299785, 243.88869)"><path style="stroke:none" d="M 67.765625 -44.390625 L 55.109375 0 L 42.453125 0 L 34.515625 -27.734375 L 26.59375 0 L 13.875 0 L 1.21875 -44.390625 L 13.875 -44.390625 L 21.796875 -16.65625 L 29.734375 -44.390625 L 42.453125 -44.390625 L 50.390625 -16.65625 L 58.265625 -44.390625 Z M 67.765625 -44.390625 "/></g></g></g></svg>