<?xml version="1.0" encoding="UTF-8"?>
<svg id="Layer_1" data-name="Layer 1" xmlns="http://www.w3.org/2000/svg" viewBox="0 0 465.77 280.09">
  <defs>
    <style>
      .cls-1 {
        fill: #231f20;
      }

      .cls-2 {
        fill: #eee824;
      }
    </style>
  </defs>
  <g>
    <path class="cls-1" d="M11,280.09c-6.08,0-11-4.92-11-11v-22.56c0-4.75,3.05-8.96,7.56-10.45l.94-.31V55.18l-.63-.19c-4.67-1.39-7.86-5.68-7.86-10.54v-22.79c0-6.08,4.92-11,11-11h149.33l.31-1.68c.97-5.21,5.52-8.98,10.81-8.98h22.56c6.08,0,11,4.92,11,11v62.99c0,6.08-4.92,11-11,11h-22.56c-5.3,0-9.85-3.78-10.82-8.99l-.31-1.67h-88.99v35.64h49.58l.32-1.7c.98-5.2,5.52-8.96,10.81-8.96h22.54c6.08,0,11,4.92,11,11v62.99c0,6.08-4.92,11-11,11h-22.54c-5.29,0-9.83-3.76-10.81-8.96l-.32-1.7h-49.58v62.1l.86.28c4.55,1.46,7.64,5.69,7.64,10.47v22.62c0,6.08-4.92,11-11,11H11Z"/>
    <path class="cls-1" d="M11,269.09v-22.56l6.87-2.26c.61-.2,1.04-.38,1.33-.52.13-.72.29-2.06.29-4.31V51.32c0-2.27-.17-3.64-.3-4.38-.25-.11-.59-.23-1.04-.37l-7.15-2.13v-22.79h157.35c.39,0,.73-.01,1.01-.03.17-.57.38-1.37.58-2.47l1.52-8.17h22.56v62.99h-22.56l-1.52-8.18c-.2-1.09-.4-1.89-.57-2.46-.28-.02-.62-.03-1.01-.03H60.34v57.64h68.59c.39,0,.72-.01,1-.03.18-.57.38-1.37.59-2.49l1.54-8.15h22.54v62.99h-22.54l-1.54-8.15c-.21-1.11-.42-1.92-.59-2.49-.28-.02-.6-.03-1-.03H60.34v76.81c0,2.22.15,3.57.28,4.33.3.13.71.3,1.27.48l6.94,2.23v22.62H11Z"/>
    <path class="cls-1" d="M21,270.09c-6.08,0-11-4.92-11-11v-5.33c0-4.75,3.05-8.96,7.56-10.45.29-.1.54-.19.74-.27.1-.73.2-1.89.2-3.61V51.32c0-1.73-.1-2.9-.2-3.65-.13-.04-.27-.09-.43-.14-4.67-1.39-7.86-5.68-7.86-10.54v-5.33c0-6.08,4.92-11,11-11,0,0,147.51,0,147.59,0,.11-.45.24-1,.37-1.68.97-5.21,5.52-8.98,10.81-8.98h4.25c6.08,0,11,4.92,11,11v42.99c0,6.08-4.92,11-11,11h-4.25c-5.3,0-9.85-3.78-10.82-8.99-.12-.67-.25-1.22-.36-1.67-.08,0-107.25,0-107.25,0v55.64s67.74,0,67.82,0c.12-.45.25-1.01.38-1.7.98-5.2,5.52-8.96,10.81-8.96h4.25c6.08,0,11,4.92,11,11v42.99c0,6.08-4.92,11-11,11h-4.25c-5.29,0-9.83-3.76-10.81-8.96-.13-.69-.26-1.25-.38-1.7-.07,0-67.82,0-67.82,0v75.81c0,1.71.09,2.87.19,3.62.19.07.41.15.67.23,4.55,1.46,7.64,5.69,7.64,10.47v5.33c0,6.08-4.92,11-11,11H21Z"/>
    <path class="cls-1" d="M50.34,53.32v77.64h78.59c3.72,0,6.35-.72,7.9-2.17,1.55-1.44,2.72-4.28,3.52-8.5h4.25v42.99h-4.25c-.8-4.22-1.97-7.05-3.52-8.5-1.55-1.44-4.18-2.17-7.9-2.17H50.34v86.81c0,4.67.55,7.94,1.66,9.83,1.11,1.89,3.38,3.39,6.84,4.5v5.33H21v-5.33c3.36-1.11,5.62-2.61,6.77-4.5,1.15-1.89,1.73-5.17,1.73-9.83V51.32c0-4.67-.58-7.97-1.73-9.91-1.15-1.94-3.41-3.42-6.77-4.42v-5.33h147.35c3.72,0,6.35-.71,7.9-2.13,1.55-1.42,2.72-4.26,3.52-8.53h4.25v42.99h-4.25c-.8-4.29-1.97-7.14-3.52-8.55-1.55-1.41-4.18-2.12-7.9-2.12H50.34Z"/>
    <path class="cls-1" d="M82.68,276.98c-13.47,0-24.89-6.13-32.14-17.25-5.69-8.72-8.46-19.74-8.46-33.69v-59.55c0-6.08,4.92-11,11-11h60.64c6.08,0,11,4.92,11,11v60.29c0,13.33-3.27,24.61-9.72,33.55-7.75,10.74-19.23,16.66-32.32,16.66Z"/>
    <path class="cls-1" d="M82.68,265.98c-9.77,0-17.7-4.24-22.93-12.26-4.49-6.87-6.67-15.93-6.67-27.68v-59.55h60.64v60.29c0,10.97-2.57,20.09-7.64,27.1-5.71,7.92-13.81,12.1-23.4,12.1Z"/>
    <path class="cls-1" d="M82.68,266.98c-10.12,0-18.34-4.4-23.77-12.72-4.6-7.04-6.83-16.27-6.83-28.23v-49.55c0-6.08,4.92-11,11-11h16.72c1.26,0,2.47.21,3.6.6,1.13-.39,2.34-.6,3.6-.6h16.72c6.08,0,11,4.92,11,11v50.29c0,11.18-2.63,20.5-7.83,27.69-5.91,8.19-14.28,12.52-24.22,12.52ZM90.87,227.23s0,0,0,0Z"/>
    <path class="cls-1" d="M103.72,176.48v50.29c0,8.86-1.92,15.95-5.74,21.25-3.83,5.31-8.93,7.96-15.3,7.96s-11.19-2.58-14.56-7.73c-3.36-5.15-5.04-12.56-5.04-22.22v-49.55h16.72v49.49c0,4.74,1.22,7.1,3.67,7.1s3.54-2.37,3.54-7.1v-49.49h16.72Z"/>
    <path class="cls-1" d="M143.24,276.98c-4.47,0-8.5-2.71-10.19-6.85l-6.7-16.44h-22.46c-6.08,0-11-4.92-11-11v-76.21c0-6.08,4.92-11,11-11h31.46c11.85,0,21.69,3.45,29.25,10.25,8.48,7.67,12.96,17.83,12.96,29.4,0,6.36-1.52,12.46-4.45,17.94l19.35,48.84c1.34,3.39.92,7.22-1.13,10.23-2.05,3.01-5.46,4.82-9.1,4.82h-38.98Z"/>
    <path class="cls-1" d="M143.24,265.98l-9.49-23.28h-29.86v-76.21h31.46c9.05,0,16.41,2.5,21.89,7.43,6.1,5.52,9.32,12.85,9.32,21.23,0,6.22-1.97,11.91-5.75,16.75l21.42,54.09h-38.98Z"/>
    <path class="cls-1" d="M149.97,266.98c-4.47,0-8.5-2.71-10.19-6.85l-6.81-16.69c-.76.17-1.55.25-2.36.25h-16.72c-6.08,0-11-4.92-11-11v-56.21c0-6.08,4.92-11,11-11h21.46c9.3,0,16.89,2.59,22.56,7.68,6.32,5.71,9.65,13.31,9.65,21.97,0,6.26-1.92,11.99-5.62,16.91l15.8,39.87c1.34,3.39.92,7.22-1.13,10.23-2.05,3.01-5.46,4.82-9.1,4.82h-17.54Z"/>
    <path class="cls-1" d="M130.61,191.6v41.1h-16.72v-56.21h21.46c6.53,0,11.6,1.62,15.2,4.86,4.01,3.62,6.01,8.22,6.01,13.79s-2.48,10.47-7.45,14.37l18.41,46.47h-17.54l-16.88-41.4v-14.45h1.32c3.51,0,5.27-1.51,5.27-4.53,0-2.66-2.03-3.99-6.09-3.99h-2.96Z"/>
    <path class="cls-1" d="M153.18,253.69c-6.08,0-11-4.92-11-11v-46.48c0-11.95,4.1-22.39,11.87-30.18,7.78-7.81,18.22-11.94,30.17-11.94,15.59,0,25,6.82,30.16,12.54,6.93,7.7,10.44,17.84,10.44,30.16v45.91c0,6.08-4.92,11-11,11h-60.64Z"/>
    <path class="cls-1" d="M153.18,242.69v-46.48c0-9.11,2.91-16.65,8.66-22.42,5.76-5.78,13.29-8.71,22.38-8.71,11.54,0,18.33,4.84,21.99,8.91,5.05,5.61,7.61,13.28,7.61,22.8v45.91h-60.64Z"/>
    <path class="cls-1" d="M187.11,243.69c-1.26,0-2.47-.21-3.6-.6-1.13.39-2.34.6-3.6.6h-16.72c-6.08,0-11-4.92-11-11v-36.48c0-9.25,3.1-17.25,8.95-23.12,5.87-5.89,13.85-9,23.09-9,11.91,0,18.93,5.02,22.73,9.24,5.22,5.8,7.87,13.7,7.87,23.46v35.91c0,6.08-4.92,11-11,11h-16.72Z"/>
    <path class="cls-1" d="M163.18,232.69v-36.48c0-6.4,1.92-11.52,5.75-15.36,3.83-3.84,8.93-5.77,15.3-5.77s11.19,1.87,14.56,5.6c3.36,3.73,5.04,9.1,5.04,16.1v35.91h-16.72v-35.91c0-3.43-1.22-5.15-3.67-5.15s-3.54,1.72-3.54,5.15v35.91h-16.72Z"/>
    <rect class="cls-1" x="193" y="155.48" width="58.72" height="121.49" rx="11" ry="11" transform="translate(444.72 432.46) rotate(180)"/>
    <rect class="cls-1" x="204" y="166.48" width="36.72" height="99.49" transform="translate(444.72 432.46) rotate(180)"/>
    <rect class="cls-1" x="203" y="165.48" width="38.72" height="101.49" rx="11" ry="11" transform="translate(444.72 432.46) rotate(180)"/>
    <rect class="cls-1" x="214" y="176.48" width="16.72" height="79.49"/>
    <path class="cls-1" d="M239.7,276.98c-6.08,0-11-4.92-11-11v-52.35h-1.81c-6.08,0-11-4.92-11-11v-36.14c0-6.08,4.92-11,11-11h62.29c6.08,0,11,4.92,11,11v36.14c0,6.08-4.92,11-11,11h-1.77v52.35c0,6.08-4.92,11-11,11h-36.72Z"/>
    <polygon class="cls-1" points="239.7 265.98 239.7 202.63 226.9 202.63 226.9 166.48 289.19 166.48 289.19 202.63 276.42 202.63 276.42 265.98 239.7 265.98"/>
    <path class="cls-1" d="M249.7,266.98c-6.08,0-11-4.92-11-11v-52.35h-1.81c-6.08,0-11-4.92-11-11v-16.14c0-6.08,4.92-11,11-11h42.29c6.08,0,11,4.92,11,11v16.14c0,6.08-4.92,11-11,11h-1.77v52.35c0,6.08-4.92,11-11,11h-16.72Z"/>
    <polygon class="cls-1" points="266.42 192.63 266.42 255.98 249.7 255.98 249.7 192.63 236.9 192.63 236.9 176.48 279.19 176.48 279.19 192.63 266.42 192.63"/>
    <path class="cls-1" d="M303.81,276.98c-15.59,0-25.01-6.82-30.16-12.55-6.93-7.69-10.44-17.83-10.44-30.15v-67.79c0-6.08,4.92-11,11-11h60.64c6.08,0,11,4.92,11,11v68.33c0,11.98-4.1,22.43-11.87,30.22-7.78,7.81-18.22,11.94-30.17,11.94Z"/>
    <path class="cls-1" d="M303.81,265.98c-11.54,0-18.33-4.85-21.99-8.91-5.05-5.61-7.61-13.28-7.61-22.79v-67.79h60.64v68.33c0,9.14-2.91,16.69-8.66,22.46-5.76,5.78-13.29,8.71-22.38,8.71Z"/>
    <path class="cls-1" d="M303.81,266.98c-11.91,0-18.94-5.02-22.73-9.24-5.22-5.8-7.87-13.69-7.87-23.46v-57.79c0-6.08,4.92-11,11-11h16.72c1.26,0,2.47.21,3.6.6,1.13-.39,2.34-.6,3.6-.6h16.72c6.08,0,11,4.92,11,11v58.33c0,9.28-3.1,17.29-8.95,23.16-5.87,5.89-13.85,9-23.09,9Z"/>
    <path class="cls-1" d="M324.86,176.48v58.33c0,6.42-1.92,11.56-5.74,15.4-3.83,3.84-8.93,5.77-15.3,5.77s-11.19-1.87-14.56-5.6c-3.36-3.73-5.04-9.1-5.04-16.1v-57.79h16.72v57.75c0,3.43,1.22,5.15,3.67,5.15s3.54-1.71,3.54-5.15v-57.75h16.72Z"/>
    <path class="cls-1" d="M325.03,253.69c-6.08,0-11-4.92-11-11v-76.21c0-6.08,4.92-11,11-11h31.46c11.85,0,21.69,3.45,29.25,10.25,8.48,7.67,12.96,17.83,12.96,29.4,0,6.27-1.48,12.29-4.33,17.71l10.65,25.63c1.41,3.39,1.03,7.27-1.01,10.33-2.04,3.06-5.47,4.89-9.15,4.89h-69.83Z"/>
    <path class="cls-1" d="M325.03,242.69v-76.21h31.46c9.05,0,16.41,2.5,21.89,7.43,6.1,5.52,9.32,12.85,9.32,21.23,0,6.18-1.94,11.83-5.68,16.65l12.84,30.9h-69.83Z"/>
    <path class="cls-1" d="M362.33,243.69c-1.89,0-3.7-.48-5.29-1.35-1.57.86-3.38,1.35-5.29,1.35h-16.72c-6.08,0-11-4.92-11-11v-56.21c0-6.08,4.92-11,11-11h21.46c9.3,0,16.89,2.59,22.56,7.69,6.32,5.71,9.65,13.3,9.65,21.97,0,6.22-1.89,11.91-5.53,16.8l6.87,16.53c1.41,3.39,1.03,7.27-1.01,10.33-2.04,3.06-5.47,4.89-9.15,4.89h-17.54Z"/>
    <path class="cls-1" d="M351.75,191.6v41.1h-16.72v-56.21h21.46c6.53,0,11.6,1.62,15.2,4.86,4.01,3.62,6.01,8.22,6.01,13.79s-2.48,10.47-7.45,14.37l9.64,23.18h-17.54l-8.11-18.12v-14.45h1.32c3.51,0,5.27-1.51,5.27-4.53,0-2.66-2.03-3.99-6.09-3.99h-2.96Z"/>
    <path class="cls-1" d="M435.84,276.97c-7.93-.09-21.34-.15-27.97-.15l-15.43.07s-19.92.16-19.95.16c-2.99,0-5.86-1.22-7.94-3.38-2.09-2.18-3.2-5.13-3.05-8.15l1.87-38.44.98-32.21.6-29.16v-19.88c0-2.94,1.18-5.76,3.27-7.83,2.06-2.03,4.84-3.17,7.73-3.17.05,0,10.27.13,10.27.13,7.56.1,15.65.14,24.04.14l8.89-.07s35.59-.1,35.6-.1c2.98,0,5.83,1.21,7.91,3.35,2.08,2.15,3.19,5.05,3.09,8.04l-1.29,36.08c-.21,5.93-5.08,10.61-10.99,10.61-.09,0-4.47-.1-4.47-.1l-.31,5.49c-.24,4.24-.45,9.43-.64,15.42l-.14,4.69c2.73.14,5.32,1.3,7.26,3.27,2.17,2.21,3.32,5.23,3.14,8.33l-.61,10.98c-.3,5.45-.52,10.63-.63,15.4l-.25,9.87c-.15,5.97-5.04,10.73-10.99,10.73-.04,0-10-.12-10-.12Z"/>
    <path class="cls-1" d="M435.97,265.97c-7.97-.1-21.44-.15-28.1-.15l-15.48.07-19.89.16,1.88-38.54.99-32.37.61-29.33v-19.99l10.13.13c7.62.1,15.75.15,24.18.15l8.98-.07,35.51-.1-1.29,36.08-26.06-.6-.28-.02c-1.04-.08-2.56-.15-4.54-.19-2.12-.05-4.29-.07-6.43-.07-2.81,0-4.83,0-6.28.01l-.19,6.5c.91,0,1.83,0,2.74,0,2.87,0,7.88-.15,14.89-.43l11.02-.45-.62,11.01c-.25,4.32-.46,9.61-.65,15.71l-.3,9.87-9.87-.17c-10.34-.18-13.46-.22-14.26-.22-1.26,0-2.64.02-4.14.05l-.22,7.8c1.35-.02,3.01-.05,5.06-.09l10.13-.29,23.87-.95-.61,10.98c-.31,5.56-.53,10.85-.65,15.74l-.25,9.87-9.87-.12Z"/>
    <path class="cls-1" d="M435.96,266.97c-7.96-.09-21.43-.15-28.09-.15l-15.47.07s-9.37.07-9.4.07c-2.99,0-5.86-1.22-7.94-3.38-2.09-2.18-3.2-5.13-3.05-8.15l1.36-27.96.99-32.3.61-29.36v-9.85c0-2.94,1.18-5.76,3.27-7.83,2.06-2.03,4.84-3.17,7.73-3.17.05,0,.09,0,.14,0,7.61.1,15.74.15,24.17.15l8.97-.07s25.14-.07,25.16-.07c2.98,0,5.83,1.21,7.91,3.35,2.08,2.15,3.19,5.05,3.09,8.04l-.57,15.83c-.21,5.93-5.08,10.61-10.99,10.61-.09,0-16.17-.37-16.17-.37-.21,0-.41-.02-.61-.03-.7-.06-2.04-.13-4.48-.19-2.12-.05-4.27-.07-6.4-.07s-3.96,0-5.31,0l-.13,4.51c.57,0,1.14,0,1.71,0,2.86,0,7.85-.14,14.85-.43.15,0,.3,0,.45,0,2.94,0,5.77,1.18,7.84,3.28,2.18,2.21,3.32,5.24,3.14,8.34-.25,4.31-.46,9.59-.65,15.68-.18,5.95-5.06,10.67-10.99,10.67-.07,0-.13,0-.2,0-10.33-.18-13.45-.22-14.25-.22-.98,0-2.04.01-3.16.03l-.16,5.81c1.14-.02,2.46-.04,4.01-.07l10.12-.29,12.87-.51c.15,0,.29,0,.44,0,2.94,0,5.77,1.18,7.84,3.28,2.17,2.21,3.32,5.23,3.14,8.33-.31,5.55-.53,10.83-.65,15.71-.15,5.97-5.04,10.73-10.99,10.73-.04,0-.09,0-.13,0Z"/>
    <path class="cls-1" d="M383,255.98l1.37-28.06.99-32.46.61-29.53v-9.96c7.77.1,15.87.15,24.3.15l9.06-.07,25.07-.07-.57,15.83-15.91-.37c-1.23-.1-2.93-.17-5.1-.22-2.17-.05-4.39-.07-6.65-.07-4.91,0-8.08.01-9.51.04-1.43.03-3.59.11-6.49.26l-.77,26.01c4.31.15,8.66.22,13.03.22,3.02,0,8.12-.15,15.3-.44-.25,4.44-.47,9.77-.66,15.97-8.4-.15-13.21-.22-14.44-.22-3.71,0-8.34.15-13.87.44l-.77,27.4,5.19.07c1.51,0,4.97-.05,10.38-.15l10.24-.29,12.93-.51c-.31,5.67-.54,11.01-.66,16.04-8.18-.1-21.65-.15-28.22-.15l-15.53.07-9.34.07Z"/>
  </g>
  <path class="cls-2" d="M50.34,53.32v77.64h78.59c3.72,0,6.35-.72,7.9-2.17,1.55-1.44,2.72-4.28,3.52-8.5h4.25v42.99h-4.25c-.8-4.22-1.97-7.05-3.52-8.5-1.55-1.44-4.18-2.17-7.9-2.17H50.34v86.81c0,4.67.55,7.94,1.66,9.83,1.11,1.89,3.38,3.39,6.84,4.5v5.33H21v-5.33c3.36-1.11,5.62-2.61,6.77-4.5,1.15-1.89,1.73-5.17,1.73-9.83V51.32c0-4.67-.58-7.97-1.73-9.91-1.15-1.94-3.41-3.42-6.77-4.42v-5.33h147.35c3.72,0,6.35-.71,7.9-2.13,1.55-1.42,2.72-4.26,3.52-8.53h4.25v42.99h-4.25c-.8-4.29-1.97-7.14-3.52-8.55-1.55-1.41-4.18-2.12-7.9-2.12H50.34ZM103.72,176.48v50.29c0,8.86-1.92,15.95-5.74,21.25-3.83,5.31-8.93,7.96-15.3,7.96s-11.19-2.58-14.56-7.73c-3.36-5.15-5.04-12.56-5.04-22.22v-49.55h16.72v49.49c0,4.74,1.22,7.1,3.67,7.1s3.54-2.37,3.54-7.1v-49.49h16.72ZM130.61,191.6v41.1h-16.72v-56.21h21.46c6.53,0,11.6,1.62,15.2,4.86,4.01,3.62,6.01,8.22,6.01,13.79s-2.48,10.47-7.45,14.37l18.41,46.47h-17.54l-16.88-41.4v-14.45h1.32c3.51,0,5.27-1.51,5.27-4.53,0-2.66-2.03-3.99-6.09-3.99h-2.96ZM163.18,232.69v-36.48c0-6.4,1.92-11.52,5.75-15.36,3.83-3.84,8.93-5.77,15.3-5.77s11.19,1.87,14.56,5.6c3.36,3.73,5.04,9.1,5.04,16.1v35.91h-16.72v-35.91c0-3.43-1.22-5.15-3.67-5.15s-3.54,1.72-3.54,5.15v35.91h-16.72ZM230.72,176.48v79.49h-16.72v-79.49h16.72ZM266.42,192.63v63.35h-16.72v-63.35h-12.81v-16.14h42.29v16.14h-12.77ZM324.86,176.48v58.33c0,6.42-1.92,11.56-5.74,15.4-3.83,3.84-8.93,5.77-15.3,5.77s-11.19-1.87-14.56-5.6c-3.36-3.73-5.04-9.1-5.04-16.1v-57.79h16.72v57.75c0,3.43,1.22,5.15,3.67,5.15s3.54-1.71,3.54-5.15v-57.75h16.72ZM351.75,191.6v41.1h-16.72v-56.21h21.46c6.53,0,11.6,1.62,15.2,4.86,4.01,3.62,6.01,8.22,6.01,13.79s-2.48,10.47-7.45,14.37l9.64,23.18h-17.54l-8.11-18.12v-14.45h1.32c3.51,0,5.27-1.51,5.27-4.53,0-2.66-2.03-3.99-6.09-3.99h-2.96ZM383,255.98l1.37-28.06.99-32.46.61-29.53v-9.96c7.77.1,15.87.15,24.3.15l9.06-.07,25.07-.07-.57,15.83-15.91-.37c-1.23-.1-2.93-.17-5.1-.22-2.17-.05-4.39-.07-6.65-.07-4.91,0-8.08.01-9.51.04-1.43.03-3.59.11-6.49.26l-.77,26.01c4.31.15,8.66.22,13.03.22,3.02,0,8.12-.15,15.3-.44-.25,4.44-.47,9.77-.66,15.97-8.4-.15-13.21-.22-14.44-.22-3.71,0-8.34.15-13.87.44l-.77,27.4,5.19.07c1.51,0,4.97-.05,10.38-.15l10.24-.29,12.93-.51c-.31,5.67-.54,11.01-.66,16.04-8.18-.1-21.65-.15-28.22-.15l-15.53.07-9.34.07Z"/>
</svg>