<?xml version="1.0" encoding="UTF-8" standalone="no"?>
<svg
   version="1.1"
   id="Capa_1"
   x="0px"
   y="0px"
   width="30"
   height="30"
   viewBox="0 0 150 150"
   xml:space="preserve"
   xmlns="http://www.w3.org/2000/svg"
   xmlns:svg="http://www.w3.org/2000/svg"
   xmlns:rdf="http://www.w3.org/1999/02/22-rdf-syntax-ns#"
   xmlns:cc="http://creativecommons.org/ns#"
   xmlns:dc="http://purl.org/dc/elements/1.1/"><metadata
   id="metadata41"><rdf:RDF><cc:Work
       rdf:about=""><dc:format>image/svg+xml</dc:format><dc:type
         rdf:resource="http://purl.org/dc/dcmitype/StillImage" /></cc:Work></rdf:RDF></metadata><defs
   id="defs39" />&#10;<path
   d="M 108.44001,0.54268267 C 106.92995,1.4827217 106.0099,3.9428427 104.16982,7.6230327 102.32972,11.293213 93.479285,29.464099 92.279235,32.83427 c -1.23007,3.400146 -1.85009,5.860278 1.82009,8.320398 3.67017,2.43012 11.910575,9.510462 14.370695,11.680572 2.45012,2.150095 2.76015,4.300205 0.95005,7.990385 -1.86009,3.69019 -5.70028,15.59077 -18.170895,29.69147 -9.72047,10.970525 -21.69106,18.380885 -25.36124,20.520995 -3.66018,2.17011 -5.64027,0.22002 -7.46036,-1.61007 -1.65008,-1.65009 -4.28021,-3.69018 -6.43032,-5.54028 -2.1301,-1.8501 -3.64018,-2.46012 -6.0903,-3.69019 -2.45012,-1.210045 -4.58022,-0.600025 -6.43031,0.31002 -1.84009,0.92005 -19.84097,8.29042 -27.171332,11.38057 -7.320358,3.07014 -6.110297,6.1403 -6.110297,8.3004 0,2.1501 -0.300016,4.61024 -0.300016,7.07034 0,2.46012 0.890045,6.46032 4.560226,9.83049 3.670181,3.37017 12.520609,12.91064 30.541489,12.91064 18.04089,0 35.43174,-13.21065 37.87186,-15.06074 2.43011,-1.86009 40.621985,-25.54125 55.282695,-63.053105 14.65072,-37.531825 9.76051,-37.531825 9.14046,-44.292156 -0.62005,-6.78033 -8.85044,-21.8410663 -17.39086,-24.9012363 -8.58042,-3.08014001 -15.93078,-3.08014001 -17.46086,-2.15009003 z"
   id="path2"
   style="fill-opacity:1;stroke-width:10.0005;fill:#ff0000" />&#10;&#10;&#10;&#10;&#10;&#10;&#10;&#10;&#10;&#10;&#10;&#10;&#10;&#10;&#10;&#10;</svg>
